<?xml version="1.0" encoding="UTF-8" standalone="no"?><svg xmlns="http://www.w3.org/2000/svg" xmlns:xlink="http://www.w3.org/1999/xlink"><symbol id="combined-view-2_1-1" width="16" height="16" viewBox="0 0 16 16" xmlns="http://www.w3.org/2000/svg"><path fill-rule="evenodd" clip-rule="evenodd" d="M5 2H2L2 14H5V2ZM2 0C0.895431 0 0 0.895431 0 2V14C0 15.1046 0.89543 16 2 16H5C6.10457 16 7 15.1046 7 14V2C7 0.895431 6.10457 0 5 0H2Z"></path><path fill-rule="evenodd" clip-rule="evenodd" d="M14 2H11L11 14H14V2ZM11 0C9.89543 0 9 0.895431 9 2V14C9 15.1046 9.89543 16 11 16H14C15.1046 16 16 15.1046 16 14V2C16 0.895431 15.1046 0 14 0H11Z" fill="#BCBCBC"></path></symbol><symbol id="combined-view-2_1" width="16" height="16" viewBox="0 0 16 16" xmlns="http://www.w3.org/2000/svg"><path fill-rule="evenodd" clip-rule="evenodd" d="M5 2H2L2 14H5V2ZM2 0C0.895431 0 0 0.895431 0 2V14C0 15.1046 0.89543 16 2 16H5C6.10457 16 7 15.1046 7 14V2C7 0.895431 6.10457 0 5 0H2Z"></path><path fill-rule="evenodd" clip-rule="evenodd" d="M14 2H11L11 14H14V2ZM11 0C9.89543 0 9 0.895431 9 2V14C9 15.1046 9.89543 16 11 16H14C15.1046 16 16 15.1046 16 14V2C16 0.895431 15.1046 0 14 0H11Z"></path></symbol><symbol id="combined-view-3_1-1" width="16" height="16" viewBox="0 0 16 16" xmlns="http://www.w3.org/2000/svg"><path fill-rule="evenodd" clip-rule="evenodd" d="M5 2H2L2 5H5V2ZM2 0C0.895431 0 0 0.89543 0 2V5C0 6.10457 0.89543 7 2 7H5C6.10457 7 7 6.10457 7 5V2C7 0.895431 6.10457 0 5 0H2Z"></path><path fill-rule="evenodd" clip-rule="evenodd" d="M14 2H11L11 5H14V2ZM11 0C9.89543 0 9 0.89543 9 2V5C9 6.10457 9.89543 7 11 7H14C15.1046 7 16 6.10457 16 5V2C16 0.895431 15.1046 0 14 0H11Z" fill="#BCBCBC"></path><path fill-rule="evenodd" clip-rule="evenodd" d="M14 11H2V14H14V11ZM2 9C0.895431 9 0 9.89543 0 11V14C0 15.1046 0.895431 16 2 16H14C15.1046 16 16 15.1046 16 14V11C16 9.89543 15.1046 9 14 9H2Z" fill="#BCBCBC"></path></symbol><symbol id="combined-view-2_2-1" width="16" height="16" viewBox="0 0 16 16" xmlns="http://www.w3.org/2000/svg"><path fill-rule="evenodd" clip-rule="evenodd" d="M14 2H2V5H14V2ZM2 0C0.895431 0 0 0.89543 0 2V5C0 6.10457 0.895431 7 2 7H14C15.1046 7 16 6.10457 16 5V2C16 0.895431 15.1046 0 14 0H2Z"></path><path fill-rule="evenodd" clip-rule="evenodd" d="M14 11H2V14H14V11ZM2 9C0.895431 9 0 9.89543 0 11V14C0 15.1046 0.895431 16 2 16H14C15.1046 16 16 15.1046 16 14V11C16 9.89543 15.1046 9 14 9H2Z" fill="#BCBCBC"></path></symbol><symbol id="combined-view-1_1" width="16" height="16" viewBox="0 0 16 16" xmlns="http://www.w3.org/2000/svg"><path fill-rule="evenodd" clip-rule="evenodd" d="M14 2H2V14H14V2ZM2 0C0.895431 0 0 0.895431 0 2V14C0 15.1046 0.895431 16 2 16H14C15.1046 16 16 15.1046 16 14V2C16 0.895431 15.1046 0 14 0H2Z"></path></symbol><symbol id="combined-view-2_1-2" width="16" height="16" viewBox="0 0 16 16" xmlns="http://www.w3.org/2000/svg"><path fill-rule="evenodd" clip-rule="evenodd" d="M5 2H2L2 14H5V2ZM2 0C0.895431 0 0 0.895431 0 2V14C0 15.1046 0.89543 16 2 16H5C6.10457 16 7 15.1046 7 14V2C7 0.895431 6.10457 0 5 0H2Z" fill="#BCBCBC"></path><path fill-rule="evenodd" clip-rule="evenodd" d="M14 2H11L11 14H14V2ZM11 0C9.89543 0 9 0.895431 9 2V14C9 15.1046 9.89543 16 11 16H14C15.1046 16 16 15.1046 16 14V2C16 0.895431 15.1046 0 14 0H11Z"></path></symbol><symbol id="combined-view-2_2-2" width="16" height="16" viewBox="0 0 16 16" xmlns="http://www.w3.org/2000/svg"><path fill-rule="evenodd" clip-rule="evenodd" d="M14 2H2V5H14V2ZM2 0C0.895431 0 0 0.89543 0 2V5C0 6.10457 0.895431 7 2 7H14C15.1046 7 16 6.10457 16 5V2C16 0.895431 15.1046 0 14 0H2Z" fill="#BCBCBC"></path><path fill-rule="evenodd" clip-rule="evenodd" d="M14 11H2V14H14V11ZM2 9C0.895431 9 0 9.89543 0 11V14C0 15.1046 0.895431 16 2 16H14C15.1046 16 16 15.1046 16 14V11C16 9.89543 15.1046 9 14 9H2Z"></path></symbol><symbol id="combined-view-2_2" width="16" height="16" viewBox="0 0 16 16" xmlns="http://www.w3.org/2000/svg"><path fill-rule="evenodd" clip-rule="evenodd" d="M14 2H2V5H14V2ZM2 0C0.895431 0 0 0.89543 0 2V5C0 6.10457 0.895431 7 2 7H14C15.1046 7 16 6.10457 16 5V2C16 0.895431 15.1046 0 14 0H2Z"></path><path fill-rule="evenodd" clip-rule="evenodd" d="M14 11H2V14H14V11ZM2 9C0.895431 9 0 9.89543 0 11V14C0 15.1046 0.895431 16 2 16H14C15.1046 16 16 15.1046 16 14V11C16 9.89543 15.1046 9 14 9H2Z"></path></symbol><symbol id="combined-view-3_1-3" width="16" height="16" viewBox="0 0 16 16" xmlns="http://www.w3.org/2000/svg"><path fill-rule="evenodd" clip-rule="evenodd" d="M5 2H2L2 5H5V2ZM2 0C0.895431 0 0 0.89543 0 2V5C0 6.10457 0.89543 7 2 7H5C6.10457 7 7 6.10457 7 5V2C7 0.895431 6.10457 0 5 0H2Z" fill="#BCBCBC"></path><path fill-rule="evenodd" clip-rule="evenodd" d="M14 2H11L11 5H14V2ZM11 0C9.89543 0 9 0.89543 9 2V5C9 6.10457 9.89543 7 11 7H14C15.1046 7 16 6.10457 16 5V2C16 0.895431 15.1046 0 14 0H11Z" fill="#BCBCBC"></path><path fill-rule="evenodd" clip-rule="evenodd" d="M14 11H2V14H14V11ZM2 9C0.895431 9 0 9.89543 0 11V14C0 15.1046 0.895431 16 2 16H14C15.1046 16 16 15.1046 16 14V11C16 9.89543 15.1046 9 14 9H2Z"></path></symbol><symbol id="combined-view-3_1-2" width="16" height="16" viewBox="0 0 16 16" xmlns="http://www.w3.org/2000/svg"><path fill-rule="evenodd" clip-rule="evenodd" d="M5 2H2L2 5H5V2ZM2 0C0.895431 0 0 0.89543 0 2V5C0 6.10457 0.89543 7 2 7H5C6.10457 7 7 6.10457 7 5V2C7 0.895431 6.10457 0 5 0H2Z" fill="#BCBCBC"></path><path fill-rule="evenodd" clip-rule="evenodd" d="M14 2H11L11 5H14V2ZM11 0C9.89543 0 9 0.89543 9 2V5C9 6.10457 9.89543 7 11 7H14C15.1046 7 16 6.10457 16 5V2C16 0.895431 15.1046 0 14 0H11Z"></path><path fill-rule="evenodd" clip-rule="evenodd" d="M14 11H2V14H14V11ZM2 9C0.895431 9 0 9.89543 0 11V14C0 15.1046 0.895431 16 2 16H14C15.1046 16 16 15.1046 16 14V11C16 9.89543 15.1046 9 14 9H2Z" fill="#BCBCBC"></path></symbol><symbol id="combined-view-3_1" width="16" height="16" viewBox="0 0 16 16" xmlns="http://www.w3.org/2000/svg"><path fill-rule="evenodd" clip-rule="evenodd" d="M5 2H2L2 5H5V2ZM2 0C0.895431 0 0 0.89543 0 2V5C0 6.10457 0.89543 7 2 7H5C6.10457 7 7 6.10457 7 5V2C7 0.895431 6.10457 0 5 0H2Z"></path><path fill-rule="evenodd" clip-rule="evenodd" d="M14 2H11L11 5H14V2ZM11 0C9.89543 0 9 0.89543 9 2V5C9 6.10457 9.89543 7 11 7H14C15.1046 7 16 6.10457 16 5V2C16 0.895431 15.1046 0 14 0H11Z"></path><path fill-rule="evenodd" clip-rule="evenodd" d="M14 11H2V14H14V11ZM2 9C0.895431 9 0 9.89543 0 11V14C0 15.1046 0.895431 16 2 16H14C15.1046 16 16 15.1046 16 14V11C16 9.89543 15.1046 9 14 9H2Z"></path></symbol><symbol id="combined-view-3_2-3" width="16" height="16" viewBox="0 0 16 16" xmlns="http://www.w3.org/2000/svg"><path fill-rule="evenodd" clip-rule="evenodd" d="M5 11H2L2 14H5V11ZM2 9C0.895431 9 0 9.89543 0 11V14C0 15.1046 0.89543 16 2 16H5C6.10457 16 7 15.1046 7 14V11C7 9.89543 6.10457 9 5 9H2Z" fill="#BCBCBC"></path><path fill-rule="evenodd" clip-rule="evenodd" d="M14 11H11L11 14H14V11ZM11 9C9.89543 9 9 9.89543 9 11V14C9 15.1046 9.89543 16 11 16H14C15.1046 16 16 15.1046 16 14V11C16 9.89543 15.1046 9 14 9H11Z"></path><path fill-rule="evenodd" clip-rule="evenodd" d="M14 2H2V5H14V2ZM2 0C0.895431 0 0 0.89543 0 2V5C0 6.10457 0.895431 7 2 7H14C15.1046 7 16 6.10457 16 5V2C16 0.895431 15.1046 0 14 0H2Z" fill="#BCBCBC"></path></symbol><symbol id="combined-view-3_2" width="16" height="16" viewBox="0 0 16 16" xmlns="http://www.w3.org/2000/svg"><path fill-rule="evenodd" clip-rule="evenodd" d="M5 11H2L2 14H5V11ZM2 9C0.895431 9 0 9.89543 0 11V14C0 15.1046 0.89543 16 2 16H5C6.10457 16 7 15.1046 7 14V11C7 9.89543 6.10457 9 5 9H2Z"></path><path fill-rule="evenodd" clip-rule="evenodd" d="M14 11H11L11 14H14V11ZM11 9C9.89543 9 9 9.89543 9 11V14C9 15.1046 9.89543 16 11 16H14C15.1046 16 16 15.1046 16 14V11C16 9.89543 15.1046 9 14 9H11Z"></path><path fill-rule="evenodd" clip-rule="evenodd" d="M14 2H2V5H14V2ZM2 0C0.895431 0 0 0.89543 0 2V5C0 6.10457 0.895431 7 2 7H14C15.1046 7 16 6.10457 16 5V2C16 0.895431 15.1046 0 14 0H2Z"></path></symbol><symbol id="combined-view-3_3-2" width="16" height="16" viewBox="0 0 16 16" xmlns="http://www.w3.org/2000/svg"><path fill-rule="evenodd" clip-rule="evenodd" d="M5 2H2L2 5H5V2ZM2 0C0.895431 0 0 0.89543 0 2V5C0 6.10457 0.89543 7 2 7H5C6.10457 7 7 6.10457 7 5V2C7 0.895431 6.10457 0 5 0H2Z" fill="#BCBCBC"></path><path fill-rule="evenodd" clip-rule="evenodd" d="M5 11H2L2 14H5V11ZM2 9C0.895431 9 0 9.89543 0 11V14C0 15.1046 0.89543 16 2 16H5C6.10457 16 7 15.1046 7 14V11C7 9.89543 6.10457 9 5 9H2Z"></path><path fill-rule="evenodd" clip-rule="evenodd" d="M14 2H11L11 14H14V2ZM11 0C9.89543 0 9 0.895431 9 2V14C9 15.1046 9.89543 16 11 16H14C15.1046 16 16 15.1046 16 14V2C16 0.895431 15.1046 0 14 0H11Z" fill="#BCBCBC"></path></symbol><symbol id="combined-view-3_3-3" width="16" height="16" viewBox="0 0 16 16" xmlns="http://www.w3.org/2000/svg"><path fill-rule="evenodd" clip-rule="evenodd" d="M5 2H2L2 5H5V2ZM2 0C0.895431 0 0 0.89543 0 2V5C0 6.10457 0.89543 7 2 7H5C6.10457 7 7 6.10457 7 5V2C7 0.895431 6.10457 0 5 0H2Z" fill="#BCBCBC"></path><path fill-rule="evenodd" clip-rule="evenodd" d="M5 11H2L2 14H5V11ZM2 9C0.895431 9 0 9.89543 0 11V14C0 15.1046 0.89543 16 2 16H5C6.10457 16 7 15.1046 7 14V11C7 9.89543 6.10457 9 5 9H2Z" fill="#BCBCBC"></path><path fill-rule="evenodd" clip-rule="evenodd" d="M14 2H11L11 14H14V2ZM11 0C9.89543 0 9 0.895431 9 2V14C9 15.1046 9.89543 16 11 16H14C15.1046 16 16 15.1046 16 14V2C16 0.895431 15.1046 0 14 0H11Z"></path></symbol><symbol id="combined-view-3_2-1" width="16" height="16" viewBox="0 0 16 16" xmlns="http://www.w3.org/2000/svg"><path fill-rule="evenodd" clip-rule="evenodd" d="M5 11H2L2 14H5V11ZM2 9C0.895431 9 0 9.89543 0 11V14C0 15.1046 0.89543 16 2 16H5C6.10457 16 7 15.1046 7 14V11C7 9.89543 6.10457 9 5 9H2Z" fill="#BCBCBC"></path><path fill-rule="evenodd" clip-rule="evenodd" d="M14 11H11L11 14H14V11ZM11 9C9.89543 9 9 9.89543 9 11V14C9 15.1046 9.89543 16 11 16H14C15.1046 16 16 15.1046 16 14V11C16 9.89543 15.1046 9 14 9H11Z" fill="#BCBCBC"></path><path fill-rule="evenodd" clip-rule="evenodd" d="M14 2H2V5H14V2ZM2 0C0.895431 0 0 0.89543 0 2V5C0 6.10457 0.895431 7 2 7H14C15.1046 7 16 6.10457 16 5V2C16 0.895431 15.1046 0 14 0H2Z"></path></symbol><symbol id="combined-view-3_4-2" width="16" height="16" viewBox="0 0 16 16" xmlns="http://www.w3.org/2000/svg"><path fill-rule="evenodd" clip-rule="evenodd" d="M14 2H11L11 5H14V2ZM11 0C9.89543 0 9 0.89543 9 2V5C9 6.10457 9.89543 7 11 7H14C15.1046 7 16 6.10457 16 5V2C16 0.895431 15.1046 0 14 0H11Z"></path><path fill-rule="evenodd" clip-rule="evenodd" d="M14 11H11L11 14H14V11ZM11 9C9.89543 9 9 9.89543 9 11V14C9 15.1046 9.89543 16 11 16H14C15.1046 16 16 15.1046 16 14V11C16 9.89543 15.1046 9 14 9H11Z" fill="#BCBCBC"></path><path fill-rule="evenodd" clip-rule="evenodd" d="M5 2H2L2 14H5V2ZM2 0C0.895431 0 0 0.895431 0 2V14C0 15.1046 0.89543 16 2 16H5C6.10457 16 7 15.1046 7 14V2C7 0.895431 6.10457 0 5 0H2Z" fill="#BCBCBC"></path></symbol><symbol id="combined-view-3_4-1" width="16" height="16" viewBox="0 0 16 16" xmlns="http://www.w3.org/2000/svg"><path fill-rule="evenodd" clip-rule="evenodd" d="M14 2H11L11 5H14V2ZM11 0C9.89543 0 9 0.89543 9 2V5C9 6.10457 9.89543 7 11 7H14C15.1046 7 16 6.10457 16 5V2C16 0.895431 15.1046 0 14 0H11Z" fill="#BCBCBC"></path><path fill-rule="evenodd" clip-rule="evenodd" d="M14 11H11L11 14H14V11ZM11 9C9.89543 9 9 9.89543 9 11V14C9 15.1046 9.89543 16 11 16H14C15.1046 16 16 15.1046 16 14V11C16 9.89543 15.1046 9 14 9H11Z" fill="#BCBCBC"></path><path fill-rule="evenodd" clip-rule="evenodd" d="M5 2H2L2 14H5V2ZM2 0C0.895431 0 0 0.895431 0 2V14C0 15.1046 0.89543 16 2 16H5C6.10457 16 7 15.1046 7 14V2C7 0.895431 6.10457 0 5 0H2Z"></path></symbol><symbol id="combined-view-3_3-1" width="16" height="16" viewBox="0 0 16 16" xmlns="http://www.w3.org/2000/svg"><path fill-rule="evenodd" clip-rule="evenodd" d="M5 2H2L2 5H5V2ZM2 0C0.895431 0 0 0.89543 0 2V5C0 6.10457 0.89543 7 2 7H5C6.10457 7 7 6.10457 7 5V2C7 0.895431 6.10457 0 5 0H2Z"></path><path fill-rule="evenodd" clip-rule="evenodd" d="M5 11H2L2 14H5V11ZM2 9C0.895431 9 0 9.89543 0 11V14C0 15.1046 0.89543 16 2 16H5C6.10457 16 7 15.1046 7 14V11C7 9.89543 6.10457 9 5 9H2Z" fill="#BCBCBC"></path><path fill-rule="evenodd" clip-rule="evenodd" d="M14 2H11L11 14H14V2ZM11 0C9.89543 0 9 0.895431 9 2V14C9 15.1046 9.89543 16 11 16H14C15.1046 16 16 15.1046 16 14V2C16 0.895431 15.1046 0 14 0H11Z" fill="#BCBCBC"></path></symbol><symbol id="combined-view-3_2-2" width="16" height="16" viewBox="0 0 16 16" xmlns="http://www.w3.org/2000/svg"><path fill-rule="evenodd" clip-rule="evenodd" d="M5 11H2L2 14H5V11ZM2 9C0.895431 9 0 9.89543 0 11V14C0 15.1046 0.89543 16 2 16H5C6.10457 16 7 15.1046 7 14V11C7 9.89543 6.10457 9 5 9H2Z"></path><path fill-rule="evenodd" clip-rule="evenodd" d="M14 11H11L11 14H14V11ZM11 9C9.89543 9 9 9.89543 9 11V14C9 15.1046 9.89543 16 11 16H14C15.1046 16 16 15.1046 16 14V11C16 9.89543 15.1046 9 14 9H11Z" fill="#BCBCBC"></path><path fill-rule="evenodd" clip-rule="evenodd" d="M14 2H2V5H14V2ZM2 0C0.895431 0 0 0.89543 0 2V5C0 6.10457 0.895431 7 2 7H14C15.1046 7 16 6.10457 16 5V2C16 0.895431 15.1046 0 14 0H2Z" fill="#BCBCBC"></path></symbol><symbol id="combined-view-3_4" width="16" height="16" viewBox="0 0 16 16" xmlns="http://www.w3.org/2000/svg"><path fill-rule="evenodd" clip-rule="evenodd" d="M14 2H11L11 5H14V2ZM11 0C9.89543 0 9 0.89543 9 2V5C9 6.10457 9.89543 7 11 7H14C15.1046 7 16 6.10457 16 5V2C16 0.895431 15.1046 0 14 0H11Z"></path><path fill-rule="evenodd" clip-rule="evenodd" d="M14 11H11L11 14H14V11ZM11 9C9.89543 9 9 9.89543 9 11V14C9 15.1046 9.89543 16 11 16H14C15.1046 16 16 15.1046 16 14V11C16 9.89543 15.1046 9 14 9H11Z"></path><path fill-rule="evenodd" clip-rule="evenodd" d="M5 2H2L2 14H5V2ZM2 0C0.895431 0 0 0.895431 0 2V14C0 15.1046 0.89543 16 2 16H5C6.10457 16 7 15.1046 7 14V2C7 0.895431 6.10457 0 5 0H2Z"></path></symbol><symbol id="combined-view-3_4-3" width="16" height="16" viewBox="0 0 16 16" xmlns="http://www.w3.org/2000/svg"><path fill-rule="evenodd" clip-rule="evenodd" d="M14 2H11L11 5H14V2ZM11 0C9.89543 0 9 0.89543 9 2V5C9 6.10457 9.89543 7 11 7H14C15.1046 7 16 6.10457 16 5V2C16 0.895431 15.1046 0 14 0H11Z" fill="#BCBCBC"></path><path fill-rule="evenodd" clip-rule="evenodd" d="M14 11H11L11 14H14V11ZM11 9C9.89543 9 9 9.89543 9 11V14C9 15.1046 9.89543 16 11 16H14C15.1046 16 16 15.1046 16 14V11C16 9.89543 15.1046 9 14 9H11Z"></path><path fill-rule="evenodd" clip-rule="evenodd" d="M5 2H2L2 14H5V2ZM2 0C0.895431 0 0 0.895431 0 2V14C0 15.1046 0.89543 16 2 16H5C6.10457 16 7 15.1046 7 14V2C7 0.895431 6.10457 0 5 0H2Z" fill="#BCBCBC"></path></symbol><symbol id="combined-view-3_3" width="16" height="16" viewBox="0 0 16 16" xmlns="http://www.w3.org/2000/svg"><path fill-rule="evenodd" clip-rule="evenodd" d="M5 2H2L2 5H5V2ZM2 0C0.895431 0 0 0.89543 0 2V5C0 6.10457 0.89543 7 2 7H5C6.10457 7 7 6.10457 7 5V2C7 0.895431 6.10457 0 5 0H2Z"></path><path fill-rule="evenodd" clip-rule="evenodd" d="M5 11H2L2 14H5V11ZM2 9C0.895431 9 0 9.89543 0 11V14C0 15.1046 0.89543 16 2 16H5C6.10457 16 7 15.1046 7 14V11C7 9.89543 6.10457 9 5 9H2Z"></path><path fill-rule="evenodd" clip-rule="evenodd" d="M14 2H11L11 14H14V2ZM11 0C9.89543 0 9 0.895431 9 2V14C9 15.1046 9.89543 16 11 16H14C15.1046 16 16 15.1046 16 14V2C16 0.895431 15.1046 0 14 0H11Z"></path></symbol><symbol id="combined-view-4_1-2" width="16" height="16" viewBox="0 0 16 16" xmlns="http://www.w3.org/2000/svg"><path fill-rule="evenodd" clip-rule="evenodd" d="M5 2H2L2 4H5V2ZM2 0C0.895431 0 0 0.89543 0 2V4C0 5.10457 0.89543 6 2 6H5C6.10457 6 7 5.10457 7 4V2C7 0.895431 6.10457 0 5 0H2Z" fill="#BCBCBC"></path><path fill-rule="evenodd" clip-rule="evenodd" d="M5 9H2L2 14H5V9ZM2 7C0.895431 7 0 7.89543 0 9V14C0 15.1046 0.89543 16 2 16H5C6.10457 16 7 15.1046 7 14V9C7 7.89543 6.10457 7 5 7H2Z" fill="#BCBCBC"></path><path fill-rule="evenodd" clip-rule="evenodd" d="M14 12H11L11 14H14V12ZM11 10C9.89543 10 9 10.8954 9 12V14C9 15.1046 9.89543 16 11 16H14C15.1046 16 16 15.1046 16 14V12C16 10.8954 15.1046 10 14 10H11Z" fill="#BCBCBC"></path><path fill-rule="evenodd" clip-rule="evenodd" d="M14 2H11L11 7H14V2ZM11 0C9.89543 0 9 0.89543 9 2V7C9 8.10457 9.89543 9 11 9H14C15.1046 9 16 8.10457 16 7V2C16 0.895431 15.1046 0 14 0H11Z"></path></symbol><symbol id="combined-view-4_1-1" width="16" height="16" viewBox="0 0 16 16" xmlns="http://www.w3.org/2000/svg"><path fill-rule="evenodd" clip-rule="evenodd" d="M5 2H2L2 4H5V2ZM2 0C0.895431 0 0 0.89543 0 2V4C0 5.10457 0.89543 6 2 6H5C6.10457 6 7 5.10457 7 4V2C7 0.895431 6.10457 0 5 0H2Z"></path><path fill-rule="evenodd" clip-rule="evenodd" d="M5 9H2L2 14H5V9ZM2 7C0.895431 7 0 7.89543 0 9V14C0 15.1046 0.89543 16 2 16H5C6.10457 16 7 15.1046 7 14V9C7 7.89543 6.10457 7 5 7H2Z" fill="#BCBCBC"></path><path fill-rule="evenodd" clip-rule="evenodd" d="M14 12H11L11 14H14V12ZM11 10C9.89543 10 9 10.8954 9 12V14C9 15.1046 9.89543 16 11 16H14C15.1046 16 16 15.1046 16 14V12C16 10.8954 15.1046 10 14 10H11Z" fill="#BCBCBC"></path><path fill-rule="evenodd" clip-rule="evenodd" d="M14 2H11L11 7H14V2ZM11 0C9.89543 0 9 0.89543 9 2V7C9 8.10457 9.89543 9 11 9H14C15.1046 9 16 8.10457 16 7V2C16 0.895431 15.1046 0 14 0H11Z" fill="#BCBCBC"></path></symbol><symbol id="combined-view-4_1" width="16" height="16" viewBox="0 0 16 16" xmlns="http://www.w3.org/2000/svg"><path fill-rule="evenodd" clip-rule="evenodd" d="M5 2H2L2 4H5V2ZM2 0C0.895431 0 0 0.89543 0 2V4C0 5.10457 0.89543 6 2 6H5C6.10457 6 7 5.10457 7 4V2C7 0.895431 6.10457 0 5 0H2Z"></path><path fill-rule="evenodd" clip-rule="evenodd" d="M5 9H2L2 14H5V9ZM2 7C0.895431 7 0 7.89543 0 9V14C0 15.1046 0.89543 16 2 16H5C6.10457 16 7 15.1046 7 14V9C7 7.89543 6.10457 7 5 7H2Z"></path><path fill-rule="evenodd" clip-rule="evenodd" d="M14 12H11L11 14H14V12ZM11 10C9.89543 10 9 10.8954 9 12V14C9 15.1046 9.89543 16 11 16H14C15.1046 16 16 15.1046 16 14V12C16 10.8954 15.1046 10 14 10H11Z"></path><path fill-rule="evenodd" clip-rule="evenodd" d="M14 2H11L11 7H14V2ZM11 0C9.89543 0 9 0.89543 9 2V7C9 8.10457 9.89543 9 11 9H14C15.1046 9 16 8.10457 16 7V2C16 0.895431 15.1046 0 14 0H11Z"></path></symbol><symbol id="combined-view-4_1-4" width="16" height="16" viewBox="0 0 16 16" xmlns="http://www.w3.org/2000/svg"><path fill-rule="evenodd" clip-rule="evenodd" d="M5 2H2L2 4H5V2ZM2 0C0.895431 0 0 0.89543 0 2V4C0 5.10457 0.89543 6 2 6H5C6.10457 6 7 5.10457 7 4V2C7 0.895431 6.10457 0 5 0H2Z" fill="#BCBCBC"></path><path fill-rule="evenodd" clip-rule="evenodd" d="M5 9H2L2 14H5V9ZM2 7C0.895431 7 0 7.89543 0 9V14C0 15.1046 0.89543 16 2 16H5C6.10457 16 7 15.1046 7 14V9C7 7.89543 6.10457 7 5 7H2Z" fill="#BCBCBC"></path><path fill-rule="evenodd" clip-rule="evenodd" d="M14 12H11L11 14H14V12ZM11 10C9.89543 10 9 10.8954 9 12V14C9 15.1046 9.89543 16 11 16H14C15.1046 16 16 15.1046 16 14V12C16 10.8954 15.1046 10 14 10H11Z"></path><path fill-rule="evenodd" clip-rule="evenodd" d="M14 2H11L11 7H14V2ZM11 0C9.89543 0 9 0.89543 9 2V7C9 8.10457 9.89543 9 11 9H14C15.1046 9 16 8.10457 16 7V2C16 0.895431 15.1046 0 14 0H11Z" fill="#BCBCBC"></path></symbol><symbol id="combined-view-4_1-3" width="16" height="16" viewBox="0 0 16 16" xmlns="http://www.w3.org/2000/svg"><path fill-rule="evenodd" clip-rule="evenodd" d="M5 2H2L2 4H5V2ZM2 0C0.895431 0 0 0.89543 0 2V4C0 5.10457 0.89543 6 2 6H5C6.10457 6 7 5.10457 7 4V2C7 0.895431 6.10457 0 5 0H2Z" fill="#BCBCBC"></path><path fill-rule="evenodd" clip-rule="evenodd" d="M5 9H2L2 14H5V9ZM2 7C0.895431 7 0 7.89543 0 9V14C0 15.1046 0.89543 16 2 16H5C6.10457 16 7 15.1046 7 14V9C7 7.89543 6.10457 7 5 7H2Z"></path><path fill-rule="evenodd" clip-rule="evenodd" d="M14 12H11L11 14H14V12ZM11 10C9.89543 10 9 10.8954 9 12V14C9 15.1046 9.89543 16 11 16H14C15.1046 16 16 15.1046 16 14V12C16 10.8954 15.1046 10 14 10H11Z" fill="#BCBCBC"></path><path fill-rule="evenodd" clip-rule="evenodd" d="M14 2H11L11 7H14V2ZM11 0C9.89543 0 9 0.89543 9 2V7C9 8.10457 9.89543 9 11 9H14C15.1046 9 16 8.10457 16 7V2C16 0.895431 15.1046 0 14 0H11Z" fill="#BCBCBC"></path></symbol></svg>