<?xml version="1.0" encoding="UTF-8" standalone="no"?>
<svg
  xmlns="http://www.w3.org/2000/svg"
  id="svg64"
  preserveAspectRatio="xMidYMid meet"
  viewBox="0 0 160.19747 46.03047"
  height="61.373959"
  width="213.59662">
  <defs
    id="defs68">
    <clipPath
      id="clipPath18"
      clipPathUnits="userSpaceOnUse">
      <path
        id="path16"
        d="M 0,0 H 213.868 V 213.868 H 0 Z" />
    </clipPath>
    <clipPath
      id="clipPath46"
      clipPathUnits="userSpaceOnUse">
      <path
        id="path44-2"
        d="M 0,0 H 213.868 V 213.868 H 0 Z" />
    </clipPath>
  </defs>
  <g
    id="g62"
    stroke="none"
    fill="#bbbcbc"
    transform="matrix(0.02625407,0,0,-0.02625407,0.57272146,46.818092)">
    <path
      id="path28"
      d="M 2730,1285 V 960 h 45 45 v 112 113 l 113,-113 112,-112 h 65 65 l -128,128 -127,127 112,113 113,112 h -60 -60 l -102,-102 -103,-103 v 188 187 h -45 -45 z" />
    <path
      id="path30"
      d="m 4600,1505 c 0,-58 -2,-105 -5,-105 -3,0 -25,10 -48,22 -58,30 -156,30 -213,0 -168,-87 -179,-328 -20,-427 40,-24 62,-30 120,-33 61,-3 78,0 119,22 l 47,25 v -24 c 0,-23 4,-25 45,-25 h 45 v 325 325 h -45 -45 z m -90,-167 c 33,-17 51,-35 68,-68 27,-55 28,-82 1,-137 -51,-106 -207,-112 -269,-11 -44,73 -14,179 62,217 55,27 83,27 138,-1 z" />
    <path
      id="path32"
      d="m 3750,1500 v -60 h -35 c -35,0 -35,0 -35,-45 0,-45 0,-45 35,-45 h 35 v -150 -149 l 31,-35 c 34,-39 79,-56 152,-56 h 47 v 45 45 h -48 c -27,0 -57,7 -70,16 -21,14 -22,22 -22,150 v 134 h 70 70 v 45 45 h -70 -70 v 60 60 h -45 -45 z" />
    <path
      id="path34"
      d="m 5330,1500 v -60 h -35 c -35,0 -35,0 -35,-45 0,-45 0,-45 35,-45 h 35 v -150 -149 l 31,-35 c 34,-39 79,-56 152,-56 h 47 v 45 45 h -48 c -27,0 -57,7 -70,16 -21,14 -22,22 -22,150 v 134 h 70 70 v 45 45 h -70 -70 v 60 60 h -45 -45 z" />
    <path
      id="path36"
      d="m 1317,1435 c -22,-7 -50,-24 -64,-37 -47,-42 -53,-74 -53,-263 V 960 h 45 45 v 171 171 l 29,29 c 33,32 58,36 100,14 42,-21 51,-61 51,-231 V 960 h 45 45 v 174 174 l 31,26 c 35,30 58,32 98,11 42,-21 51,-61 51,-231 V 960 h 46 46 l -4,178 c -4,194 -9,216 -68,266 -63,52 -148,56 -217,9 -35,-24 -36,-24 -57,-5 -20,19 -85,42 -116,42 -8,-1 -32,-7 -53,-15 z" />
    <path
      id="path38"
      d="m 2032,1431 c -191,-67 -220,-329 -48,-435 66,-41 161,-48 231,-17 58,26 55,25 55,1 0,-17 7,-20 45,-20 h 45 v 138 c 0,157 -8,195 -53,254 -62,81 -177,114 -275,79 z m 167,-99 c 68,-50 88,-129 52,-201 -40,-78 -123,-107 -199,-69 -106,52 -125,176 -39,256 47,44 135,51 186,14 z" />
    <path
      id="path40"
      d="m 3310,1431 c -67,-24 -134,-92 -151,-154 -42,-158 59,-305 217,-315 87,-6 141,16 197,78 39,43 67,106 67,149 0,6 -20,11 -44,11 -39,0 -44,-3 -49,-27 -16,-76 -76,-125 -152,-125 -47,0 -113,28 -99,42 5,5 79,49 164,98 85,50 156,96 158,105 5,24 -61,100 -108,124 -65,33 -133,38 -200,14 z m 149,-91 c 24,-11 42,-22 40,-24 -6,-6 -250,-146 -255,-146 -2,0 -4,16 -4,35 0,79 72,153 150,154 14,0 45,-8 69,-19 z" />
    <path
      id="path42"
      d="m 4892,1431 c -191,-67 -220,-329 -48,-435 66,-41 161,-48 231,-17 58,26 55,25 55,1 0,-17 7,-20 45,-20 h 45 v 138 c 0,157 -8,195 -53,254 -62,81 -177,114 -275,79 z m 167,-99 c 68,-50 88,-129 52,-201 -40,-78 -123,-107 -199,-69 -106,52 -125,176 -39,256 47,44 135,51 186,14 z" />
    <path
      id="path44"
      d="m 5752,1431 c -191,-67 -220,-329 -48,-435 66,-41 161,-48 231,-17 58,26 55,25 55,1 0,-17 7,-20 45,-20 h 45 v 138 c 0,157 -8,195 -53,254 -62,81 -177,114 -275,79 z m 167,-99 c 68,-50 88,-129 52,-201 -40,-78 -123,-107 -199,-69 -106,52 -125,176 -39,256 47,44 135,51 186,14 z" />
    <path
      id="path46"
      d="m 2530,1429 c -32,-13 -78,-56 -96,-91 -10,-20 -14,-71 -14,-203 V 960 h 45 45 v 170 c 0,168 0,171 25,195 20,21 34,25 85,25 h 60 v 45 45 l -62,-1 c -35,0 -74,-5 -88,-10 z" />
    <path
      id="path48"
      d="m 2770,785 c 0,-20 5,-25 25,-25 20,0 25,5 25,25 0,20 -5,25 -25,25 -20,0 -25,-5 -25,-25 z" />
    <path
      id="path50"
      d="m 1360,685 c -126,-40 -196,-175 -159,-309 13,-48 82,-123 134,-147 53,-25 147,-24 200,0 54,25 111,86 130,140 22,63 20,81 -10,81 -19,0 -25,-5 -25,-22 0,-37 -42,-100 -86,-131 -48,-34 -115,-45 -167,-28 -38,13 -87,47 -87,61 0,4 83,57 185,116 l 184,108 -17,29 c -26,44 -81,86 -136,102 -60,18 -87,18 -146,0 z m 145,-54 c 39,-18 83,-57 74,-66 -3,-2 -77,-45 -164,-94 l -160,-90 -8,27 c -4,15 -5,44 -2,65 20,135 145,211 260,158 z" />
    <path
      id="path52"
      d="m 1880,685 c -53,-17 -116,-74 -141,-130 -15,-33 -19,-66 -19,-192 V 210 h 25 25 v 145 c 0,157 9,193 62,242 26,25 88,53 115,53 68,0 141,-47 173,-111 17,-33 20,-59 20,-184 V 210 h 25 25 v 143 c 0,180 -8,208 -75,273 -42,41 -63,54 -104,63 -64,14 -74,13 -131,-4 z" />
    <path
      id="path54"
      d="m 2390,685 c -206,-66 -229,-354 -37,-450 88,-43 191,-33 263,28 18,15 35,27 38,27 14,0 4,-97 -14,-135 -29,-61 -61,-75 -169,-75 -90,0 -91,0 -91,-25 0,-25 0,-25 96,-25 113,0 156,18 201,83 27,39 28,45 31,198 4,180 -7,240 -58,301 -57,69 -171,102 -260,73 z m 174,-69 c 98,-58 121,-188 49,-284 -59,-79 -185,-96 -260,-35 -52,42 -83,98 -83,153 1,154 160,244 294,166 z" />
    <path
      id="path56"
      d="m 3050,685 c -53,-17 -116,-74 -141,-130 -15,-33 -19,-66 -19,-192 V 210 h 25 25 v 145 c 0,157 9,193 62,242 26,25 88,53 115,53 68,0 141,-47 173,-111 17,-33 20,-59 20,-184 V 210 h 25 25 v 143 c 0,180 -8,208 -75,273 -42,41 -63,54 -104,63 -64,14 -74,13 -131,-4 z" />
    <path
      id="path58"
      d="m 3570,685 c -126,-40 -196,-175 -159,-309 13,-48 82,-123 134,-147 53,-25 147,-24 200,0 54,25 111,86 130,140 22,63 20,81 -10,81 -19,0 -25,-5 -25,-22 0,-37 -42,-100 -86,-131 -48,-34 -115,-45 -167,-28 -38,13 -87,47 -87,61 0,4 83,57 185,116 l 184,108 -17,29 c -26,44 -81,86 -136,102 -60,18 -87,18 -146,0 z m 145,-54 c 39,-18 83,-57 74,-66 -3,-2 -77,-45 -164,-94 l -160,-90 -8,27 c -4,15 -5,44 -2,65 20,135 145,211 260,158 z" />
    <path
      id="path60"
      d="M 2770,450 V 210 h 25 25 v 240 240 h -25 -25 z" />
  </g>
  <g
    transform="matrix(0.1316198,0,0,-0.12999301,-0.12243274,27.68066)"
    id="g10">
    <g
      id="g12">
      <g
        clip-path="url(#clipPath18)"
        id="g14">
        <g
          transform="translate(106.9282,1.2746)"
          id="g20">
          <path
            id="path22"
            style="fill:#bbbcbc;fill-opacity:1;fill-rule:nonzero;stroke:none"
            d="m 0,0 c -58.259,0 -105.652,47.397 -105.652,105.652 0,58.27 47.393,105.667 105.652,105.667 58.259,0 105.663,-47.397 105.663,-105.667 C 105.663,47.397 58.259,0 0,0" />
        </g>
        <g
          transform="translate(106.9282,1.2746)"
          id="g24">
          <path
            id="path26"
            style="fill:none;stroke:#bbbcbc;stroke-width:0.692;stroke-linecap:butt;stroke-linejoin:miter;stroke-miterlimit:10;stroke-dasharray:none;stroke-opacity:1"
            d="m 0,0 c -58.259,0 -105.652,47.397 -105.652,105.652 0,58.27 47.393,105.667 105.652,105.667 58.259,0 105.663,-47.397 105.663,-105.667 C 105.663,47.397 58.259,0 0,0 Z" />
        </g>
        <g
          transform="translate(106.9296,33.1134)"
          id="g28">
          <path
            id="path30-7"
            style="fill:#ffffff;fill-opacity:1;fill-rule:nonzero;stroke:none"
            d="m 0,0 c -40.702,0 -73.816,33.115 -73.816,73.816 0,40.709 33.114,73.824 73.816,73.824 40.702,0 73.823,-33.115 73.823,-73.824 C 73.823,33.115 40.702,0 0,0" />
        </g>
        <g
          transform="translate(106.9316,176.466)"
          id="g32">
          <path
            id="path34-3"
            style="fill:#bbbcbc;fill-opacity:1;fill-rule:nonzero;stroke:none"
            d="m 0,0 c -38.256,0 -69.382,-31.192 -69.382,-69.533 0,-38.341 31.126,-69.532 69.382,-69.532 38.259,0 69.385,31.191 69.385,69.532 C 69.385,-31.192 38.259,0 0,0 m -58.38,-73.455 h 22.315 c 0.276,-8.677 1.466,-16.843 3.411,-24.202 h -18.692 c -3.981,7.271 -6.456,15.48 -7.034,24.202 m 62.295,39.891 v 20.22 c 7.049,-2.059 13.358,-9.547 17.789,-20.22 z m 20.533,-7.845 c 2.125,-7.266 3.466,-15.498 3.779,-24.201 H 3.915 v 24.201 z m -28.363,28.065 v -20.22 h -17.79 c 4.435,10.673 10.74,18.161 17.79,20.22 m 0,-28.065 V -65.61 h -24.309 c 0.313,8.703 1.654,16.935 3.779,24.201 z M -36.065,-65.61 H -58.38 c 0.578,8.721 3.053,16.927 7.034,24.201 h 18.692 c -1.945,-7.362 -3.135,-15.528 -3.411,-24.201 m 7.841,-7.845 h 24.309 v -24.202 h -20.53 c -2.125,7.263 -3.466,15.495 -3.779,24.202 m 24.309,-32.05 v -20.217 c -7.05,2.059 -13.355,9.547 -17.786,20.217 z m 7.83,-20.217 v 20.217 h 17.789 c -4.434,-10.674 -10.74,-18.162 -17.789,-20.217 m 0,28.065 v 24.202 h 24.312 c -0.313,-8.707 -1.654,-16.939 -3.779,-24.202 z m 32.153,24.202 h 22.316 c -0.575,-8.722 -3.053,-16.931 -7.035,-24.202 H 32.658 c 1.944,7.359 3.134,15.525 3.41,24.202 m 0,7.845 c -0.276,8.673 -1.466,16.839 -3.41,24.201 h 18.691 c 3.982,-7.274 6.46,-15.48 7.035,-24.201 z m 10.114,32.046 H 30.19 c -2.95,7.996 -6.873,14.695 -11.491,19.598 10.979,-3.72 20.503,-10.615 27.483,-19.598 m -64.877,19.601 c -4.619,-4.906 -8.541,-11.605 -11.492,-19.601 h -15.991 c 6.979,8.983 16.503,15.881 27.483,19.601 m -27.483,-91.542 h 15.995 c 2.947,-7.996 6.869,-14.692 11.488,-19.598 -10.98,3.724 -20.5,10.619 -27.483,19.598 m 64.877,-19.594 c 4.618,4.902 8.541,11.601 11.487,19.594 h 15.996 c -6.983,-8.979 -16.504,-15.874 -27.483,-19.594" />
        </g>
      </g>
    </g>
    <g
      transform="translate(158.3232,45.2448)"
      id="g36">
      <path
        id="path38-7"
        style="fill:#ffffff;fill-opacity:1;fill-rule:nonzero;stroke:none"
        d="M 0,0 14.36,-14.611 24.739,-4.413 10.379,10.198 Z" />
    </g>
    <g
      id="g40">
      <g
        clip-path="url(#clipPath46)"
        id="g42">
        <g
          transform="translate(106.9301,37.3332)"
          id="g48">
          <path
            id="path50-9"
            style="fill:none;stroke:#ffffff;stroke-width:3;stroke-linecap:butt;stroke-linejoin:miter;stroke-miterlimit:10;stroke-dasharray:none;stroke-opacity:1"
            d="m 0,0 c -38.377,0 -69.595,31.221 -69.595,69.595 0,38.385 31.218,69.606 69.595,69.606 38.377,0 69.603,-31.221 69.603,-69.606 C 69.603,31.221 38.377,0 0,0 Z" />
        </g>
      </g>
    </g>
  </g>
</svg>
