<?xml version="1.0" encoding="UTF-8" standalone="no"?><svg xmlns="http://www.w3.org/2000/svg" xmlns:xlink="http://www.w3.org/1999/xlink"><symbol id="analytics" width="48" height="48" viewBox="0 0 48 48" xmlns="http://www.w3.org/2000/svg"><path d="M17 17V28H23.2572C23.3212 28.0775 23.3873 28.1532 23.4553 28.2271C23.7112 28.5046 23.8715 28.765 23.9476 29H16.5C16.2239 29 16 28.7761 16 28.5V16.5C16 16.2239 16.2239 16 16.5 16H29.5C29.7761 16 30 16.2239 30 16.5V19.5997C29.6832 19.4378 29.3486 19.3056 29 19.207V17H17Z"></path><path fill-rule="evenodd" clip-rule="evenodd" d="M30.6821 27.6819C30.2677 28.0963 29.9251 28.5992 29.8524 29.1807L29.719 30.2481C29.5939 31.2489 28.7431 32 27.7344 32H27.2656C26.2569 32 25.4061 31.2489 25.281 30.2481L25.1476 29.1807C25.0749 28.5992 24.7323 28.0963 24.3179 27.6819C23.5036 26.8675 23 25.7426 23 24.5C23 22.0147 25.0147 20 27.5 20C29.9853 20 32 22.0147 32 24.5C32 25.7426 31.4964 26.8675 30.6821 27.6819ZM29.975 26.9748C30.6094 26.3403 31 25.4667 31 24.5C31 22.567 29.433 21 27.5 21C25.567 21 24 22.567 24 24.5C24 25.4667 24.3906 26.3403 25.025 26.9748C25.5036 27.4533 26.0062 28.1317 26.1322 29H27V25H26.5C26.2239 25 26 24.7761 26 24.5C26 24.2239 26.2239 24 26.5 24H28.5C28.7761 24 29 24.2239 29 24.5C29 24.7761 28.7761 25 28.5 25H28V29H28.8678C28.9938 28.1317 29.4964 27.4533 29.975 26.9748ZM26.2733 30.124L26.2578 30H28.7422L28.7267 30.124C28.6642 30.6245 28.2388 31 27.7344 31H27.2656C26.7612 31 26.3358 30.6245 26.2733 30.124Z"></path><path d="M25.916 18.2227C26.0692 18.4525 26.0071 18.7629 25.7773 18.9161L23.1184 20.6887C22.7218 20.9531 22.1937 20.9008 21.8566 20.5638L20.5777 19.2849L18.916 21.7774C18.7628 22.0072 18.4524 22.0693 18.2226 21.9161C17.9929 21.7629 17.9308 21.4525 18.084 21.2227L19.7457 18.7302C20.0957 18.2051 20.8386 18.1315 21.2848 18.5778L22.5637 19.8567L25.2226 18.084C25.4524 17.9309 25.7628 17.9929 25.916 18.2227Z"></path><path d="M18 24.5C18 24.2239 18.2239 24 18.5 24H21.5C21.7761 24 22 24.2239 22 24.5C22 24.7761 21.7761 25 21.5 25H18.5C18.2239 25 18 24.7761 18 24.5Z"></path><path d="M18 26.5C18 26.2239 18.2239 26 18.5 26H21.5C21.7761 26 22 26.2239 22 26.5C22 26.7761 21.7761 27 21.5 27H18.5C18.2239 27 18 26.7761 18 26.5Z"></path></symbol><symbol id="arrow-right" width="13" height="20" viewBox="0 0 13 20" xmlns="http://www.w3.org/2000/svg"><path d="M7.49298 10L2.69653 4L5.89416 4L10.6906 10L5.89416 16H2.69653L7.49298 10Z"></path></symbol><symbol id="apply" xmlns="http://www.w3.org/2000/svg" viewBox="0 0 98.15 66.68"><g><path d="M85.88,31.71a1.65,1.65,0,0,0,0-2.33l-.12-.11L50.76.34A1.5,1.5,0,0,0,48.31,1.5v16c-1.18,0-2.23,0-3.27,0C24.51,18.33,7.1,31.46,1.72,50.27A39.15,39.15,0,0,0,.18,65.4a1.5,1.5,0,0,0,1.17,1.25,1.48,1.48,0,0,0,.31,0A1.5,1.5,0,0,0,2.93,66c14.59-23,39.58-21.5,45.38-20.82V60.79a1.5,1.5,0,0,0,2.48,1.14l35-30.14ZM51.31,57.52V43.86a1.5,1.5,0,0,0-1.22-1.47C49.79,42.33,21,37.2,3,60.6A41.29,41.29,0,0,1,4.6,51.09c5-17.56,21.32-29.82,40.55-30.51.81,0,1.61,0,2.47,0l2.15,0a1.57,1.57,0,0,0,1.08-.43,1.5,1.5,0,0,0,.45-1.07V4.69L82.62,30.56Z"></path><path d="M97.67,29.38l-.12-.11L62.54.34a1.5,1.5,0,1,0-1.91,2.31L94.4,30.56,60.61,59.66a1.5,1.5,0,1,0,2,2.27l35-30.14.08-.08A1.65,1.65,0,0,0,97.67,29.38Z"></path></g></symbol><symbol id="arrow-left" width="13" height="20" viewBox="0 0 13 20" xmlns="http://www.w3.org/2000/svg"><path d="M6.00665 10L10.8031 16L7.60547 16L2.80902 10L7.60547 4L10.8031 4L6.00665 10Z"></path></symbol><symbol id="arrow_down" width="24" height="24" viewBox="0 0 24 24" xmlns="http://www.w3.org/2000/svg"><path fill-rule="evenodd" clip-rule="evenodd" d="M8 11L12 15L16 11L8 11Z"></path></symbol><symbol id="arrow-down" width="20" height="13" viewBox="0 0 20 13" fill="none" xmlns="http://www.w3.org/2000/svg"><path d="m9.20059,6.5l4.79645,6l-3.19763,0l-4.79645,-6l4.79645,-6l3.19763,0l-4.79645,6z" fill="#BCBCBC" transform="rotate(-90 10.000000000000002,6.500000000000001)"></path></symbol><symbol id="arrow-up" width="20" height="13" viewBox="0 0 20 13" fill="none" xmlns="http://www.w3.org/2000/svg"><path d="m9.20059,6.5l4.79645,6l-3.19763,0l-4.79645,-6l4.79645,-6l3.19763,0l-4.79645,6z" fill="#BCBCBC" transform="rotate(90 10.000000000000002,6.500000000000001)"></path></symbol><symbol id="back-arrow" width="15" height="8" viewBox="0 0 15 8" xmlns="http://www.w3.org/2000/svg"><path d="M0.646446 3.64645C0.451184 3.84171 0.451184 4.15829 0.646446 4.35355L3.82843 7.53553C4.02369 7.7308 4.34027 7.7308 4.53553 7.53553C4.7308 7.34027 4.7308 7.02369 4.53553 6.82843L1.70711 4L4.53553 1.17157C4.7308 0.976312 4.7308 0.659729 4.53553 0.464467C4.34027 0.269205 4.02369 0.269205 3.82843 0.464467L0.646446 3.64645ZM15 3.5L1 3.5L1 4.5L15 4.5L15 3.5Z"></path></symbol><symbol id="arrow_up" width="24" height="24" viewBox="0 0 24 24" xmlns="http://www.w3.org/2000/svg"><path fill-rule="evenodd" clip-rule="evenodd" d="M16 13L12 9L8 13L16 13Z"></path></symbol><symbol id="batchsearch" width="48" height="48" viewBox="0 0 48 48" xmlns="http://www.w3.org/2000/svg"><path fill-rule="evenodd" clip-rule="evenodd" d="M28 16L31.5 23.1301H31.4935C31.796 23.302 32 23.6272 32 24V31C32 31.5523 31.5523 32 31 32H17C16.4477 32 16 31.5523 16 31V24C16 23.6272 16.204 23.302 16.5065 23.1301H16.5L20 16H28ZM20.1322 18L20.6231 17H27.3769L27.8678 18H20.1322ZM19.6413 19L19.1505 20H28.8495L28.3587 19H19.6413ZM29.3404 21H18.6596L17.6778 23H30.3222L29.3404 21ZM17 24H31V31H17V24ZM26 28H22V27H26V28Z"></path></symbol><symbol id="burger" width="16" height="12" viewBox="0 0 16 12" fill="none" xmlns="http://www.w3.org/2000/svg"><line y1="1" x2="16" y2="1" stroke-width="2"></line><line y1="6" x2="16" y2="6" stroke-width="2"></line><line y1="11" x2="16" y2="11" stroke-width="2"></line></symbol><symbol id="car2" viewBox="0 0 23 20" xmlns="http://www.w3.org/2000/svg"><path fill-rule="evenodd" clip-rule="evenodd" d="M16.1459 2H6.11416C5.69155 2 5.31456 2.26567 5.17242 2.66367L4.33801 5H18.2639L17.0403 2.55279C16.8709 2.214 16.5247 2 16.1459 2ZM18.8292 1.65836C18.321 0.642007 17.2822 0 16.1459 0H6.11416C4.84632 0 3.71535 0.797013 3.28893 1.99099L1.5 7H21.5L18.8292 1.65836Z"></path><path fill-rule="evenodd" clip-rule="evenodd" d="M21 10H2V14.4615H21V10ZM2 8C0.895431 8 0 8.89543 0 10V16.4615H23V10C23 8.89543 22.1046 8 21 8H2Z"></path><path fill-rule="evenodd" clip-rule="evenodd" d="M2 16.4614V16.9999C2 17.5522 2.44772 17.9999 3 17.9999C3.55228 17.9999 4 17.5522 4 16.9999V16.4614H6V16.9999C6 18.6567 4.65685 19.9999 3 19.9999C1.34315 19.9999 0 18.6567 0 16.9999V16.4614H2Z"></path><path fill-rule="evenodd" clip-rule="evenodd" d="M19 16.4614V16.9999C19 17.5522 19.4477 17.9999 20 17.9999C20.5523 17.9999 21 17.5522 21 16.9999V16.4614H23V16.9999C23 18.6567 21.6569 19.9999 20 19.9999C18.3431 19.9999 17 18.6567 17 16.9999V16.4614H19Z"></path><path fill-rule="evenodd" clip-rule="evenodd" d="M7 13C6.77644 11.8552 5.91773 11.3236 5 11.1146C4.94378 11.1018 4.88733 11.0902 4.8308 11.0797C4.52398 11.023 4.21454 11 3.92366 11C3.57764 11 3.25788 11.0326 3 11.0797V13H7Z"></path><path fill-rule="evenodd" clip-rule="evenodd" d="M16 13C16.2236 11.8552 17.0823 11.3236 18 11.1146C18.0562 11.1018 18.1127 11.0902 18.1692 11.0797C18.476 11.023 18.7855 11 19.0763 11C19.4224 11 19.7421 11.0326 20 11.0797V13H16Z"></path><path fill-rule="evenodd" clip-rule="evenodd" d="M9 11L9.57692 12.3846C9.73219 12.7573 10.0963 13 10.5 13H12.5C12.9037 13 13.2678 12.7573 13.4231 12.3846L14 11H9Z"></path><path fill-rule="evenodd" clip-rule="evenodd" d="M20.8543 9.98569L18.3543 5.48569L20.1026 4.5144L22.6026 9.0144L20.8543 9.98569ZM0.333984 9.05283L2.33398 5.05283L4.12284 5.94726L2.12284 9.94726L0.333984 9.05283Z"></path></symbol><symbol id="car" viewBox="0 0 23 20" xmlns="http://www.w3.org/2000/svg"><path fill-rule="evenodd" clip-rule="evenodd" d="M16.1459 2H6.11416C5.69155 2 5.31456 2.26567 5.17242 2.66367L4.33801 5H18.2639L17.0403 2.55279C16.8709 2.214 16.5247 2 16.1459 2ZM18.8292 1.65836C18.321 0.642007 17.2822 0 16.1459 0H6.11416C4.84632 0 3.71535 0.797013 3.28893 1.99099L1.5 7H21.5L18.8292 1.65836Z" fill="#717776"></path><path fill-rule="evenodd" clip-rule="evenodd" d="M21 10H2V14.4615H21V10ZM2 8C0.895431 8 0 8.89543 0 10V16.4615H23V10C23 8.89543 22.1046 8 21 8H2Z" fill="#717776"></path><path fill-rule="evenodd" clip-rule="evenodd" d="M2 16.4614V16.9999C2 17.5522 2.44772 17.9999 3 17.9999C3.55228 17.9999 4 17.5522 4 16.9999V16.4614H6V16.9999C6 18.6567 4.65685 19.9999 3 19.9999C1.34315 19.9999 0 18.6567 0 16.9999V16.4614H2Z" fill="#717776"></path><path fill-rule="evenodd" clip-rule="evenodd" d="M19 16.4614V16.9999C19 17.5522 19.4477 17.9999 20 17.9999C20.5523 17.9999 21 17.5522 21 16.9999V16.4614H23V16.9999C23 18.6567 21.6569 19.9999 20 19.9999C18.3431 19.9999 17 18.6567 17 16.9999V16.4614H19Z" fill="#717776"></path><path fill-rule="evenodd" clip-rule="evenodd" d="M7 13C6.77644 11.8552 5.91773 11.3236 5 11.1146C4.94378 11.1018 4.88733 11.0902 4.8308 11.0797C4.52398 11.023 4.21454 11 3.92366 11C3.57764 11 3.25788 11.0326 3 11.0797V13H7Z" fill="#717776"></path><path fill-rule="evenodd" clip-rule="evenodd" d="M16 13C16.2236 11.8552 17.0823 11.3236 18 11.1146C18.0562 11.1018 18.1127 11.0902 18.1692 11.0797C18.476 11.023 18.7855 11 19.0763 11C19.4224 11 19.7421 11.0326 20 11.0797V13H16Z" fill="#717776"></path><path fill-rule="evenodd" clip-rule="evenodd" d="M9 11L9.57692 12.3846C9.73219 12.7573 10.0963 13 10.5 13H12.5C12.9037 13 13.2678 12.7573 13.4231 12.3846L14 11H9Z" fill="#717776"></path><path fill-rule="evenodd" clip-rule="evenodd" d="M20.8543 9.98569L18.3543 5.48569L20.1026 4.5144L22.6026 9.0144L20.8543 9.98569ZM0.333984 9.05283L2.33398 5.05283L4.12284 5.94726L2.12284 9.94726L0.333984 9.05283Z" fill="#717776"></path></symbol><symbol id="check" xmlns="http://www.w3.org/2000/svg" viewBox="0 0 20 20"><path d="M18.35 2.65L6.56 14.52L1.65 9.58L0 11.24L5.73 17.01L6.56 17.8L7.38 17.01L20 4.31L18.35 2.65Z"></path></symbol><symbol id="clear" width="40" height="40" viewBox="0 0 40 40" fill="none" xmlns="http://www.w3.org/2000/svg"><path d="M16.1079 16.0566L23.8921 23.9437" stroke-linecap="round"></path><path d="M16.0549 23.8893L23.9448 16.1108" stroke-linecap="round"></path></symbol><symbol id="collapse" width="18" height="18" viewBox="0 0 18 18" fill="none" xmlns="http://www.w3.org/2000/svg"><path fill="#F49719" d="M10.5 7C10.5 7.27614 10.7239 7.5 11 7.5L15.5 7.5C15.7761 7.5 16 7.27614 16 7C16 6.72386 15.7761 6.5 15.5 6.5L11.5 6.5V2.5C11.5 2.22386 11.2761 2 11 2C10.7239 2 10.5 2.22386 10.5 2.5V7ZM16.6464 0.646447L10.6464 6.64645L11.3536 7.35355L17.3536 1.35355L16.6464 0.646447Z"></path><path fill="#F49719" d="M7.5 11C7.5 10.7239 7.27614 10.5 7 10.5H2.5C2.22386 10.5 2 10.7239 2 11C2 11.2761 2.22386 11.5 2.5 11.5H6.5L6.5 15.5C6.5 15.7761 6.72386 16 7 16C7.27614 16 7.5 15.7761 7.5 15.5L7.5 11ZM1.35355 17.3536L7.35355 11.3536L6.64645 10.6464L0.646447 16.6464L1.35355 17.3536Z"></path></symbol><symbol id="close" width="10" height="10" viewBox="0 0 10 10" fill="none" xmlns="http://www.w3.org/2000/svg"><path d="M0 0L10 10M0 0L10 10"></path><path d="M0 10L10 0M0 10L10 0"></path></symbol><symbol id="comparing-centre" width="36" height="36" viewBox="2 2 36 36" xmlns="http://www.w3.org/2000/svg"><path fill-rule="evenodd" clip-rule="evenodd" d="M10 11.5C10 10.6716 10.6716 10 11.5 10H15.5C16.3284 10 17 10.6716 17 11.5V14.5C17 15.3284 16.3284 16 15.5 16H11.5C10.6716 16 10 15.3284 10 14.5V11.5ZM12 12V14H15V12H12Z"></path><path fill-rule="evenodd" clip-rule="evenodd" d="M10 24.5C10 25.3284 10.6716 26 11.5 26H15.5C16.3284 26 17 25.3284 17 24.5V18.5C17 17.6716 16.3284 17 15.5 17H11.5C10.6716 17 10 17.6716 10 18.5V24.5ZM12 24V19H15V24H12Z"></path><path fill-rule="evenodd" clip-rule="evenodd" d="M26 24.5C26 25.3284 25.3284 26 24.5 26L20.5 26C19.6716 26 19 25.3284 19 24.5L19 21.5C19 20.6716 19.6716 20 20.5 20L24.5 20C25.3284 20 26 20.6716 26 21.5L26 24.5ZM24 24L24 22L21 22L21 24L24 24Z"></path><path fill-rule="evenodd" clip-rule="evenodd" d="M26 11.5C26 10.6716 25.3284 10 24.5 10L20.5 10C19.6716 10 19 10.6716 19 11.5L19 17.5C19 18.3284 19.6716 19 20.5 19L24.5 19C25.3284 19 26 18.3284 26 17.5L26 11.5ZM24 12L24 17L21 17L21 12L24 12Z"></path></symbol><symbol id="download" version="1.1" xmlns="http://www.w3.org/2000/svg" xmlns:xlink="http://www.w3.org/1999/xlink" x="0px" y="0px" viewBox="0 0 362.667 362.667" style="enable-background:new 0 0 362.667 362.667;" xml:space="preserve"><g><polygon points="330.667,128 245.333,128 245.333,0 117.333,0 117.333,128 32,128 181.333,277.333"></polygon><rect x="32" y="320" width="298.667" height="42.667"></rect></g></symbol><symbol id="copy" xmlns="http://www.w3.org/2000/svg" x="0px" y="0px" viewBox="0 0 607.09767 479.34181"><g transform="translate(-48.650391,-8.9589844)"><g><g transform="translate(48.650391,8.9589844)"><path d="M 38.599609,76.441406 C 13.533802,75.614703 -3.7688995,101.00399 0,124.4068 0.13269517,231.16415 -0.265586,337.93492 0.19948291,444.68388 1.8908155,469.05641 27.133739,482.74108 49.52635,479.3418 c 73.33729,-0.13267 146.688,0.26557 220.01688,-0.1995 24.37275,-1.69221 38.0547,-26.93669 34.65599,-49.32881 -0.14438,-106.23672 0.28898,-212.48932 -0.21706,-318.7161 -1.77728,-24.312312 -26.91323,-38.062868 -49.30929,-34.655984 -72.02442,0 -144.04884,0 -216.073261,0 z M 221.39648,103.38867 c 16.17098,0.68614 32.58875,-1.1396 48.61596,0.96514 12.02282,8.21008 5.34727,24.7953 7.08717,37.22354 0,99.68774 0,199.37549 0,299.06323 -2.61771,17.19388 -22.87983,10.11702 -35.01405,11.59961 -67.86186,0 -135.72371,0 -203.58556,0 -17.193879,-2.6177 -10.117019,-22.87983 -11.599609,-35.01405 0,-100.72839 0,-201.45677 0,-302.18516 2.617711,-17.193875 22.879828,-10.11702 35.014053,-11.59961 53.159886,-0.0353 106.326016,0.0704 159.482036,-0.0527 z"></path><path d="M 38.599609,75.941406 C 13.276969,75.109858 -4.2939577,100.73366 -0.5,124.4068 -0.36556302,231.18087 -0.76908194,337.96855 -0.29787651,444.73411 1.4147238,469.34418 26.880785,483.26893 49.52635,479.8418 c 73.35401,-0.1344 146.72163,0.26905 220.06712,-0.20215 24.61028,-1.71346 38.53231,-27.18109 35.10575,-49.82616 -0.14625,-106.25401 0.29274,-212.52412 -0.2199,-318.76805 -1.79915,-24.549529 -27.15804,-38.538416 -49.80645,-35.104034 -72.02442,0 -144.04884,0 -216.073261,0 z m 0,1 c 76.956881,0.130973 153.927061,-0.262124 230.875621,0.19685 24.08051,1.718779 37.5629,26.707024 34.22399,48.831454 -0.13095,106.21966 0.26209,212.45256 -0.19684,318.66394 -1.67013,24.13503 -26.68995,37.57921 -48.82951,34.20815 C 181.3523,478.71086 108.0185,479.10389 34.706221,478.64494 10.570975,476.97394 -2.8704764,451.95256 0.5,429.81349 0.6309498,323.59318 0.23791482,217.35964 0.69684201,111.14762 2.2785299,92.20435 19.580109,76.566338 38.599609,76.941406 Z M 221.38867,102.88867 c -60.95816,0.12277 -121.926562,0.0178 -182.88867,0.0527 -17.651809,2.50217 -10.693068,23.12901 -12.099609,35.51405 0,100.72839 0,201.45677 0,302.18516 2.502153,17.65182 23.129009,10.69307 35.514053,12.09961 67.861856,0 135.723706,0 203.585556,0 17.65181,-2.50217 10.69307,-23.12901 12.09961,-35.51405 0,-100.72839 0,-201.45677 0,-302.18516 -2.50217,-17.65181 -23.12901,-10.69307 -35.51405,-12.09961 -6.89709,-0.0389 -13.80685,0.0753 -20.69689,-0.0527 z m 0.0137,1.00195 c 16.10122,0.66116 32.44991,-1.09509 48.41773,0.92319 11.64616,8.19423 5.03056,24.517 6.77954,36.76358 0,99.68774 0,199.37549 0,299.06323 -2.73663,16.72387 -22.62891,9.54389 -34.51405,11.09961 -67.86186,0 -135.72371,0 -203.58556,0 -16.723873,-2.73662 -9.543883,-22.62891 -11.099609,-34.51405 0,-100.72839 0,-201.45677 0,-302.18516 2.736636,-16.723869 22.628911,-9.54389 34.514053,-11.09961 53.162466,-0.0345 106.326116,0.0685 159.487896,-0.0508 z"></path></g><g><path d="m 459.79102,394.16406 c -0.10091,0.26042 -0.10091,0.26042 0,0 z"></path><path d="m 459.41602,393.83203 c -1.47144,2.63126 2.57714,0.6716 0,0 z"></path></g></g></g><g transform="translate(157.82492,-82.091682)"><g><path transform="translate(-157.82492,82.091682)" d="m 467.49805,2.796875 c -2.12629,0.023234 -4.24998,0.1923234 -6.34961,0.5117188 H 245.07422 c -25.06581,-0.826703 -42.36851,24.5620332 -38.59961,47.9648442 0.0118,9.451549 0.009,18.90354 0.008,28.355468 h 5.85938 11.06054 3.55469 0.86914 c 0.0263,0 0.0666,-0.01295 0.0996,-0.01953 0.033,-0.0066 0.0589,-0.0068 0.0586,0.01953 -3e-5,0.0013 1e-5,0.0026 0,0.0039 0.26446,2.46e-4 0.502,0.0031 0.75195,0.0039 1.32229,-0.03005 2.90378,-0.02858 4.63867,-0.02148 V 41.908203 c 2.61771,-17.19387 22.88139,-10.117019 35.01562,-11.599609 53.15988,-0.0353 106.32445,0.07034 159.48047,-0.05273 16.17098,0.68614 32.58998,-1.139896 48.61719,0.964844 12.02282,8.21008 5.34604,24.796369 7.08594,37.224609 V 367.50781 c -2.61771,17.19388 -22.87945,10.11702 -35.01367,11.59961 H 293.57422 c 0.009,2.0503 0.006,3.95284 -0.0234,5.44727 -0.0304,1.53561 1.24795,4.54861 -0.28711,4.59961 l -0.0586,0.002 c 0.0287,3.2055 0.0448,6.41155 0.041,9.61719 0.0747,0.4164 0.0191,0.84939 0,1.27734 -0.002,0.62443 0.003,1.24863 -0.002,1.87305 -2.08258,-0.0376 -4.16507,-0.0647 -6.24805,-0.0918 0.158,1.30635 0.60368,2.88067 0.95313,4.36524 62.69081,-0.007 125.38716,0.21004 188.06836,-0.1875 24.37275,-1.69221 38.05496,-26.93601 34.65625,-49.32813 -0.14438,-106.23672 0.28924,-212.49002 -0.2168,-318.716796 C 508.84609,15.931975 488.05217,2.5722755 467.49805,2.796875 Z"></path><path d="m 459.79102,394.16406 c -0.10091,0.26042 -0.10091,0.26042 0,0 z"></path></g></g></symbol><symbol id="edit" version="1.1" xmlns="http://www.w3.org/2000/svg" xmlns:xlink="http://www.w3.org/1999/xlink" x="0px" y="0px" viewBox="0 0 383.947 383.947" style="enable-background:new 0 0 383.947 383.947;" xml:space="preserve"><g><polygon points="0,303.947 0,383.947 80,383.947 316.053,147.893 236.053,67.893"></polygon><path d="M377.707,56.053L327.893,6.24c-8.32-8.32-21.867-8.32-30.187,0l-39.04,39.04l80,80l39.04-39.04
      C386.027,77.92,386.027,64.373,377.707,56.053z"></path></g></symbol><symbol id="expand" width="18" height="18" viewBox="0 0 18 18" xmlns="http://www.w3.org/2000/svg"><path fill-rule="evenodd" d="M17.5 1C17.5 0.723858 17.2761 0.5 17 0.5H12.5C12.2239 0.5 12 0.723858 12 1C12 1.27614 12.2239 1.5 12.5 1.5H16.5V5.5C16.5 5.77614 16.7239 6 17 6C17.2761 6 17.5 5.77614 17.5 5.5V1ZM11.3536 7.35355L17.3536 1.35355L16.6464 0.646447L10.6464 6.64645L11.3536 7.35355Z"></path><path fill-rule="evenodd" d="M0.5 17C0.5 17.2761 0.723857 17.5 1 17.5L5.5 17.5C5.77614 17.5 6 17.2761 6 17C6 16.7239 5.77614 16.5 5.5 16.5L1.5 16.5L1.5 12.5C1.5 12.2239 1.27614 12 1 12C0.723858 12 0.5 12.2239 0.5 12.5L0.5 17ZM6.64645 10.6464L0.646447 16.6464L1.35355 17.3536L7.35355 11.3536L6.64645 10.6464Z"></path></symbol><symbol id="dashboard" width="48" height="48" viewBox="0 0 48 48" xmlns="http://www.w3.org/2000/svg"><path fill-rule="evenodd" clip-rule="evenodd" d="M23.7096 17.116L16.1024 25.3204C15.879 25.5801 16.0436 26 16.3787 26H18.0533L18.0532 30.5801C18.0532 30.7901 18.2766 31 18.5 31H22V27.9724C22 25.674 26 25.3204 26 27.9724V31H29.612C29.8354 31 30 30.7901 30 30.5801V26H31.599C31.9282 26 32.1516 25.5801 31.8753 25.3204L31.5784 25.0003L24.268 17.116C24.1564 16.9613 23.88 16.9613 23.7096 17.116ZM23.9888 18.2856L17.7632 25H19.0533L19.0532 30H21V27.9724C21 26.0989 22.6331 25.1755 23.9558 25.117C24.6485 25.0864 25.4031 25.2661 26.0046 25.7534C26.6327 26.2625 27 27.0329 27 27.9724V30H29V25H30.2144L23.9888 18.2856Z"></path></symbol><symbol id="cross" width="18" height="18" viewBox="0 0 18 18" fill="none" xmlns="http://www.w3.org/2000/svg"><path d="M0.315325 15.7858C-0.0872071 16.164 -0.106984 16.7968 0.271152 17.1994C0.649288 17.6019 1.28214 17.6217 1.68468 17.2435L0.315325 15.7858ZM17.6847 2.21322C18.0872 1.83509 18.107 1.20223 17.7288 0.7997C17.3507 0.397168 16.7179 0.377391 16.3153 0.755527L17.6847 2.21322ZM1.68468 17.2435L17.6847 2.21322L16.3153 0.755527L0.315325 15.7858L1.68468 17.2435Z" fill="#BF0000"></path><path d="M2.21417 0.315324C1.83603 -0.0872077 1.20318 -0.106985 0.800647 0.271151C0.398115 0.649287 0.378338 1.28214 0.756474 1.68467L2.21417 0.315324ZM15.7868 17.6847C16.1649 18.0872 16.7978 18.107 17.2003 17.7288C17.6028 17.3507 17.6226 16.7179 17.2445 16.3153L15.7868 17.6847ZM0.756474 1.68467L15.7868 17.6847L17.2445 16.3153L2.21417 0.315324L0.756474 1.68467Z" fill="#BF0000"></path></symbol><symbol id="export" width="32" height="32" viewBox="0 0 32 32" fill="none" xmlns="http://www.w3.org/2000/svg"><path fill-rule="evenodd" clip-rule="evenodd" d="M12 8L18.3888 8L24 13.284V24H12V20H13V23H23V13.716L17.9921 9L13 9V16H12V8Z" fill="#717776"></path><path fill-rule="evenodd" clip-rule="evenodd" d="M15 20.7943L19.5 16.8971L15 13V15.3971C13.5 15.3971 10 17.0971 8 23.8971C9.33337 21.8971 12.6 17.9971 15 18.3971V20.7943Z" fill="#717776"></path></symbol><symbol id="export_chart" width="32" height="32" viewBox="0 0 32 32" fill="none" xmlns="http://www.w3.org/2000/svg"><rect x="0.5" y="0.5" width="31" height="31" rx="1.5" fill="white" stroke="#E7E7E7"></rect><line x1="8" y1="11" x2="24" y2="11" stroke="#717776" stroke-width="2"></line><line x1="8" y1="16" x2="24" y2="16" stroke="#717776" stroke-width="2"></line><line x1="8" y1="21" x2="24" y2="21" stroke="#717776" stroke-width="2"></line></symbol><symbol id="filter" xmlns="http://www.w3.org/2000/svg" viewbox="0 0 20 20"><path d="M16 7.5L4 7.5"></path><path d="M14 10.5L6 10.5"></path><path d="M11.5 13.5L8.5 13.5"></path></symbol><symbol id="external-link" xmlns="http://www.w3.org/2000/svg" viewBox="0 0 24 24" width="18px" height="18px"><path d="M 3 3 L 3 21 L 21 21 L 21 12 L 19 12 L 19 19 L 5 19 L 5 5 L 12 5 L 12 3 L 3 3 z M 14 3 L 14 5 L 17.585938 5 L 8.2929688 14.292969 L 9.7070312 15.707031 L 19 6.4140625 L 19 10 L 21 10 L 21 3 L 14 3 z"></path></symbol><symbol id="favorites" width="48" height="48" viewBox="0 0 48 48" xmlns="http://www.w3.org/2000/svg"><path fill-rule="evenodd" clip-rule="evenodd" d="M25.4695 20.9775L24 18L22.5306 20.9775L19.2448 21.4549L21.6224 23.7725L21.0611 27.0451L24 25.5L26.939 27.0451L26.3777 23.7725L28.7553 21.4549L25.4695 20.9775ZM26.6064 22.1532L25.3257 21.9671C25 21.9197 24.7184 21.7152 24.5728 21.42L24 20.2596L23.4273 21.42C23.2816 21.7152 23.0001 21.9197 22.6744 21.9671L21.3937 22.1532L22.3204 23.0565C22.5561 23.2862 22.6636 23.6172 22.608 23.9416L22.3892 25.2171L23.5347 24.6149C23.826 24.4617 24.1741 24.4617 24.4654 24.6149L25.6108 25.2171L25.3921 23.9416C25.3364 23.6172 25.444 23.2862 25.6797 23.0565L26.6064 22.1532Z"></path><path fill-rule="evenodd" clip-rule="evenodd" d="M24 27.2433L31 30.4433V17H17L17 30.4433L24 27.2433ZM24 28.3429L30.5842 31.3528C31.2465 31.6556 32 31.1715 32 30.4433V17C32 16.4477 31.5523 16 31 16H17C16.4477 16 16 16.4477 16 17V30.4433C16 31.1715 16.7535 31.6556 17.4158 31.3528L24 28.3429Z"></path></symbol><symbol id="help" width="24" height="24" viewBox="0 0 24 24" xmlns="http://www.w3.org/2000/svg"><path d="M 11.289193,18 H 13 V 16 H 11.347032 Z M 12,2 C 6.48,2 2,6.48 2,12 2,17.52 6.48,22 12,22 17.52,22 22,17.52 22,12 22,6.48 17.52,2 12,2 Z m 0.07212,18.829258 c -4.4100013,0 -8.8383062,-4.351661 -8.8383062,-8.761661 C 3.2338158,7.6575968 7.59,3.1902592 12,3.1902592 c 4.41,0 8.863056,4.3659424 8.863056,8.7759428 0,4.41 -4.380935,8.863056 -8.790934,8.863056 z M 12.067597,5.9662016 C 9.8575968,5.9662016 8,7.79 8,10 L 9.537291,9.942161 c 0,-1.1 1.396507,-2.371072 2.496507,-2.371072 1.1,0 2.395112,0.9721207 2.395112,2.0721207 C 14.42891,11.643211 11.347032,11.75 11.347032,15 H 13 c 0,-2.25 3,-2.5 3,-5 0,-2.21 -1.722403,-4.0337984 -3.932403,-4.0337984 z"></path></symbol><symbol id="info" viewBox="0 0 21 20" xmlns="http://www.w3.org/2000/svg"><path d="M12.6573 14.6991C12.6037 14.9221 12.5586 15.1197 12.505 15.3121C12.49 15.3512 12.4582 15.3836 12.4197 15.3989C11.8742 15.5862 11.3353 15.8144 10.7764 15.9404C10.2928 16.0494 9.78749 16.0051 9.33067 15.8127C8.72324 15.5624 8.34506 14.9426 8.39359 14.2785C8.42705 13.5002 8.69312 12.7799 8.88053 12.0392C9.03281 11.4398 9.19847 10.8302 9.32899 10.2206C9.35911 10.006 9.35744 9.78803 9.3223 9.57347C9.29887 9.34359 9.14827 9.21417 8.92739 9.1716C8.5559 9.09667 8.16936 9.13414 7.81795 9.27888C7.76273 9.30102 7.70082 9.30953 7.61548 9.33337C7.66568 9.1154 7.70584 8.92468 7.75939 8.73396C7.77947 8.68288 7.81963 8.64201 7.86983 8.62158C8.45885 8.39169 9.03448 8.14137 9.66534 8.06304C10.0602 8.01025 10.4602 8.05112 10.8367 8.18224C11.5261 8.42234 11.8909 9.05751 11.844 9.79825C11.7938 10.6275 11.4993 11.3921 11.3052 12.1822C11.1647 12.7578 11.0291 13.3351 10.8986 13.914C10.8802 14.0145 10.8735 14.1167 10.8802 14.2189C10.8902 14.6582 11.0659 14.8676 11.4926 14.8762C11.7905 14.8676 12.0884 14.8353 12.3812 14.7791C12.4766 14.7604 12.5686 14.7331 12.6573 14.6991Z"></path><path d="M11.3689 4C12.157 4.01533 12.7427 4.55002 12.8113 5.31971C12.8615 5.85781 12.5352 6.3874 11.9981 6.64623C11.2634 7.00043 10.3364 6.6854 9.99337 5.96509C9.55998 5.04215 10.2979 3.98127 11.3689 4Z"></path></symbol><symbol id="logo-without-icon" xmlns="http://www.w3.org/2000/svg" width="192" height="48" viewBox="0 0 144 36.000001" preserveAspectRatio="xMidYMid meet"><defs><clipPath clipPathUnits="userSpaceOnUse"><path d="M 0,0 H 213.868 V 213.868 H 0 Z"></path></clipPath><clipPath clipPathUnits="userSpaceOnUse"><path d="M 0,0 H 213.868 V 213.868 H 0 Z"></path></clipPath><clipPath clipPathUnits="userSpaceOnUse"><path d="M 0,0 H 213.868 V 213.868 H 0 Z"></path></clipPath><clipPath clipPathUnits="userSpaceOnUse"><path d="M 0,0 H 213.868 V 213.868 H 0 Z"></path></clipPath></defs><g transform="matrix(0.01384331,0,0,-0.01384331,13.894811,35.534941)" fill="#ffffff" stroke="none"><path d="M 2730,1285 V 960 h 45 45 v 112 113 l 113,-113 112,-112 h 65 65 l -128,128 -127,127 112,113 113,112 h -60 -60 l -102,-102 -103,-103 v 188 187 h -45 -45 z"></path><path d="m 4600,1505 c 0,-58 -2,-105 -5,-105 -3,0 -25,10 -48,22 -58,30 -156,30 -213,0 -168,-87 -179,-328 -20,-427 40,-24 62,-30 120,-33 61,-3 78,0 119,22 l 47,25 v -24 c 0,-23 4,-25 45,-25 h 45 v 325 325 h -45 -45 z m -90,-167 c 33,-17 51,-35 68,-68 27,-55 28,-82 1,-137 -51,-106 -207,-112 -269,-11 -44,73 -14,179 62,217 55,27 83,27 138,-1 z"></path><path d="m 3750,1500 v -60 h -35 c -35,0 -35,0 -35,-45 0,-45 0,-45 35,-45 h 35 v -150 -149 l 31,-35 c 34,-39 79,-56 152,-56 h 47 v 45 45 h -48 c -27,0 -57,7 -70,16 -21,14 -22,22 -22,150 v 134 h 70 70 v 45 45 h -70 -70 v 60 60 h -45 -45 z"></path><path d="m 5330,1500 v -60 h -35 c -35,0 -35,0 -35,-45 0,-45 0,-45 35,-45 h 35 v -150 -149 l 31,-35 c 34,-39 79,-56 152,-56 h 47 v 45 45 h -48 c -27,0 -57,7 -70,16 -21,14 -22,22 -22,150 v 134 h 70 70 v 45 45 h -70 -70 v 60 60 h -45 -45 z"></path><path d="m 1317,1435 c -22,-7 -50,-24 -64,-37 -47,-42 -53,-74 -53,-263 V 960 h 45 45 v 171 171 l 29,29 c 33,32 58,36 100,14 42,-21 51,-61 51,-231 V 960 h 45 45 v 174 174 l 31,26 c 35,30 58,32 98,11 42,-21 51,-61 51,-231 V 960 h 46 46 l -4,178 c -4,194 -9,216 -68,266 -63,52 -148,56 -217,9 -35,-24 -36,-24 -57,-5 -20,19 -85,42 -116,42 -8,-1 -32,-7 -53,-15 z"></path><path d="m 2032,1431 c -191,-67 -220,-329 -48,-435 66,-41 161,-48 231,-17 58,26 55,25 55,1 0,-17 7,-20 45,-20 h 45 v 138 c 0,157 -8,195 -53,254 -62,81 -177,114 -275,79 z m 167,-99 c 68,-50 88,-129 52,-201 -40,-78 -123,-107 -199,-69 -106,52 -125,176 -39,256 47,44 135,51 186,14 z"></path><path d="m 3310,1431 c -67,-24 -134,-92 -151,-154 -42,-158 59,-305 217,-315 87,-6 141,16 197,78 39,43 67,106 67,149 0,6 -20,11 -44,11 -39,0 -44,-3 -49,-27 -16,-76 -76,-125 -152,-125 -47,0 -113,28 -99,42 5,5 79,49 164,98 85,50 156,96 158,105 5,24 -61,100 -108,124 -65,33 -133,38 -200,14 z m 149,-91 c 24,-11 42,-22 40,-24 -6,-6 -250,-146 -255,-146 -2,0 -4,16 -4,35 0,79 72,153 150,154 14,0 45,-8 69,-19 z"></path><path d="m 4892,1431 c -191,-67 -220,-329 -48,-435 66,-41 161,-48 231,-17 58,26 55,25 55,1 0,-17 7,-20 45,-20 h 45 v 138 c 0,157 -8,195 -53,254 -62,81 -177,114 -275,79 z m 167,-99 c 68,-50 88,-129 52,-201 -40,-78 -123,-107 -199,-69 -106,52 -125,176 -39,256 47,44 135,51 186,14 z"></path><path d="m 5752,1431 c -191,-67 -220,-329 -48,-435 66,-41 161,-48 231,-17 58,26 55,25 55,1 0,-17 7,-20 45,-20 h 45 v 138 c 0,157 -8,195 -53,254 -62,81 -177,114 -275,79 z m 167,-99 c 68,-50 88,-129 52,-201 -40,-78 -123,-107 -199,-69 -106,52 -125,176 -39,256 47,44 135,51 186,14 z"></path><path d="m 2530,1429 c -32,-13 -78,-56 -96,-91 -10,-20 -14,-71 -14,-203 V 960 h 45 45 v 170 c 0,168 0,171 25,195 20,21 34,25 85,25 h 60 v 45 45 l -62,-1 c -35,0 -74,-5 -88,-10 z"></path><path d="m 2770,785 c 0,-20 5,-25 25,-25 20,0 25,5 25,25 0,20 -5,25 -25,25 -20,0 -25,-5 -25,-25 z"></path><path d="m 1360,685 c -126,-40 -196,-175 -159,-309 13,-48 82,-123 134,-147 53,-25 147,-24 200,0 54,25 111,86 130,140 22,63 20,81 -10,81 -19,0 -25,-5 -25,-22 0,-37 -42,-100 -86,-131 -48,-34 -115,-45 -167,-28 -38,13 -87,47 -87,61 0,4 83,57 185,116 l 184,108 -17,29 c -26,44 -81,86 -136,102 -60,18 -87,18 -146,0 z m 145,-54 c 39,-18 83,-57 74,-66 -3,-2 -77,-45 -164,-94 l -160,-90 -8,27 c -4,15 -5,44 -2,65 20,135 145,211 260,158 z"></path><path d="m 1880,685 c -53,-17 -116,-74 -141,-130 -15,-33 -19,-66 -19,-192 V 210 h 25 25 v 145 c 0,157 9,193 62,242 26,25 88,53 115,53 68,0 141,-47 173,-111 17,-33 20,-59 20,-184 V 210 h 25 25 v 143 c 0,180 -8,208 -75,273 -42,41 -63,54 -104,63 -64,14 -74,13 -131,-4 z"></path><path d="m 2390,685 c -206,-66 -229,-354 -37,-450 88,-43 191,-33 263,28 18,15 35,27 38,27 14,0 4,-97 -14,-135 -29,-61 -61,-75 -169,-75 -90,0 -91,0 -91,-25 0,-25 0,-25 96,-25 113,0 156,18 201,83 27,39 28,45 31,198 4,180 -7,240 -58,301 -57,69 -171,102 -260,73 z m 174,-69 c 98,-58 121,-188 49,-284 -59,-79 -185,-96 -260,-35 -52,42 -83,98 -83,153 1,154 160,244 294,166 z"></path><path d="m 3050,685 c -53,-17 -116,-74 -141,-130 -15,-33 -19,-66 -19,-192 V 210 h 25 25 v 145 c 0,157 9,193 62,242 26,25 88,53 115,53 68,0 141,-47 173,-111 17,-33 20,-59 20,-184 V 210 h 25 25 v 143 c 0,180 -8,208 -75,273 -42,41 -63,54 -104,63 -64,14 -74,13 -131,-4 z"></path><path d="m 3570,685 c -126,-40 -196,-175 -159,-309 13,-48 82,-123 134,-147 53,-25 147,-24 200,0 54,25 111,86 130,140 22,63 20,81 -10,81 -19,0 -25,-5 -25,-22 0,-37 -42,-100 -86,-131 -48,-34 -115,-45 -167,-28 -38,13 -87,47 -87,61 0,4 83,57 185,116 l 184,108 -17,29 c -26,44 -81,86 -136,102 -60,18 -87,18 -146,0 z m 145,-54 c 39,-18 83,-57 74,-66 -3,-2 -77,-45 -164,-94 l -160,-90 -8,27 c -4,15 -5,44 -2,65 20,135 145,211 260,158 z"></path><path d="M 2770,450 V 210 h 25 25 v 240 240 h -25 -25 z"></path></g></symbol><symbol id="logo-icon" xmlns="http://www.w3.org/2000/svg" preserveAspectRatio="xMidYMid meet" viewBox="0 0 17.25 17.25" height="23" width="23"><defs><clipPath clipPathUnits="userSpaceOnUse"><path d="M 0,0 H 213.868 V 213.868 H 0 Z"></path></clipPath><clipPath clipPathUnits="userSpaceOnUse"><path d="M 0,0 H 213.868 V 213.868 H 0 Z"></path></clipPath></defs><g transform="matrix(0.08095798,0,0,-0.07995735,-0.0148514,17.193865)"><g><g clip-path="url(#clipPath18)"><g transform="translate(106.9282,1.2746)"><path style="fill:#fab900;fill-opacity:1;fill-rule:nonzero;stroke:none" d="m 0,0 c -58.259,0 -105.652,47.397 -105.652,105.652 0,58.27 47.393,105.667 105.652,105.667 58.259,0 105.663,-47.397 105.663,-105.667 C 105.663,47.397 58.259,0 0,0"></path></g><g transform="translate(106.9282,1.2746)"><path style="fill:none;stroke:#fab900;stroke-width:0.692;stroke-linecap:butt;stroke-linejoin:miter;stroke-miterlimit:10;stroke-dasharray:none;stroke-opacity:1" d="m 0,0 c -58.259,0 -105.652,47.397 -105.652,105.652 0,58.27 47.393,105.667 105.652,105.667 58.259,0 105.663,-47.397 105.663,-105.667 C 105.663,47.397 58.259,0 0,0 Z"></path></g><g transform="translate(106.9296,33.1134)"><path style="fill:#3b3b3b;fill-opacity:1;fill-rule:nonzero;stroke:none" d="m 0,0 c -40.702,0 -73.816,33.115 -73.816,73.816 0,40.709 33.114,73.824 73.816,73.824 40.702,0 73.823,-33.115 73.823,-73.824 C 73.823,33.115 40.702,0 0,0"></path></g><g transform="translate(106.9316,176.466)"><path style="fill:#fab900;fill-opacity:1;fill-rule:nonzero;stroke:none" d="m 0,0 c -38.256,0 -69.382,-31.192 -69.382,-69.533 0,-38.341 31.126,-69.532 69.382,-69.532 38.259,0 69.385,31.191 69.385,69.532 C 69.385,-31.192 38.259,0 0,0 m -58.38,-73.455 h 22.315 c 0.276,-8.677 1.466,-16.843 3.411,-24.202 h -18.692 c -3.981,7.271 -6.456,15.48 -7.034,24.202 m 62.295,39.891 v 20.22 c 7.049,-2.059 13.358,-9.547 17.789,-20.22 z m 20.533,-7.845 c 2.125,-7.266 3.466,-15.498 3.779,-24.201 H 3.915 v 24.201 z m -28.363,28.065 v -20.22 h -17.79 c 4.435,10.673 10.74,18.161 17.79,20.22 m 0,-28.065 V -65.61 h -24.309 c 0.313,8.703 1.654,16.935 3.779,24.201 z M -36.065,-65.61 H -58.38 c 0.578,8.721 3.053,16.927 7.034,24.201 h 18.692 c -1.945,-7.362 -3.135,-15.528 -3.411,-24.201 m 7.841,-7.845 h 24.309 v -24.202 h -20.53 c -2.125,7.263 -3.466,15.495 -3.779,24.202 m 24.309,-32.05 v -20.217 c -7.05,2.059 -13.355,9.547 -17.786,20.217 z m 7.83,-20.217 v 20.217 h 17.789 c -4.434,-10.674 -10.74,-18.162 -17.789,-20.217 m 0,28.065 v 24.202 h 24.312 c -0.313,-8.707 -1.654,-16.939 -3.779,-24.202 z m 32.153,24.202 h 22.316 c -0.575,-8.722 -3.053,-16.931 -7.035,-24.202 H 32.658 c 1.944,7.359 3.134,15.525 3.41,24.202 m 0,7.845 c -0.276,8.673 -1.466,16.839 -3.41,24.201 h 18.691 c 3.982,-7.274 6.46,-15.48 7.035,-24.201 z m 10.114,32.046 H 30.19 c -2.95,7.996 -6.873,14.695 -11.491,19.598 10.979,-3.72 20.503,-10.615 27.483,-19.598 m -64.877,19.601 c -4.619,-4.906 -8.541,-11.605 -11.492,-19.601 h -15.991 c 6.979,8.983 16.503,15.881 27.483,19.601 m -27.483,-91.542 h 15.995 c 2.947,-7.996 6.869,-14.692 11.488,-19.598 -10.98,3.724 -20.5,10.619 -27.483,19.598 m 64.877,-19.594 c 4.618,4.902 8.541,11.601 11.487,19.594 h 15.996 c -6.983,-8.979 -16.504,-15.874 -27.483,-19.594"></path></g></g></g><g transform="translate(158.3232,45.2448)"><path style="fill:#3b3b3b;fill-opacity:1;fill-rule:nonzero;stroke:none" d="M 0,0 14.36,-14.611 24.739,-4.413 10.379,10.198 Z"></path></g><g><g clip-path="url(#clipPath46)"><g transform="translate(106.9301,37.3332)"><path style="fill:none;stroke:#3b3b3b;stroke-width:3;stroke-linecap:butt;stroke-linejoin:miter;stroke-miterlimit:10;stroke-dasharray:none;stroke-opacity:1" d="m 0,0 c -38.377,0 -69.595,31.221 -69.595,69.595 0,38.385 31.218,69.606 69.595,69.606 38.377,0 69.603,-31.221 69.603,-69.606 C 69.603,31.221 38.377,0 0,0 Z"></path></g></g></g></g></symbol><symbol id="minus-2" xmlns="http://www.w3.org/2000/svg" viewBox="0 0 20 20"><path d="M13.54 9.5L13.54 10.38L6.5 10.38L6.5 9.5L13.54 9.5Z"></path></symbol><symbol id="logo-icon2" width="23" height="23" viewBox="0 0 23 23" xmlns="http://www.w3.org/2000/svg"><path d="M11.5 0C5.14193 0 0 5.14193 0 11.5C0 17.8581 5.14193 23 11.5 23C17.8581 23 23 17.8581 23 11.5C23 5.14193 17.8367 0 11.5 0ZM9.89981 4.69388C9.49443 5.22727 9.11039 5.80334 8.81169 6.42208C8.61967 6.80612 8.44898 7.2115 8.27829 7.61688C8.00093 7.53154 7.7449 7.42486 7.48887 7.31818C7.10482 7.14749 6.74211 6.97681 6.37941 6.76345C7.29684 5.76067 8.51299 5.03525 9.89981 4.69388ZM5.82467 7.40352C6.29406 7.68089 6.76345 7.91558 7.27551 8.12894C7.5102 8.23562 7.76623 8.32096 8.02226 8.40631C7.91558 8.76902 7.83024 9.15306 7.76623 9.51577C7.68089 10.0278 7.61688 10.5399 7.59555 11.0733H4.52319C4.60853 9.70779 5.07792 8.44898 5.82467 7.40352ZM4.52319 11.9054H7.57421C7.59555 12.3108 7.61688 12.7161 7.68089 13.1215C7.7449 13.6122 7.85158 14.103 8.00093 14.5937C7.57421 14.7217 7.16883 14.8924 6.76345 15.0844C6.44341 15.2338 6.12338 15.4045 5.82467 15.5751C5.07792 14.5297 4.60853 13.2709 4.52319 11.9054ZM6.37941 16.2152C6.65677 16.0445 6.95547 15.8952 7.25417 15.7672C7.59555 15.6178 7.93692 15.4898 8.27829 15.3618C8.40631 15.7032 8.55566 16.0445 8.70501 16.3646C9.02505 17.026 9.43043 17.666 9.87848 18.2634C8.51299 17.9647 7.29684 17.218 6.37941 16.2152ZM11.0733 18.3915C10.3905 17.6447 9.83581 16.8126 9.40909 15.8952C9.28107 15.6391 9.1744 15.4045 9.08905 15.1271C9.36642 15.0631 9.64378 14.9991 9.92115 14.9564C10.2412 14.9137 10.5612 14.8711 10.9026 14.8497C10.9666 14.8497 11.0306 14.8497 11.0733 14.8497V18.3915ZM11.0733 14.039C10.9453 14.039 10.8173 14.039 10.7106 14.0603C10.3692 14.0816 10.0065 14.1243 9.66512 14.1883C9.38775 14.231 9.11039 14.295 8.83302 14.359C8.68367 13.8683 8.59833 13.3776 8.51299 12.8868C8.47032 12.5668 8.44898 12.2468 8.42764 11.9267H11.0733V14.039ZM11.0733 11.0733H8.42764C8.44898 10.5399 8.51299 10.0065 8.61967 9.4731C8.68367 9.19573 8.74768 8.89703 8.83302 8.61967C9.02505 8.66234 9.21707 8.70501 9.38775 8.74768C9.94248 8.85436 10.5186 8.91837 11.0733 8.9397V11.0733ZM11.0733 8.10761C10.5399 8.08627 10.0065 8.02226 9.4731 7.91558C9.34508 7.89425 9.21707 7.85158 9.08905 7.83024C9.2384 7.4462 9.40909 7.06215 9.60111 6.67811C10.0065 5.91002 10.4972 5.20594 11.0733 4.56586V8.10761ZM16.6206 6.76345C16.2365 6.99814 15.8098 7.19017 15.4045 7.36085C15.1698 7.4462 14.9564 7.53154 14.7217 7.61688C14.5724 7.2115 14.4017 6.80612 14.1883 6.42208C13.8683 5.82468 13.5056 5.24861 13.1002 4.69388C14.4657 5.03525 15.6818 5.76067 16.6206 6.76345ZM11.9054 4.5872C12.5455 5.29128 13.0788 6.05937 13.4842 6.9128C13.6336 7.2115 13.7616 7.53154 13.8896 7.83024C13.7189 7.87291 13.5482 7.91558 13.3776 7.93692C12.8868 8.02226 12.3961 8.08627 11.9054 8.10761V4.5872ZM11.9054 8.9397C12.5028 8.91837 13.0788 8.85436 13.6549 8.72635C13.8256 8.68367 13.9963 8.66234 14.1456 8.61967C14.2523 8.96104 14.3163 9.30241 14.3803 9.66512C14.4657 10.1345 14.5083 10.6039 14.5297 11.0733H11.9054V8.9397ZM11.9054 11.9054H14.551C14.5297 12.2681 14.5083 12.6308 14.4443 12.9935C14.3803 13.4416 14.2737 13.9109 14.1456 14.3377C13.8256 14.2523 13.5056 14.1883 13.1642 14.1456C12.8228 14.103 12.4601 14.0603 12.1187 14.039C12.0334 14.039 11.9694 14.039 11.884 14.039V11.9054H11.9054ZM11.9054 14.8711C12.0121 14.8711 12.1187 14.8711 12.2254 14.8924C12.5455 14.9137 12.8655 14.9564 13.1855 14.9991C13.4202 15.0417 13.6549 15.0844 13.8896 15.1484C13.7829 15.4471 13.6549 15.7245 13.5056 16.0232C13.0788 16.898 12.5455 17.6874 11.884 18.4128V14.8711H11.9054ZM13.1002 18.2848C13.5909 17.666 13.9963 16.9833 14.3377 16.2579C14.4657 15.9592 14.5937 15.6818 14.7217 15.3618C15.1058 15.4898 15.4898 15.6391 15.8738 15.8098C16.1299 15.9378 16.3859 16.0659 16.6419 16.2152C15.6818 17.218 14.4657 17.9647 13.1002 18.2848ZM17.154 15.5751C16.8126 15.3618 16.4499 15.1911 16.0872 15.0204C15.7245 14.8497 15.3618 14.7217 14.9777 14.5937C15.1271 14.0603 15.2338 13.5269 15.3191 12.9935C15.3618 12.6308 15.4045 12.2894 15.4045 11.9267H18.4555C18.3701 13.2709 17.9007 14.5297 17.154 15.5751ZM15.3831 11.0733C15.3618 10.4972 15.2978 9.94248 15.1911 9.38775C15.1271 9.06772 15.0417 8.72635 14.9564 8.40631C15.2551 8.32096 15.5325 8.19295 15.8098 8.08627C16.2579 7.89425 16.7059 7.68089 17.1327 7.42486C17.8794 8.47031 18.3488 9.72913 18.4341 11.0946H15.3831V11.0733Z"></path></symbol><symbol id="minus" width="12" height="11" viewBox="0 0 12 11" fill="none" xmlns="http://www.w3.org/2000/svg"><line y1="5" x2="12" y2="5" stroke-width="2"></line></symbol><symbol id="my-zone" width="48" height="48" viewBox="0 0 48 48" xmlns="http://www.w3.org/2000/svg"><path fill-rule="evenodd" clip-rule="evenodd" d="M25.1436 26.3572C24.4473 25.8077 24.0004 24.9563 24.0004 24.0005C24.0004 22.3433 25.3438 21 27.0009 21C28.658 21 30.0013 22.3433 30.0013 24.0005C30.0013 24.9562 29.5544 25.8076 28.8582 26.3571C30.6747 27.0841 31.9653 28.846 32.001 30.9136C30.4788 31.6121 28.7854 32.0015 27.001 32.0015C25.2166 32.0015 23.5231 31.6121 22.001 30.9136C22.0367 28.846 23.3272 27.0842 25.1436 26.3572ZM26.9933 26.0009C26.9958 26.0009 26.9984 26.0009 27.001 26.0009C27.0035 26.0009 27.006 26.0009 27.0085 26.0009C28.1098 25.9968 29.0013 25.1027 29.0013 24.0005C29.0013 22.8956 28.1057 22 27.0009 22C25.896 22 25.0004 22.8956 25.0004 24.0005C25.0004 25.1027 25.8919 25.9968 26.9933 26.0009ZM26.9925 27.0009C25.0342 27.0049 23.406 28.4162 23.0656 30.2771C24.2865 30.7449 25.6128 31.0015 27.001 31.0015C28.3891 31.0015 29.7154 30.7449 30.9363 30.2771C30.596 28.4162 28.9677 27.0049 27.0093 27.0009C27.0065 27.0009 27.0037 27.0009 27.0009 27.0009C26.9981 27.0009 26.9953 27.0009 26.9925 27.0009Z"></path><path fill-rule="evenodd" clip-rule="evenodd" d="M16 16.5C16 16.2239 16.2239 16 16.5 16H22.7324C22.8996 16 23.0557 16.0836 23.1484 16.2226L24.3333 18H31.5C31.7761 18 32 18.2239 32 18.5V26.5C32 26.7761 31.7761 27 31.5 27C31.2239 27 31 26.7761 31 26.5V19H17V29H20.5C20.7761 29 21 29.2239 21 29.5C21 29.7761 20.7761 30 20.5 30H16.5C16.2239 30 16 29.7761 16 29.5V16.5ZM17 18V17H22.4648L23.1315 18H17Z"></path></symbol><symbol id="my_sharing" width="14" height="15" viewBox="0 0 14 15" fill="none" xmlns="http://www.w3.org/2000/svg"><g clip-path="url(#clip0)"><path d="M14.0001 10.7739C14.0001 8.53987 12.3618 6.70299 10.2271 6.35547C9.78028 6.80228 9.23418 7.0505 8.63844 7.0505C8.43985 7.0505 8.24127 7.00086 8.09234 6.95121C7.99305 7.64625 7.74482 8.34128 7.34766 8.83774C8.88666 9.13561 10.1278 10.1782 10.7732 11.5186H14.0001V10.7739Z" fill="#BCBCBC"></path><path d="M8.09224 6.20567C8.09224 6.30496 8.09224 6.40425 8.09224 6.4539C8.24118 6.50355 8.43976 6.55319 8.58869 6.55319C8.88657 6.55319 9.18444 6.4539 9.43267 6.30496C10.227 5.80851 10.8227 4.66667 10.8227 3.2766C10.8227 1.48936 9.82983 0 8.58869 0C7.4965 0 6.60288 1.14184 6.4043 2.68085C7.3972 3.22695 8.09224 4.56738 8.09224 6.20567Z" fill="#BCBCBC"></path><path d="M10.773 13.6517V14.3964H0V13.6517C0 11.5169 1.48936 9.77934 3.47518 9.28288C3.57447 9.28288 3.67376 9.23324 3.82269 9.23324L3.87234 9.28288C3.92199 9.38218 3.97163 9.38218 4.02128 9.43182C4.07092 9.48147 4.17021 9.53111 4.21986 9.58076L4.2695 9.6304C4.36879 9.68005 4.41844 9.72969 4.51773 9.77934C4.61702 9.82898 4.76596 9.87863 4.91489 9.87863H4.96454C5.11347 9.87863 5.21277 9.92827 5.3617 9.92827C5.51064 9.92827 5.60993 9.92827 5.75887 9.87863C5.80851 9.87863 5.80851 9.87863 5.85816 9.87863C5.95745 9.82898 6.10638 9.82898 6.20567 9.77934C6.25532 9.77934 6.25532 9.72969 6.30496 9.72969C6.35461 9.68005 6.4539 9.68005 6.50355 9.6304L6.55319 9.58076C6.65248 9.53111 6.70213 9.48147 6.80142 9.38218C6.85106 9.38218 6.85106 9.33253 6.90071 9.28288C6.95035 9.23324 6.95035 9.23324 7 9.18359C8.39007 9.38218 9.58156 10.2261 10.2269 11.4176C10.5745 12.1623 10.773 12.907 10.773 13.6517Z" fill="#717776"></path><path d="M7.64545 6.20515C7.64545 6.40373 7.64545 6.60231 7.59581 6.75125C7.49652 7.69451 7.09935 8.48883 6.55325 8.98529L6.50361 9.03493C6.45396 9.08458 6.35467 9.13422 6.30503 9.18387C6.25538 9.23352 6.15609 9.28316 6.10645 9.28316C6.10645 9.28316 6.0568 9.28316 6.0568 9.33281C5.95751 9.38245 5.90786 9.38245 5.80857 9.4321H5.75893C5.56035 9.4321 5.46106 9.4321 5.41141 9.4321C5.31212 9.4321 5.21283 9.4321 5.11354 9.38245H5.06389C4.9646 9.38245 4.86531 9.33281 4.76602 9.28316C4.66673 9.23352 4.61708 9.18387 4.51779 9.13422C4.46815 9.08458 4.4185 9.03493 4.36886 9.03493C4.31921 8.98529 4.26957 8.98529 4.26957 8.93564C4.12063 8.83635 4.02134 8.68742 3.8724 8.48883C3.47524 7.89309 3.17737 7.04912 3.17737 6.1555C3.17737 4.36827 4.17028 2.87891 5.41141 2.87891C5.75893 2.87891 6.10645 2.9782 6.40432 3.22642C7.09935 3.77252 7.64545 4.91437 7.64545 6.20515Z" fill="#717776"></path></g><defs></defs></symbol><symbol id="notification-centre" width="36" height="36" viewBox="0 0 36 36" xmlns="http://www.w3.org/2000/svg"><path fill-rule="evenodd" clip-rule="evenodd" d="M11.6242 15.6403C11.6242 12.4924 14.2549 10 17.4292 10C20.5847 10 23.2967 12.4791 23.2356 15.6595L23.2356 15.6596C23.1913 17.9637 23.7124 19.3683 24.1815 20.1663C24.4183 20.5692 24.6494 20.8305 24.8064 20.9824C24.8852 21.0586 24.9459 21.1078 24.98 21.1337C24.997 21.1467 25.0074 21.1539 25.0101 21.1557C25.0114 21.1566 25.0108 21.1562 25.0081 21.1544L25.0025 21.1509L24.9985 21.1484L24.9962 21.147L24.995 21.1463C24.9949 21.1462 24.9948 21.1461 24.9926 21.1496L24.4743 23H10.4743L10 21.1196C10.8173 20.6793 11.2994 19.5409 11.5143 18.1536C11.6145 17.5067 11.643 16.8917 11.6458 16.4354C11.6472 16.2085 11.6422 16.0242 11.637 15.8987C11.6344 15.8361 11.6318 15.7884 11.6299 15.7576L11.6277 15.7245L11.6273 15.7186L11.6273 15.7182C11.6273 15.7182 11.6273 15.7182 11.6273 15.7182L11.6242 15.6403ZM13.6244 15.6085L13.6262 15.6358C13.6288 15.6788 13.6321 15.7396 13.6353 15.8161C13.6416 15.9689 13.6473 16.1851 13.6457 16.4475C13.6426 16.9696 13.6102 17.6878 13.4907 18.4597C13.3721 19.2252 13.1509 20.1555 12.7147 21H22.3551C21.7242 19.8505 21.1878 18.124 21.236 15.6211L22.2358 15.6403L21.236 15.6211C21.2733 13.6752 19.5838 12 17.4292 12C15.3049 12 13.6422 13.6441 13.6244 15.6085Z"></path><path fill-rule="evenodd" clip-rule="evenodd" d="M19.5776 24.0254C19.5776 25.1157 18.5739 25.9998 17.3362 25.9998C16.0984 25.9998 15.0947 25.1157 15.0947 24.0254H19.5776Z"></path></symbol><symbol id="open-legend" width="32" height="32" viewBox="0 0 32 32" fill="none" xmlns="http://www.w3.org/2000/svg"><rect x="0.5" y="0.5" width="31" height="31" rx="1.5" fill="white" stroke="#E7E7E7"></rect><line x1="8" y1="16" x2="24" y2="16" stroke="#717776" stroke-width="2"></line><rect x="13" y="13" width="6" height="6" fill="white" stroke="#717776" stroke-width="2"></rect></symbol><symbol id="parts-potentials" xmlns="http://www.w3.org/2000/svg" viewBox="0 0 569 553"><g><g transform="scale(0.1)"><path style="fill:none;stroke:#ffffff;stroke-width:140;" d="M 3105.53,4175.73 V 3021.58 l 1043.2,305.77 c -159.01,477.1 -562.7,807.34 -1043.2,848.38 z"></path><path style="fill:none;stroke:#ffffff;stroke-width:140;" d="m 3659.87,1844.35 -1081.77,679.6 -19.13,1338.71 C 1351.69,3717.55 1131.2,2540.62 1516.16,1963.18 1899.93,1387.54 2950.41,1085.95 3659.87,1844.35 Z"></path><path style="fill:#ffffff;stroke:none" d="M 4344.42,2984.87 3060.05,2703.53 4234.35,2043 c 165.36,244.67 207.94,623.85 110.07,941.87"></path></g></g></symbol><symbol id="open-modal" width="16" height="16" viewBox="0 0 16 16" xmlns="http://www.w3.org/2000/svg"><path d="M14.2222 14.2222H1.77778V1.77778H8V0H1.77778C0.791111 0 0 0.8 0 1.77778V14.2222C0 15.2 0.791111 16 1.77778 16H14.2222C15.2 16 16 15.2 16 14.2222V8H14.2222V14.2222ZM9.77778 0V1.77778H12.9689L4.23111 10.5156L5.48444 11.7689L14.2222 3.03111V6.22222H16V0H9.77778Z"></path></symbol><symbol id="open-legend2" xmlns="http://www.w3.org/2000/svg" width="16" height="16" viewBox="0 0 16 16" fill="none"><line x1="2" y1="8" x2="14" y2="8" stroke-width="2"></line><rect x="5" y="5" width="6" height="6" fill="white" stroke-width="2"></rect></symbol><symbol id="parts-potentials2" xmlns="http://www.w3.org/2000/svg" viewBox="0 0 569 553"><g><g transform="scale(0.1)"><path style="fill:#f8b117;" d="M 5470,2769.87 C 5470,1303.56 4281.32,114.871 2815,114.871 1348.68,114.871 160,1303.56 160,2769.87 c 0,1466.32 1188.68,2655.01 2655,2655.01 1466.32,0 2655,-1188.69 2655,-2655.01"></path><path style="fill:none;stroke:#ffffff;stroke-width:140;" d="M 3105.53,4175.73 V 3021.58 l 1043.2,305.77 c -159.01,477.1 -562.7,807.34 -1043.2,848.38 z"></path><path style="fill:none;stroke:#ffffff;stroke-width:140;" d="m 3659.87,1844.35 -1081.77,679.6 -19.13,1338.71 C 1351.69,3717.55 1131.2,2540.62 1516.16,1963.18 1899.93,1387.54 2950.41,1085.95 3659.87,1844.35 Z"></path><path style="fill:#ffffff;" d="M 4344.42,2984.87 3060.05,2703.53 4234.35,2043 c 165.36,244.67 207.94,623.85 110.07,941.87"></path></g></g></symbol><symbol id="partview" width="48" height="48" viewBox="0 0 48 48" xmlns="http://www.w3.org/2000/svg"><path fill-rule="evenodd" clip-rule="evenodd" d="M19.5 20C19.2239 20 19 20.2239 19 20.5V24.5C19 24.7761 19.2239 25 19.5 25H25.5C25.7761 25 26 24.7761 26 24.5V20.5C26 20.2239 25.7761 20 25.5 20H19.5ZM21 21H20V24H25V21H24V21.5C24 21.7761 23.7761 22 23.5 22H21.5C21.2239 22 21 21.7761 21 21.5V21Z"></path><path fill-rule="evenodd" clip-rule="evenodd" d="M26.7291 27.4362C25.5923 28.411 24.1149 29 22.5 29C18.9101 29 16 26.0899 16 22.5C16 18.9101 18.9101 16 22.5 16C26.0899 16 29 18.9101 29 22.5C29 24.1149 28.411 25.5923 27.4362 26.7291L31.8536 31.1464C32.0488 31.3417 32.0488 31.6583 31.8536 31.8536C31.6583 32.0488 31.3417 32.0488 31.1464 31.8536L26.7291 27.4362ZM28 22.5C28 25.5376 25.5376 28 22.5 28C19.4624 28 17 25.5376 17 22.5C17 19.4624 19.4624 17 22.5 17C25.5376 17 28 19.4624 28 22.5Z"></path></symbol><symbol id="pdf" width="19" height="24" viewBox="0 0 19 24" fill="none" xmlns="http://www.w3.org/2000/svg"><path d="M11.582 7.45838C11.1241 7.45838 10.774 7.1121 10.774 6.65927V0H0.996594C0.43096 0 0 0.426193 0 0.985572V23.0144C0 23.5472 0.43096 24 0.996594 24H17.3192C17.8579 24 18.3158 23.5472 18.3158 23.0144V7.45838H11.582ZM13.4406 16.8879C13.3059 16.9678 13.0635 17.0211 12.7941 17.0211C12.2015 17.0211 11.3396 16.8879 10.5854 16.515C9.34644 16.6482 8.37678 16.808 7.64954 17.101C7.56873 17.101 7.56873 17.101 7.51486 17.1809C6.62601 18.7259 5.89876 19.4451 5.30619 19.4451C5.17152 19.4451 5.09071 19.4451 5.00991 19.3652L4.63282 19.1521V19.0721C4.57895 18.939 4.57895 18.859 4.57895 18.7259C4.65975 18.3529 5.09071 17.7137 5.97957 17.1809C6.11424 17.101 6.35666 16.9678 6.62601 16.808C6.84149 16.4351 7.05697 16.0089 7.35325 15.5028C7.73034 14.7836 7.94582 14.0377 8.1613 13.3718C7.86502 12.4928 7.73034 11.9867 8.02662 10.9745C8.10743 10.6815 8.32291 10.3885 8.61919 10.3885H8.75387C8.88855 10.3885 9.05015 10.4684 9.18483 10.5216C9.69659 11.0277 9.48111 12.1998 9.18483 13.1587V13.2386C9.48111 14.0377 9.91207 14.7037 10.37 15.1299C10.5854 15.263 10.7471 15.4229 11.0164 15.5561C11.3935 15.5561 11.6628 15.4761 11.9591 15.4761C12.848 15.4761 13.4136 15.6093 13.656 15.9822C13.7368 16.1154 13.7368 16.2752 13.7368 16.4084C13.656 16.515 13.6022 16.7547 13.4406 16.8879ZM8.67307 14.0377C8.53839 14.5438 8.24211 15.1299 7.94582 15.7958C7.81115 16.0888 7.64954 16.3019 7.51486 16.5949H7.59567H7.67647C8.61919 16.222 9.50805 16.0089 10.1006 15.929C9.96594 15.8491 9.88514 15.7958 9.80433 15.7159C9.42725 15.2897 8.96935 14.7037 8.67307 14.0377ZM13.1443 16.3019C13.0635 16.222 12.7672 16.0089 11.7437 16.0089H11.609C11.609 16.0089 11.609 16.0089 11.609 16.0888C12.1207 16.3019 12.6325 16.4617 13.0096 16.4617H13.1443H13.2251C13.2251 16.4617 13.2251 16.4617 13.2251 16.3818C13.2251 16.3818 13.1443 16.3818 13.1443 16.3019ZM6.41053 17.394C6.27585 17.4739 6.11424 17.5272 6.03344 17.6071C5.52167 18.0333 5.14458 18.566 5.09071 18.7791C5.52167 18.7259 5.97957 18.273 6.41053 17.394ZM8.61919 12.3596C8.7 12.0666 8.75387 11.9334 8.75387 11.6937V11.5605C8.83467 11.1876 8.83467 10.8946 8.75387 10.8413C8.75387 10.8413 8.75387 10.8413 8.75387 10.7614L8.67307 10.6815C8.67307 10.6815 8.67307 10.7614 8.59226 10.7614C8.45759 11.1876 8.45759 11.6937 8.61919 12.3596ZM18.3158 6.3929H12.3901C12.0938 6.3929 11.8514 6.15316 11.8514 5.86016V0L18.3158 6.3929Z" fill="#BCBCBC"></path></symbol><symbol id="pin" xmlns="http://www.w3.org/2000/svg" viewBox="0 0 20 20"><path d="M15.86 14.03C16.09 14.03 16.3 13.92 16.43 13.73C16.56 13.53 16.58 13.29 16.49 13.08C15.46 10.69 14.02 9.54 13.35 9.11C13.31 8.55 12.95 4.03 12.91 3.47C13.99 2.5 14.14 1.25 14.15 1.19C14.17 1 14.11 0.81 13.98 0.66C13.85 0.52 13.67 0.44 13.47 0.44C12.81 0.44 7.5 0.45 6.83 0.45C6.64 0.45 6.45 0.53 6.32 0.68C6.19 0.82 6.13 1.02 6.15 1.21C6.27 2.28 6.96 3.07 7.37 3.45C7.32 4.02 6.94 8.57 6.9 9.14C6.25 9.6 4.78 10.83 3.8 13.1C3.7 13.31 3.73 13.55 3.85 13.75C3.88 13.79 3.91 13.82 3.94 13.85C4.07 13.98 4.24 14.05 4.42 14.05C4.76 14.05 6.43 14.05 9.44 14.04C9.44 17.06 9.44 18.73 9.44 19.07C9.43 19.25 9.51 19.43 9.63 19.55C9.76 19.67 9.93 19.75 10.12 19.75C10.5 19.75 10.8 19.44 10.8 19.06C10.8 18.73 10.81 17.05 10.81 14.04C13.84 14.04 15.52 14.03 15.86 14.03Z"></path></symbol><symbol id="portfolio-monitor-colored" xmlns="http://www.w3.org/2000/svg" viewBox="0 0 229 232"><circle fill="#fab900" cx="108.74" cy="122.74" r="96.86"></circle><rect fill="#fff" x="62.32" y="81" width="101.18" height="17.71"></rect><rect fill="#fff" x="62.32" y="104.78" width="73.36" height="17.71"></rect><rect fill="#fff" x="62.32" y="128.56" width="56.16" height="17.71"></rect><rect fill="#fff" x="62.32" y="152.33" width="50.59" height="17.71"></rect></symbol><symbol id="price-surveys-colored" xmlns="http://www.w3.org/2000/svg" viewBox="0 0 282 226"><circle fill="#fab900" cx="109.74" cy="118.74" r="96.86"></circle><rect fill="#fff" x="64.49" y="125.59" width="20.59" height="44.41"></rect><rect fill="#fff" x="94.02" y="100.88" width="20.59" height="69.12"></rect><rect fill="#fff" x="122.55" y="65" width="20.59" height="105"></rect><path fill="#fff" stroke="#fab900" stroke-miterlimit="10" stroke-width="4" d="M136.24,149.68a20.32,20.32,0,1,1,17-23.19,20.36,20.36,0,0,1-17,23.19M158.46,144a29.09,29.09,0,1,0-5.46,6.93l21.83,16,5-7.39Z"></path></symbol><symbol id="plus" xmlns="http://www.w3.org/2000/svg" viewBox="0 0 8 8"><path d="M3.5,0 L4.5,0 L4.5,8 L3.5,8 L3.5,0 Z"></path><path d="M8,3.5 L8,4.5 L0,4.5 L0,3.5 L8,3.5 Z"></path></symbol><symbol id="portfolio-monitor" xmlns="http://www.w3.org/2000/svg" viewBox="0 0 569 553"><rect x="156.42" y="164.81" width="275.02" height="48.13"></rect><rect x="156.42" y="229.45" width="199.39" height="48.13"></rect><rect x="156.42" y="294.07" width="152.64" height="48.13"></rect><rect x="156.42" y="358.7" width="137.51" height="48.13"></rect></symbol><symbol id="recycle-bin" xmlns="http://www.w3.org/2000/svg" x="0px" y="0px" viewBox="0 0 1000 1000" enable-background="new 0 0 1000 1000" xml:space="preserve"><g><g transform="translate(0.000000,511.000000) scale(0.100000,-0.100000)"><path d="M3405.6,4972.3c-44.9-24-95.8-68.9-113.8-101.8c-15-29.9-29.9-254.6-29.9-506.1v-449.2l-1494.4-9l-1494.4-9l-77.9-71.9c-143.8-134.8-119.8-395.3,38.9-482.2c35.9-18,281.5-29.9,584-29.9h521.1l18-185.7c9-104.8,30-437.2,47.9-742.7c281.5-5139.1,395.3-6968.9,437.2-7031.8c104.8-161.7,12-158.7,3219.4-149.7l2967.8,9l80.9,92.8c104.8,116.8,77.9-254.6,317.4,4159.8c107.8,1976.6,203.6,3650.6,212.6,3722.5l15,125.8h524.1c320.4,0,548.1,12,587,32.9c80.9,41.9,152.7,221.6,128.8,326.4c-9,44.9-50.9,113.8-92.8,152.7l-77.9,71.9l-1494.4,9l-1494.4,9v449.2c0,251.6-15,476.2-29.9,509.1c-77.9,143.7-101.8,146.7-1713,146.7C3723.1,5017.2,3474.5,5011.2,3405.6,4972.3z M6136.8,4166.7v-254.6h-1138h-1138v254.6v254.6h1138h1138V4166.7z M8023.6,3262.2c3-116.8-395.3-7307.3-407.3-7367.2l-12-68.9H4998.8H2396.4l-15,128.8c-18,143.7-407.3,7073.7-407.3,7247.4v110.8h3024.7C7858.9,3313.1,8023.6,3310.1,8023.6,3262.2z"></path><path d="M2980.4,2621.3c-44.9-35.9-92.8-92.8-107.8-128.8c-12-35.9,44.9-1266.8,137.8-2878c86.8-1548.3,161.7-2860,161.7-2917c0-71.9,26.9-125.8,101.8-200.6c113.8-113.8,209.6-128.8,347.4-56.9C3741-3497,3771-3431.2,3771-3230.5c0,176.7-287.5,5375.6-311.5,5615.2C3435.6,2639.3,3169,2771.1,2980.4,2621.3z"></path><path d="M4786.2,2597.4l-86.8-86.9V-451.3c0-2758.2,6-2961.8,53.9-3021.7c101.8-128.8,236.6-161.7,380.3-95.8c170.7,77.9,164.7-53.9,164.7,3138.5v2940.9l-86.8,86.9c-68.9,68.9-113.8,86.8-212.6,86.8C4900,2684.2,4855.1,2666.3,4786.2,2597.4z"></path><path d="M6637,2624.3c-41.9-32.9-83.8-83.8-92.9-113.8c-26.9-83.9-350.4-5851.8-332.4-5908.7c27-83.9,191.7-206.7,272.5-206.7c101.8,0,242.6,77.9,284.5,155.7c29.9,56.9,353.4,5306.8,356.4,5797.9c0,137.8-12,173.7-86.9,248.6C6930.5,2705.2,6753.8,2717.2,6637,2624.3z"></path></g></g></symbol><symbol id="price-surveys" xmlns="http://www.w3.org/2000/svg" viewBox="0 0 569 553"><rect stroke-miterlimit="10" x="162.33" y="295" width="55.59" height="119.91"></rect><rect stroke-miterlimit="10" x="242.06" y="228.29" width="55.58" height="186.61"></rect><rect stroke-miterlimit="10" x="319.08" y="131.42" width="55.58" height="283.49"></rect><path fill="#fff" stroke-width="9px" stroke-miterlimit="10" d="M357.06,360a54.87,54.87,0,1,1,45.86-62.6A55,55,0,0,1,357.06,360m60-15.43a78.49,78.49,0,1,0-14.74,18.71l58.94,43.3,13.48-20Z"></path></symbol><symbol id="price-studies" width="48" height="48" viewBox="0 0 48 48" xmlns="http://www.w3.org/2000/svg"><path fill-rule="evenodd" clip-rule="evenodd" d="M27 22V21H26H22V17H31V26H27V22ZM27 27V31C27 31.5523 26.5523 32 26 32H17C16.4477 32 16 31.5523 16 31V22C16 21.4477 16.4477 21 17 21H21V17C21 16.4477 21.4477 16 22 16H31C31.5523 16 32 16.4477 32 17V26C32 26.5523 31.5523 27 31 27H27ZM25 22H26V23V26V31H17L17 22H22H25Z"></path></symbol><symbol id="profile-logo" width="96" height="96" viewBox="0 0 96 96" fill="none" xmlns="http://www.w3.org/2000/svg"><path d="M48 0C21.462 0 0 21.462 0 48C0 74.538 21.462 96 48 96C74.538 96 96 74.538 96 48C96 21.462 74.449 0 48 0ZM41.321 19.5918C39.6289 21.8182 38.026 24.2226 36.7792 26.8052C35.9777 28.4082 35.2653 30.1002 34.5529 31.7922C33.3952 31.436 32.3265 30.9907 31.2579 30.5455C29.6549 29.833 28.141 29.1206 26.6271 28.2301C30.4564 24.0445 35.5325 21.0167 41.321 19.5918ZM24.3117 30.9017C26.2709 32.0594 28.2301 33.039 30.3673 33.9295C31.3469 34.3748 32.4156 34.731 33.4842 35.0872C33.039 36.6011 32.6827 38.2041 32.4156 39.718C32.0594 41.8553 31.7922 43.9926 31.7032 46.2189H18.8794C19.2356 40.5195 21.1948 35.2653 24.3117 30.9017ZM18.8794 49.692H31.6141C31.7032 51.384 31.7922 53.0761 32.0594 54.7681C32.3265 56.8163 32.7718 58.8646 33.3952 60.9128C31.6141 61.4471 29.9221 62.1595 28.2301 62.961C26.8942 63.5844 25.5584 64.2968 24.3117 65.0093C21.1948 60.6456 19.2356 55.3915 18.8794 49.692ZM26.6271 67.6809C27.7848 66.9685 29.0315 66.3451 30.2783 65.8108C31.7032 65.1874 33.128 64.6531 34.5529 64.1187C35.0872 65.5436 35.7106 66.9685 36.334 68.3043C37.6698 71.0649 39.3618 73.7365 41.2319 76.2301C35.5325 74.9833 30.4564 71.8664 26.6271 67.6809ZM46.2189 76.7644C43.3692 73.6475 41.0538 70.1744 39.2727 66.3451C38.7384 65.2764 38.2931 64.2968 37.9369 63.1391C39.0946 62.872 40.2523 62.6048 41.41 62.4267C42.7458 62.2486 44.0816 62.0705 45.5065 61.9814C45.7737 61.9814 46.0408 61.9814 46.2189 61.9814V76.7644ZM46.2189 58.5974C45.6846 58.5974 45.1503 58.5974 44.705 58.6865C43.2801 58.7755 41.7662 58.9536 40.3414 59.2208C39.1837 59.3989 38.026 59.666 36.8683 59.9332C36.2449 57.885 35.8887 55.8367 35.5325 53.7885C35.3544 52.4527 35.2653 51.1169 35.1763 49.7811H46.2189V58.5974ZM46.2189 46.2189H35.1763C35.2653 43.9926 35.5325 41.7662 35.9777 39.5399C36.2449 38.3822 36.5121 37.1354 36.8683 35.9777C37.6698 36.1558 38.4712 36.334 39.1837 36.5121C41.4991 36.9573 43.9035 37.2245 46.2189 37.3135V46.2189ZM46.2189 33.8404C43.9926 33.7514 41.7662 33.4842 39.5399 33.039C39.0056 32.9499 38.4712 32.7718 37.9369 32.6827C38.5603 31.0798 39.2727 29.4768 40.0742 27.8738C41.7662 24.6679 43.8145 21.7291 46.2189 19.0575V33.8404ZM69.3729 28.2301C67.7699 29.2096 65.9889 30.0111 64.2968 30.7236C63.3172 31.0798 62.4267 31.436 61.4471 31.7922C60.8237 30.1002 60.1113 28.4082 59.2208 26.8052C57.885 24.3117 56.3711 21.9072 54.679 19.5918C60.3785 21.0167 65.4545 24.0445 69.3729 28.2301ZM49.692 19.1466C52.3636 22.0853 54.59 25.2913 56.282 28.8534C56.9054 30.1002 57.4397 31.436 57.974 32.6827C57.2616 32.8609 56.5492 33.039 55.8367 33.128C53.7885 33.4842 51.7403 33.7514 49.692 33.8404V19.1466ZM49.692 37.3135C52.1855 37.2245 54.59 36.9573 56.9944 36.423C57.7069 36.2449 58.4193 36.1558 59.0427 35.9777C59.4879 37.4026 59.7551 38.8275 60.0223 40.3414C60.3785 42.3006 60.5566 44.2597 60.6456 46.2189H49.692V37.3135ZM49.692 49.692H60.7347C60.6456 51.2059 60.5566 52.7199 60.2894 54.2338C60.0223 56.1039 59.577 58.0631 59.0427 59.8442C57.7069 59.4879 56.3711 59.2208 54.9462 59.0427C53.5213 58.8646 52.0074 58.6865 50.5826 58.5974C50.2263 58.5974 49.9592 58.5974 49.603 58.5974V49.692H49.692ZM49.692 62.0705C50.1373 62.0705 50.5826 62.0705 51.0278 62.1596C52.3636 62.2486 53.6994 62.4267 55.0353 62.6048C56.0148 62.7829 56.9944 62.961 57.974 63.2282C57.5288 64.475 56.9944 65.6327 56.3711 66.8794C54.59 70.5306 52.3636 73.8256 49.603 76.8534V62.0705H49.692ZM54.679 76.3191C56.7273 73.7365 58.4193 70.8868 59.8442 67.859C60.3785 66.6122 60.9128 65.4545 61.4471 64.1187C63.0501 64.6531 64.6531 65.2764 66.256 65.9889C67.3247 66.5232 68.3933 67.0575 69.462 67.6809C65.4545 71.8664 60.3785 74.9833 54.679 76.3191ZM71.5993 65.0093C70.1744 64.1187 68.6605 63.4063 67.1466 62.6939C65.6327 61.9814 64.1187 61.4471 62.5158 60.9128C63.1391 58.6865 63.5844 56.4601 63.9406 54.2338C64.1187 52.7199 64.2968 51.295 64.2968 49.7811H77.0315C76.6753 55.3915 74.7161 60.6456 71.5993 65.0093ZM64.2078 46.2189C64.1187 43.8145 63.8516 41.4991 63.4063 39.1837C63.1391 37.8479 62.7829 36.423 62.4267 35.0872C63.6735 34.731 64.8312 34.1967 65.9889 33.7514C67.859 32.9499 69.7291 32.0594 71.5102 30.9907C74.6271 35.3544 76.5863 40.6085 76.9425 46.308H64.2078V46.2189Z" fill="#EBEBEB"></path></symbol><symbol id="search" width="36" height="36" viewBox="0 0 36 36" fill="none" xmlns="http://www.w3.org/2000/svg"><path d="M21.5001 21.9999L26 26.5858" stroke-width="2" stroke-linecap="round" stroke-linejoin="round"></path><circle cx="16.5" cy="17.5" r="6.5" stroke-width="2"></circle></symbol><symbol id="reset" width="16" height="14" viewBox="0 0 16 14" fill="none" xmlns="http://www.w3.org/2000/svg"><path d="M3.29412 9L6.4971 6L-2.45987e-07 6L3.29412 9Z" fill="#717776"></path><path fill-rule="evenodd" clip-rule="evenodd" d="M7 14H0V13H7V14Z" fill="#717776"></path><path fill-rule="evenodd" clip-rule="evenodd" d="M9.5 1C5.80427 1 4 3.74715 4 6H3C3 3.25285 5.19573 0 9.5 0C13.0453 0 16 2.71196 16 6.5C16 8.33797 15.4758 10.2069 14.3261 11.6271C13.1648 13.0617 11.3945 14 9 14V13C11.1055 13 12.5852 12.1883 13.5489 10.9979C14.5242 9.79307 15 8.16203 15 6.5C15 3.28804 12.5172 1 9.5 1Z" fill="#717776"></path></symbol><symbol id="search-grey" width="36" height="36" viewBox="0 0 36 36" fill="none" xmlns="http://www.w3.org/2000/svg"><path d="M21.5001 21.9999L26 26.5858" stroke-width="2" stroke="#BCBCBC" stroke-linecap="round" stroke-linejoin="round"></path><circle cx="16.5" cy="17.5" r="6.5" stroke-width="2" stroke="#BCBCBC"></circle></symbol><symbol id="search-white" width="36" height="36" viewBox="0 0 36 36" fill="none" xmlns="http://www.w3.org/2000/svg"><path d="M21.5001 21.9999L26 26.5858" stroke-width="2" stroke="#fff" stroke-linecap="round" stroke-linejoin="round"></path><circle cx="16.5" cy="17.5" r="6.5" stroke-width="2" stroke="#fff"></circle></symbol><symbol id="select-all-arrow" xmlns="http://www.w3.org/2000/svg" viewBox="0 0 32 32" enable-background="new 0 0 32 32"><path d="M 18.015885,15.874767 10.346456,23.517191 8.9421949,22.139934 15.180356,15.820757 8.9691999,9.5285852 10.319451,8.1783332 Z"></path><path d="m 23.633313,15.981183 -7.669429,7.642424 -1.404261,-1.377257 6.238161,-6.319177 -6.211156,-6.2921716 1.350251,-1.350252 z"></path></symbol><symbol id="select-all" width="14" height="14" viewBox="0 0 14 14" fill="none" xmlns="http://www.w3.org/2000/svg"><rect x="0.5" y="0.5" width="13" height="13" rx="1.5" fill="white" stroke="#BCBCBC"></rect><rect x="5" y="5" width="4" height="4" fill="#F49719"></rect></symbol><symbol id="settings" width="48" height="48" viewBox="0 0 48 48" fill="none" xmlns="http://www.w3.org/2000/svg"><path d="M26.5 24C26.5 25.3846 25.3846 26.5 24 26.5C22.6154 26.5 21.5 25.3846 21.5 24C21.5 22.6154 22.6154 21.5 24 21.5C25.3846 21.5 26.5 22.6154 26.5 24Z" stroke-miterlimit="10"></path><path d="M18.6049 25.9341L18.502 25.7284L18.2789 25.6726L16.5 25.2279V22.7643L18.2769 22.3279L18.5015 22.2727L18.6049 22.0659C18.6432 21.9893 18.6803 21.9058 18.7119 21.8347L18.7142 21.8296C18.7485 21.7525 18.7769 21.6887 18.8041 21.6344L18.9268 21.3889L18.7856 21.1535L17.8661 19.6211L19.6211 17.8661L21.1535 18.7856L21.3889 18.9268L21.6344 18.8041C21.7676 18.7374 21.8836 18.6797 22.028 18.6219L22.2666 18.5265L22.3279 18.2769L22.7643 16.5H25.2357L25.6721 18.2769L25.7273 18.5015L25.9341 18.6049C26.0107 18.6432 26.0942 18.6803 26.1653 18.7119L26.1704 18.7142C26.2475 18.7485 26.3113 18.7769 26.3656 18.8041L26.6111 18.9268L26.8465 18.7856L28.3789 17.8661L30.1339 19.6211L29.2144 21.1535L29.0732 21.3889L29.1959 21.6344C29.2231 21.6887 29.2515 21.7525 29.2858 21.8296L29.2881 21.8346C29.3197 21.9058 29.3568 21.9893 29.3951 22.0659L29.4985 22.2727L29.7231 22.3279L31.5 22.7643V25.2357L29.7231 25.6721L29.4985 25.7273L29.3951 25.9341C29.3568 26.0107 29.3197 26.0942 29.2881 26.1653L29.2858 26.1704C29.2515 26.2475 29.2231 26.3113 29.1959 26.3656L29.0732 26.6111L29.2144 26.8465L30.1339 28.3789L28.3789 30.1339L26.8465 29.2144L26.6111 29.0732L26.3656 29.1959C26.3113 29.2231 26.2475 29.2515 26.1704 29.2858L26.1653 29.2881C26.0942 29.3197 26.0107 29.3568 25.9341 29.3951L25.7273 29.4985L25.6721 29.7231L25.2357 31.5H22.7643L22.3279 29.7231L22.2727 29.4985L22.0659 29.3951C21.9893 29.3568 21.9058 29.3197 21.8346 29.2881L21.8296 29.2858C21.7525 29.2515 21.6887 29.2231 21.6344 29.1959L21.3889 29.0732L21.1535 29.2144L19.6211 30.1339L17.8661 28.3789L18.7856 26.8465L18.9268 26.6111L18.8041 26.3656C18.7769 26.3113 18.7485 26.2475 18.7142 26.1704L18.7119 26.1653C18.6803 26.0942 18.6432 26.0107 18.6049 25.9341Z" stroke-miterlimit="10"></path></symbol><symbol id="select-arrow" xmlns="http://www.w3.org/2000/svg" viewBox="0 0 32 32" enable-background="new 0 0 32 32"><path d="M 20.740514,15.687071 13.071085,23.329495 11.666824,21.952238 17.904985,15.633061 11.693829,9.340889 13.04408,7.990637 Z"></path></symbol><symbol id="sharing" width="14" height="15" viewBox="0 0 14 15" fill="none" xmlns="http://www.w3.org/2000/svg"><g clip-path="url(#clip0)"><path d="M14.0001 10.7739C14.0001 8.53987 12.3618 6.70299 10.2271 6.35547C9.78028 6.80228 9.23418 7.0505 8.63844 7.0505C8.43985 7.0505 8.24127 7.00086 8.09234 6.95121C7.99305 7.64625 7.74482 8.34128 7.34766 8.83774C8.88666 9.13561 10.1278 10.1782 10.7732 11.5186H14.0001V10.7739Z" fill="#717776"></path><path d="M8.09224 6.20567C8.09224 6.30496 8.09224 6.40425 8.09224 6.4539C8.24118 6.50355 8.43976 6.55319 8.58869 6.55319C8.88657 6.55319 9.18444 6.4539 9.43267 6.30496C10.227 5.80851 10.8227 4.66667 10.8227 3.2766C10.8227 1.48936 9.82983 0 8.58869 0C7.4965 0 6.60288 1.14184 6.4043 2.68085C7.3972 3.22695 8.09224 4.56738 8.09224 6.20567Z" fill="#717776"></path><path d="M10.773 13.6517V14.3964H0V13.6517C0 11.5169 1.48936 9.77934 3.47518 9.28288C3.57447 9.28288 3.67376 9.23324 3.82269 9.23324L3.87234 9.28288C3.92199 9.38218 3.97163 9.38218 4.02128 9.43182C4.07092 9.48147 4.17021 9.53111 4.21986 9.58076L4.2695 9.6304C4.36879 9.68005 4.41844 9.72969 4.51773 9.77934C4.61702 9.82898 4.76596 9.87863 4.91489 9.87863H4.96454C5.11347 9.87863 5.21277 9.92827 5.3617 9.92827C5.51064 9.92827 5.60993 9.92827 5.75887 9.87863C5.80851 9.87863 5.80851 9.87863 5.85816 9.87863C5.95745 9.82898 6.10638 9.82898 6.20567 9.77934C6.25532 9.77934 6.25532 9.72969 6.30496 9.72969C6.35461 9.68005 6.4539 9.68005 6.50355 9.6304L6.55319 9.58076C6.65248 9.53111 6.70213 9.48147 6.80142 9.38218C6.85106 9.38218 6.85106 9.33253 6.90071 9.28288C6.95035 9.23324 6.95035 9.23324 7 9.18359C8.39007 9.38218 9.58156 10.2261 10.2269 11.4176C10.5745 12.1623 10.773 12.907 10.773 13.6517Z" fill="#BCBCBC"></path><path d="M7.64545 6.20515C7.64545 6.40373 7.64545 6.60231 7.59581 6.75125C7.49652 7.69451 7.09935 8.48883 6.55325 8.98529L6.50361 9.03493C6.45396 9.08458 6.35467 9.13422 6.30503 9.18387C6.25538 9.23352 6.15609 9.28316 6.10645 9.28316C6.10645 9.28316 6.0568 9.28316 6.0568 9.33281C5.95751 9.38245 5.90786 9.38245 5.80857 9.4321H5.75893C5.56035 9.4321 5.46106 9.4321 5.41141 9.4321C5.31212 9.4321 5.21283 9.4321 5.11354 9.38245H5.06389C4.9646 9.38245 4.86531 9.33281 4.76602 9.28316C4.66673 9.23352 4.61708 9.18387 4.51779 9.13422C4.46815 9.08458 4.4185 9.03493 4.36886 9.03493C4.31921 8.98529 4.26957 8.98529 4.26957 8.93564C4.12063 8.83635 4.02134 8.68742 3.8724 8.48883C3.47524 7.89309 3.17737 7.04912 3.17737 6.1555C3.17737 4.36827 4.17028 2.87891 5.41141 2.87891C5.75893 2.87891 6.10645 2.9782 6.40432 3.22642C7.09935 3.77252 7.64545 4.91437 7.64545 6.20515Z" fill="#BCBCBC"></path></g><defs></defs></symbol><symbol id="select-inactive" width="14" height="14" viewBox="0 0 14 14" fill="none" xmlns="http://www.w3.org/2000/svg"><rect x="0.5" y="0.5" width="13" height="13" rx="1.5" fill="white" stroke="#BCBCBC"></rect></symbol><symbol id="star_success" width="36" height="36" viewBox="2 2 36 36" fill="none" xmlns="http://www.w3.org/2000/svg"><path fill-rule="evenodd" clip-rule="evenodd" d="M18.0001 10C18.727 10 19.3807 10.4426 19.6507 11.1175L20.9814 14.4444H24.2222C24.9399 14.4444 25.5872 14.876 25.8632 15.5386C26.1392 16.2011 25.9898 16.9646 25.4844 17.4742L22.7819 20.1987L24.1004 23.5756C24.377 24.284 24.1724 25.0898 23.5915 25.5804C23.0105 26.0711 22.1818 26.1379 21.5298 25.7466L18 23.6288L14.4702 25.7466C13.8182 26.1379 12.9895 26.0711 12.4085 25.5804C11.8276 25.0898 11.623 24.2839 11.8996 23.5756L13.2181 20.1987L10.5157 17.4742C10.0102 16.9646 9.86075 16.2011 10.1368 15.5386C10.4128 14.876 11.0601 14.4444 11.7778 14.4444H15.0186L16.3494 11.1175C16.6194 10.4426 17.2731 9.99999 18.0001 10Z" fill="#FBBA00"></path></symbol><symbol id="star" width="36" height="36" viewBox="2 2 36 36" xmlns="http://www.w3.org/2000/svg"><path fill-rule="evenodd" clip-rule="evenodd" d="M18.0001 10C18.727 10 19.3807 10.4426 19.6507 11.1175L20.9814 14.4444H24.2222C24.9399 14.4444 25.5872 14.876 25.8632 15.5386C26.1392 16.2011 25.9898 16.9646 25.4844 17.4742L22.7819 20.1987L24.1004 23.5756C24.377 24.284 24.1724 25.0898 23.5915 25.5804C23.0105 26.0711 22.1818 26.1379 21.5298 25.7466L18 23.6288L14.4702 25.7466C13.8182 26.1379 12.9895 26.0711 12.4085 25.5804C11.8276 25.0898 11.623 24.2839 11.8996 23.5756L13.2181 20.1987L10.5157 17.4742C10.0102 16.9646 9.86075 16.2011 10.1368 15.5386C10.4128 14.876 11.0601 14.4444 11.7778 14.4444H15.0186L16.3494 11.1175C16.6194 10.4426 17.2731 9.99999 18.0001 10ZM16.2222 16.2222H11.7778L15.2948 19.7679L13.5556 24.2222L18 21.5555L22.4444 24.2222L20.7053 19.7679L24.2222 16.2222H19.7778L18 11.7778L16.2222 16.2222Z"></path></symbol><symbol id="three_dots" width="3" height="15" viewBox="0 0 3 15" xmlns="http://www.w3.org/2000/svg"><circle cx="1.5" cy="1.5" r="1.5"></circle><circle cx="1.5" cy="7.5" r="1.5"></circle><circle cx="1.5" cy="13.5" r="1.5"></circle></symbol><symbol id="success" width="14" height="11" viewBox="0 0 14 11" fill="none" xmlns="http://www.w3.org/2000/svg"><path d="M1 5L5.23529 9L13 1" stroke-width="2"></path></symbol><symbol id="trash" width="10" height="10" viewBox="0 0 10 10" fill="none" xmlns="http://www.w3.org/2000/svg"><path d="M1 1L9 9M1 1L9 9" stroke="#717776" stroke-linecap="round" stroke-linejoin="round"></path><path d="M1 9L9 1M1 9L9 1" stroke="#717776" stroke-linecap="round" stroke-linejoin="round"></path></symbol><symbol id="unpin" version="1.1" xmlns="http://www.w3.org/2000/svg" viewBox="0 0 20 20"><path fill="#F49719" d="M15.86 14.03C16.09 14.03 16.3 13.92 16.43 13.73C16.56 13.53 16.58 13.29 16.49 13.08C15.46 10.69 14.02 9.54 13.35 9.11C13.31 8.55 12.95 4.03 12.91 3.47C13.99 2.5 14.14 1.25 14.15 1.19C14.17 1 14.11 0.81 13.98 0.66C13.85 0.52 13.67 0.44 13.47 0.44C12.81 0.44 7.5 0.45 6.83 0.45C6.64 0.45 6.45 0.53 6.32 0.68C6.19 0.82 6.13 1.02 6.15 1.21C6.27 2.28 6.96 3.07 7.37 3.45C7.32 4.02 6.94 8.57 6.9 9.14C6.25 9.6 4.78 10.83 3.8 13.1C3.7 13.31 3.73 13.55 3.85 13.75C3.88 13.79 3.91 13.82 3.94 13.85C4.07 13.98 4.24 14.05 4.42 14.05C4.76 14.05 6.43 14.05 9.44 14.04C9.44 17.06 9.44 18.73 9.44 19.07C9.43 19.25 9.51 19.43 9.63 19.55C9.76 19.67 9.93 19.75 10.12 19.75C10.5 19.75 10.8 19.44 10.8 19.06C10.8 18.73 10.81 17.05 10.81 14.04C13.84 14.04 15.52 14.03 15.86 14.03Z"></path></symbol><symbol id="unpin-white" version="1.1" xmlns="http://www.w3.org/2000/svg" viewBox="0 0 20 20"><path fill="white" d="M15.86 14.03C16.09 14.03 16.3 13.92 16.43 13.73C16.56 13.53 16.58 13.29 16.49 13.08C15.46 10.69 14.02 9.54 13.35 9.11C13.31 8.55 12.95 4.03 12.91 3.47C13.99 2.5 14.14 1.25 14.15 1.19C14.17 1 14.11 0.81 13.98 0.66C13.85 0.52 13.67 0.44 13.47 0.44C12.81 0.44 7.5 0.45 6.83 0.45C6.64 0.45 6.45 0.53 6.32 0.68C6.19 0.82 6.13 1.02 6.15 1.21C6.27 2.28 6.96 3.07 7.37 3.45C7.32 4.02 6.94 8.57 6.9 9.14C6.25 9.6 4.78 10.83 3.8 13.1C3.7 13.31 3.73 13.55 3.85 13.75C3.88 13.79 3.91 13.82 3.94 13.85C4.07 13.98 4.24 14.05 4.42 14.05C4.76 14.05 6.43 14.05 9.44 14.04C9.44 17.06 9.44 18.73 9.44 19.07C9.43 19.25 9.51 19.43 9.63 19.55C9.76 19.67 9.93 19.75 10.12 19.75C10.5 19.75 10.8 19.44 10.8 19.06C10.8 18.73 10.81 17.05 10.81 14.04C13.84 14.04 15.52 14.03 15.86 14.03Z"></path></symbol><symbol id="unselect-all-arrow" xmlns="http://www.w3.org/2000/svg" viewBox="0 0 32 32" enable-background="new 0 0 32 32"><path d="m 14.410795,15.927173 7.669429,-7.642424 1.404261,1.377257 -6.238161,6.319177 6.211156,6.292172 -1.350251,1.350252 z"></path><path d="m 8.7933668,15.820757 7.6694292,-7.642424 1.404261,1.377257 -6.238161,6.319177 6.211156,6.292172 -1.350251,1.350252 z"></path></symbol><symbol id="unshare" xmlns="http://www.w3.org/2000/svg" viewBox="0 0 100 100"><path d="M80.581,64.457c-3.276,0-6.364,0.962-8.678,2.893l-14.285-8.506c0.959-2.775,1.506-5.742,1.506-8.844   c0-3.162-0.569-6.181-1.563-9.001l14.343-8.538c2.313,1.925,5.401,3.082,8.678,3.082c8.099,0,14.457-6.553,14.457-14.457   c0-8.099-6.358-14.457-14.457-14.457c-7.899,0-14.457,6.358-14.457,14.457c0,0.773,0.194,1.541,0.194,2.314l-14.174,8.503   c-4.954-5.496-12.108-8.97-20.091-8.97C17.105,22.934,4.986,35.048,4.986,50s12.119,27.066,27.067,27.066   c8.043,0,15.246-3.525,20.204-9.096l14.062,8.435c0,0.773-0.194,1.547-0.194,2.509c0,7.904,6.558,14.457,14.457,14.457   c8.099,0,14.457-6.553,14.457-14.457C95.038,70.814,88.68,64.457,80.581,64.457z M46.773,54.399H17.337v-8.799h29.437V54.399z"></path></symbol><symbol id="unselect-arrow" xmlns="http://www.w3.org/2000/svg" viewBox="0 0 32 32" enable-background="new 0 0 32 32"><path d="m 10.840467,15.633061 7.669429,-7.642424 1.404261,1.3772568 -6.238161,6.3191772 6.211156,6.292172 -1.350251,1.350252 z"></path></symbol><symbol id="user-profile" width="36" height="36" viewBox="2 2 36 36" xmlns="http://www.w3.org/2000/svg"><path fill-rule="evenodd" clip-rule="evenodd" d="M17.9999 16C19.1044 16 19.9998 15.1046 19.9998 14C19.9998 12.8954 19.1044 12 17.9999 12C16.8954 12 16 12.8954 16 14C16 15.1046 16.8954 16 17.9999 16ZM17.9999 18C20.209 18 21.9998 16.2091 21.9998 14C21.9998 11.7909 20.209 10 17.9999 10C15.7908 10 14 11.7909 14 14C14 16.2091 15.7908 18 17.9999 18Z"></path><path fill-rule="evenodd" clip-rule="evenodd" d="M14.0717 23.242C14.1647 23.295 14.2802 23.354 14.4225 23.4159C15.0813 23.7023 16.2168 24 18 24C19.7832 24 20.9187 23.7023 21.5775 23.4159C21.7198 23.354 21.8353 23.295 21.9283 23.242C21.5741 21.3953 19.95 20 18 20C16.05 20 14.4259 21.3953 14.0717 23.242ZM24 24C23.6667 24.6667 22 26 18 26C14 26 12.3333 24.6667 12 24C12 20.6863 14.6863 18 18 18C21.3137 18 24 20.6863 24 24Z"></path></symbol><symbol id="white-car" viewBox="0 0 23 20" xmlns="http://www.w3.org/2000/svg"><path fill-rule="evenodd" clip-rule="evenodd" d="M16.1459 2H6.11416C5.69155 2 5.31456 2.26567 5.17242 2.66367L4.33801 5H18.2639L17.0403 2.55279C16.8709 2.214 16.5247 2 16.1459 2ZM18.8292 1.65836C18.321 0.642007 17.2822 0 16.1459 0H6.11416C4.84632 0 3.71535 0.797013 3.28893 1.99099L1.5 7H21.5L18.8292 1.65836Z" fill="white"></path><path fill-rule="evenodd" clip-rule="evenodd" d="M21 10H2V14.4615H21V10ZM2 8C0.895431 8 0 8.89543 0 10V16.4615H23V10C23 8.89543 22.1046 8 21 8H2Z" fill="white"></path><path fill-rule="evenodd" clip-rule="evenodd" d="M2 16.4614V16.9999C2 17.5522 2.44772 17.9999 3 17.9999C3.55228 17.9999 4 17.5522 4 16.9999V16.4614H6V16.9999C6 18.6567 4.65685 19.9999 3 19.9999C1.34315 19.9999 0 18.6567 0 16.9999V16.4614H2Z" fill="white"></path><path fill-rule="evenodd" clip-rule="evenodd" d="M19 16.4614V16.9999C19 17.5522 19.4477 17.9999 20 17.9999C20.5523 17.9999 21 17.5522 21 16.9999V16.4614H23V16.9999C23 18.6567 21.6569 19.9999 20 19.9999C18.3431 19.9999 17 18.6567 17 16.9999V16.4614H19Z" fill="white"></path><path fill-rule="evenodd" clip-rule="evenodd" d="M7 13C6.77644 11.8552 5.91773 11.3236 5 11.1146C4.94378 11.1018 4.88733 11.0902 4.8308 11.0797C4.52398 11.023 4.21454 11 3.92366 11C3.57764 11 3.25788 11.0326 3 11.0797V13H7Z" fill="white"></path><path fill-rule="evenodd" clip-rule="evenodd" d="M16 13C16.2236 11.8552 17.0823 11.3236 18 11.1146C18.0562 11.1018 18.1127 11.0902 18.1692 11.0797C18.476 11.023 18.7855 11 19.0763 11C19.4224 11 19.7421 11.0326 20 11.0797V13H16Z" fill="white"></path><path fill-rule="evenodd" clip-rule="evenodd" d="M9 11L9.57692 12.3846C9.73219 12.7573 10.0963 13 10.5 13H12.5C12.9037 13 13.2678 12.7573 13.4231 12.3846L14 11H9Z" fill="white"></path><path fill-rule="evenodd" clip-rule="evenodd" d="M20.8543 9.98569L18.3543 5.48569L20.1026 4.5144L22.6026 9.0144L20.8543 9.98569ZM0.333984 9.05283L2.33398 5.05283L4.12284 5.94726L2.12284 9.94726L0.333984 9.05283Z" fill="white"></path></symbol><symbol id="user-admin" width="48" height="48" viewBox="0 0 48 48" xmlns="http://www.w3.org/2000/svg"><path d="M23.6 23.5C25.144 23.5 26.4 22.0421 26.4 20.25C26.4 18.4579 25.144 17 23.6 17C22.056 17 20.8 18.4579 20.8 20.25C20.8 22.0421 22.056 23.5 23.6 23.5ZM23.6 18.8571C24.264 18.8571 24.8 19.4793 24.8 20.25C24.8 21.0207 24.264 21.6429 23.6 21.6429C22.936 21.6429 22.4 21.0207 22.4 20.25C22.4 19.4793 22.936 18.8571 23.6 18.8571ZM23.64 28.1429H20.216C21.008 27.6786 22.376 27.2143 23.6 27.2143C23.688 27.2143 23.784 27.2236 23.872 27.2236C24.144 26.5457 24.616 25.9886 25.184 25.5429C24.6 25.4221 24.048 25.3571 23.6 25.3571C21.728 25.3571 18 26.4436 18 28.6071V30H23.6V28.6071C23.6 28.4493 23.616 28.2914 23.64 28.1429ZM29.6 25.8214C28.128 25.8214 25.2 26.7593 25.2 28.6071V30H34V28.6071C34 26.7593 31.072 25.8214 29.6 25.8214ZM30.568 24.1314C31.176 23.7321 31.6 22.98 31.6 22.1071C31.6 20.8257 30.704 19.7857 29.6 19.7857C28.496 19.7857 27.6 20.8257 27.6 22.1071C27.6 22.98 28.024 23.7321 28.632 24.1314C28.92 24.3171 29.248 24.4286 29.6 24.4286C29.952 24.4286 30.28 24.3171 30.568 24.1314Z"></path></symbol><symbol id="upload" width="75" height="50" viewBox="0 0 75 50" fill="none" xmlns="http://www.w3.org/2000/svg"><path fill-rule="evenodd" clip-rule="evenodd" d="M37.5 0C48.875 0 58.3438 8.09375 60.4688 18.875C68.5938 19.4375 75 26.125 75 34.375C75 43 68 50 59.375 50H18.75C8.40625 50 0 41.5938 0 31.25C0 21.5938 7.3125 13.625 16.7188 12.625C20.625 5.125 28.4688 0 37.5 0ZM43.75 40.625V28.125H53.125L37.5 12.5L21.875 28.125H31.25V40.625H43.75Z" fill="#BCBCBC"></path></symbol><symbol id="x" version="1.1" xmlns="http://www.w3.org/2000/svg" viewBox="0 0 20 20"><path d="M19 1L1 19"></path><path d="M19 19L1 1"></path></symbol><symbol id="CHF" width="18" height="18" viewBox="0 0 18 18" fill="none" xmlns="http://www.w3.org/2000/svg"><path fill-rule="evenodd" clip-rule="evenodd" d="M9 18C13.9706 18 18 13.9706 18 9C18 4.02944 13.9706 0 9 0C4.02944 0 0 4.02944 0 9C0 13.9706 4.02944 18 9 18Z" fill="#3B3B3B"></path><path d="M11.5 8.5L8 8.5" stroke="white" stroke-linecap="round"></path><path d="M13.5 4.5H7.5V14.5" stroke="white" stroke-linecap="round"></path><path d="M5 11C4.72386 11 4.5 11.2239 4.5 11.5C4.5 11.7761 4.72386 12 5 12V11ZM10 12C10.2761 12 10.5 11.7761 10.5 11.5C10.5 11.2239 10.2761 11 10 11V12ZM5 12H10V11H5V12Z" fill="white"></path></symbol><symbol id="x-white" version="1.1" xmlns="http://www.w3.org/2000/svg" viewBox="0 0 20 20"><path stroke="white" d="M19 1L1 19"></path><path stroke="white" d="M19 19L1 1"></path></symbol><symbol id="CZK" width="18" height="18" viewBox="0 0 18 18" fill="none" xmlns="http://www.w3.org/2000/svg"><path fill-rule="evenodd" clip-rule="evenodd" d="M9 18C13.9706 18 18 13.9706 18 9C18 4.02944 13.9706 0 9 0C4.02944 0 0 4.02944 0 9C0 13.9706 4.02944 18 9 18Z" fill="#3B3B3B"></path><path d="M4 3.5V13.5" stroke="white" stroke-linecap="round"></path><path d="M5.5 7.5L9.5 13.5" stroke="white" stroke-linecap="round"></path><path d="M9 3.5L4 8.5" stroke="white" stroke-linecap="round"></path><path d="M15.5 8.40044C14.9706 7.84477 14.2328 7.5 13.4167 7.5C11.8058 7.5 10.5 8.84315 10.5 10.5C10.5 12.1569 11.8058 13.5 13.4167 13.5C14.2328 13.5 14.9706 13.1552 15.5 12.5996" stroke="white" stroke-linecap="round"></path><path d="M14.5 3.5L13 5.5L11.5 3.5" stroke="white" stroke-linecap="round" stroke-linejoin="round"></path></symbol><symbol id="CNY" width="18" height="18" viewBox="0 0 18 18" fill="none" xmlns="http://www.w3.org/2000/svg"><path fill-rule="evenodd" clip-rule="evenodd" d="M9 18C13.9706 18 18 13.9706 18 9C18 4.02944 13.9706 0 9 0C4.02944 0 0 4.02944 0 9C0 13.9706 4.02944 18 9 18Z" fill="#3B3B3B"></path><path d="M6.5 11C6.22386 11 6 11.2239 6 11.5C6 11.7761 6.22386 12 6.5 12V11ZM11.5 12C11.7761 12 12 11.7761 12 11.5C12 11.2239 11.7761 11 11.5 11V12ZM6.5 12H11.5V11H6.5V12Z" fill="white"></path><path d="M5.5 4.5L9 8" stroke="white" stroke-linecap="round"></path><path d="M12.5 4.5L9 8V14.5" stroke="white" stroke-linecap="round"></path><path d="M6.5 9C6.22386 9 6 9.22386 6 9.5C6 9.77614 6.22386 10 6.5 10V9ZM11.5 10C11.7761 10 12 9.77614 12 9.5C12 9.22386 11.7761 9 11.5 9V10ZM6.5 10H11.5V9H6.5V10Z" fill="white"></path></symbol><symbol id="DKK" width="18" height="18" viewBox="0 0 18 18" fill="none" xmlns="http://www.w3.org/2000/svg"><path fill-rule="evenodd" clip-rule="evenodd" d="M9 18C13.9706 18 18 13.9706 18 9C18 4.02944 13.9706 0 9 0C4.02944 0 0 4.02944 0 9C0 13.9706 4.02944 18 9 18Z" fill="#3B3B3B"></path><path d="M4 3.5V13.5" stroke="white" stroke-linecap="round"></path><path d="M5.5 7.5L9.5 13.5" stroke="white" stroke-linecap="round"></path><path d="M9 3.5L4 8.5" stroke="white" stroke-linecap="round"></path><path d="M15.5 8.40044C14.9706 7.84477 14.2328 7.5 13.4167 7.5C12.683 7.5 12.0126 7.77864 11.5 8.23864" stroke="white" stroke-linecap="round"></path><path d="M12 7.5C12 7.22386 11.7761 7 11.5 7C11.2239 7 11 7.22386 11 7.5L12 7.5ZM11 13.5C11 13.7761 11.2239 14 11.5 14C11.7761 14 12 13.7761 12 13.5L11 13.5ZM11 7.5L11 13.5L12 13.5L12 7.5L11 7.5Z" fill="white"></path></symbol><symbol id="GBP" width="18" height="18" viewBox="0 0 18 18" fill="none" xmlns="http://www.w3.org/2000/svg"><path fill-rule="evenodd" clip-rule="evenodd" d="M9 18C13.9706 18 18 13.9706 18 9C18 4.02944 13.9706 0 9 0C4.02944 0 0 4.02944 0 9C0 13.9706 4.02944 18 9 18Z" fill="#3B3B3B"></path><path fill-rule="evenodd" clip-rule="evenodd" d="M9.99994 4.5C8.61922 4.5 7.49994 5.61929 7.49994 7V9H10.5C10.7761 9 11 9.22386 11 9.5C11 9.77614 10.7761 10 10.5 10H7.49994V12C7.49994 12.261 7.45632 12.6412 7.3172 13H12.9999C13.2761 13 13.4999 13.2239 13.4999 13.5C13.4999 13.7761 13.2761 14 12.9999 14H5.99994C5.72379 14 5.49994 13.7761 5.49994 13.5C5.49994 13.2239 5.72379 13 5.99994 13C6.13729 13 6.24686 12.9343 6.34917 12.7211C6.45707 12.4963 6.49994 12.2013 6.49994 12V10H5.5C5.22386 10 5 9.77614 5 9.5C5 9.22386 5.22386 9 5.5 9H6.49994V7C6.49994 5.067 8.06694 3.5 9.99994 3.5C11.9329 3.5 13.4999 5.067 13.4999 7C13.4999 7.27614 13.2761 7.5 12.9999 7.5C12.7238 7.5 12.4999 7.27614 12.4999 7C12.4999 5.61929 11.3806 4.5 9.99994 4.5Z" fill="white"></path></symbol><symbol id="NOK" width="18" height="18" viewBox="0 0 18 18" fill="none" xmlns="http://www.w3.org/2000/svg"><path fill-rule="evenodd" clip-rule="evenodd" d="M9 18C13.9706 18 18 13.9706 18 9C18 4.02944 13.9706 0 9 0C4.02944 0 0 4.02944 0 9C0 13.9706 4.02944 18 9 18Z" fill="#3B3B3B"></path><path d="M6.72363 11H5.98242L4.08105 7.97363V11H3.33984V6.73438H4.08105L5.98828 9.77246V6.73438H6.72363V11Z" fill="white"></path><path d="M11.0039 8.97852C11.0039 9.39648 10.9316 9.76367 10.7871 10.0801C10.6426 10.3945 10.4355 10.6367 10.166 10.8066C9.89844 10.9746 9.58984 11.0586 9.24023 11.0586C8.89453 11.0586 8.58594 10.9746 8.31445 10.8066C8.04492 10.6367 7.83594 10.3955 7.6875 10.083C7.54102 9.77051 7.4668 9.41016 7.46484 9.00195V8.76172C7.46484 8.3457 7.53809 7.97852 7.68457 7.66016C7.83301 7.3418 8.04102 7.09863 8.30859 6.93066C8.57812 6.76074 8.88672 6.67578 9.23438 6.67578C9.58203 6.67578 9.88965 6.75977 10.1572 6.92773C10.4268 7.09375 10.6348 7.33398 10.7812 7.64844C10.9277 7.96094 11.002 8.3252 11.0039 8.74121V8.97852ZM10.2627 8.75586C10.2627 8.2832 10.1729 7.9209 9.99316 7.66895C9.81543 7.41699 9.5625 7.29102 9.23438 7.29102C8.91406 7.29102 8.66309 7.41699 8.48145 7.66895C8.30176 7.91895 8.20996 8.27344 8.20605 8.73242V8.97852C8.20605 9.44727 8.29688 9.80957 8.47852 10.0654C8.66211 10.3213 8.91602 10.4492 9.24023 10.4492C9.56836 10.4492 9.82031 10.3242 9.99609 10.0742C10.1738 9.82422 10.2627 9.45898 10.2627 8.97852V8.75586Z" fill="white"></path><path d="M12.9668 9.15723L12.4834 9.66992V11H11.7422V6.73438H12.4834V8.73535L12.8936 8.22852L14.1416 6.73438H15.0381L13.4531 8.62402L15.1289 11H14.25L12.9668 9.15723Z" fill="white"></path></symbol><symbol id="EUR" width="18" height="18" viewBox="0 0 18 18" fill="none" xmlns="http://www.w3.org/2000/svg"><path fill-rule="evenodd" clip-rule="evenodd" d="M9 18C13.9706 18 18 13.9706 18 9C18 4.02944 13.9706 0 9 0C4.02944 0 0 4.02944 0 9C0 13.9706 4.02944 18 9 18Z" fill="#3B3B3B"></path><path fill-rule="evenodd" clip-rule="evenodd" d="M9.04819 4.5C7.18204 4.5 5.5 6.41091 5.5 9C5.5 11.5891 7.18204 13.5 9.04819 13.5C10.0278 13.5 10.9395 12.9905 11.602 12.1191C11.7691 11.8993 12.0827 11.8565 12.3026 12.0237C12.5224 12.1908 12.5652 12.5044 12.398 12.7243C11.5835 13.7959 10.3967 14.5 9.04819 14.5C6.44284 14.5 4.5 11.9338 4.5 9C4.5 6.06624 6.44284 3.5 9.04819 3.5C10.2722 3.5 11.3651 4.081 12.1649 4.99058C12.3473 5.19794 12.327 5.51388 12.1196 5.69623C11.9123 5.87858 11.5963 5.8583 11.414 5.65093C10.7717 4.92051 9.93909 4.5 9.04819 4.5Z" fill="white"></path><path fill-rule="evenodd" clip-rule="evenodd" d="M3 7.5C3 7.22386 3.22386 7 3.5 7H8.5C8.77614 7 9 7.22386 9 7.5C9 7.77614 8.77614 8 8.5 8H3.5C3.22386 8 3 7.77614 3 7.5Z" fill="white"></path><path fill-rule="evenodd" clip-rule="evenodd" d="M3 10.5C3 10.2239 3.22386 10 3.5 10H8.5C8.77614 10 9 10.2239 9 10.5C9 10.7761 8.77614 11 8.5 11H3.5C3.22386 11 3 10.7761 3 10.5Z" fill="white"></path></symbol><symbol id="HUF" width="18" height="18" viewBox="0 0 18 18" fill="none" xmlns="http://www.w3.org/2000/svg"><path fill-rule="evenodd" clip-rule="evenodd" d="M9 18C13.9706 18 18 13.9706 18 9C18 4.02944 13.9706 0 9 0C4.02944 0 0 4.02944 0 9C0 13.9706 4.02944 18 9 18Z" fill="#3B3B3B"></path><path d="M13 6C13 4.89543 12.1046 4 11 4C9.89543 4 9 4.89543 9 6V12" stroke="white" stroke-linecap="round"></path><path d="M5 12C5 13.1046 5.89543 14 7 14C8.10457 14 9 13.1046 9 12" stroke="white" stroke-linecap="round"></path><line x1="7.5" y1="7.5" x2="10.5" y2="7.5" stroke="white" stroke-linecap="round"></line></symbol><symbol id="PLN" width="18" height="18" viewBox="0 0 18 18" fill="none" xmlns="http://www.w3.org/2000/svg"><path fill-rule="evenodd" clip-rule="evenodd" d="M9 18C13.9706 18 18 13.9706 18 9C18 4.02944 13.9706 0 9 0C4.02944 0 0 4.02944 0 9C0 13.9706 4.02944 18 9 18Z" fill="#3B3B3B"></path><path d="M12.0757 3.5V13.5" stroke="white" stroke-linecap="round"></path><path d="M14.0957 6.99995L10.0554 10" stroke="white" stroke-linecap="round"></path><path d="M4.5 8.5H8.54035L4.5 13.5H8.54035" stroke="white" stroke-linecap="round" stroke-linejoin="round"></path></symbol><symbol id="RON" width="18" height="18" viewBox="0 0 18 18" fill="none" xmlns="http://www.w3.org/2000/svg"><path fill-rule="evenodd" clip-rule="evenodd" d="M9 18C13.9706 18 18 13.9706 18 9C18 4.02944 13.9706 0 9 0C4.02944 0 0 4.02944 0 9C0 13.9706 4.02944 18 9 18Z" fill="#3B3B3B"></path><path d="M5.00098 9.35645H4.1748V11H3.43359V6.73438H4.93359C5.42578 6.73438 5.80566 6.84473 6.07324 7.06543C6.34082 7.28613 6.47461 7.60547 6.47461 8.02344C6.47461 8.30859 6.40527 8.54785 6.2666 8.74121C6.12988 8.93262 5.93848 9.08008 5.69238 9.18359L6.65039 10.9619V11H5.85645L5.00098 9.35645ZM4.1748 8.76172H4.93652C5.18652 8.76172 5.38184 8.69922 5.52246 8.57422C5.66309 8.44727 5.7334 8.27441 5.7334 8.05566C5.7334 7.82715 5.66797 7.65039 5.53711 7.52539C5.4082 7.40039 5.21484 7.33594 4.95703 7.33203H4.1748V8.76172Z" fill="white"></path><path d="M10.582 8.97852C10.582 9.39648 10.5098 9.76367 10.3652 10.0801C10.2207 10.3945 10.0137 10.6367 9.74414 10.8066C9.47656 10.9746 9.16797 11.0586 8.81836 11.0586C8.47266 11.0586 8.16406 10.9746 7.89258 10.8066C7.62305 10.6367 7.41406 10.3955 7.26562 10.083C7.11914 9.77051 7.04492 9.41016 7.04297 9.00195V8.76172C7.04297 8.3457 7.11621 7.97852 7.2627 7.66016C7.41113 7.3418 7.61914 7.09863 7.88672 6.93066C8.15625 6.76074 8.46484 6.67578 8.8125 6.67578C9.16016 6.67578 9.46777 6.75977 9.73535 6.92773C10.0049 7.09375 10.2129 7.33398 10.3594 7.64844C10.5059 7.96094 10.5801 8.3252 10.582 8.74121V8.97852ZM9.84082 8.75586C9.84082 8.2832 9.75098 7.9209 9.57129 7.66895C9.39355 7.41699 9.14062 7.29102 8.8125 7.29102C8.49219 7.29102 8.24121 7.41699 8.05957 7.66895C7.87988 7.91895 7.78809 8.27344 7.78418 8.73242V8.97852C7.78418 9.44727 7.875 9.80957 8.05664 10.0654C8.24023 10.3213 8.49414 10.4492 8.81836 10.4492C9.14648 10.4492 9.39844 10.3242 9.57422 10.0742C9.75195 9.82422 9.84082 9.45898 9.84082 8.97852V8.75586Z" fill="white"></path><path d="M14.7041 11H13.9629L12.0615 7.97363V11H11.3203V6.73438H12.0615L13.9688 9.77246V6.73438H14.7041V11Z" fill="white"></path></symbol><symbol id="USD" width="18" height="18" viewBox="0 0 18 18" fill="none" xmlns="http://www.w3.org/2000/svg"><path fill-rule="evenodd" clip-rule="evenodd" d="M9 18C13.9706 18 18 13.9706 18 9C18 4.02944 13.9706 0 9 0C4.02944 0 0 4.02944 0 9C0 13.9706 4.02944 18 9 18Z" fill="#3B3B3B"></path><path fill-rule="evenodd" clip-rule="evenodd" d="M8.81495 6.06079C8.04012 6.06079 7.5 6.61286 7.5 7.19424C7.5 7.75741 8.03913 8.2968 8.8293 8.32788C10.0924 8.35365 11.148 9.38648 11.148 10.6971C11.148 11.9948 10.1202 13.0665 8.8331 13.0665C7.73159 13.0665 6.8126 12.2722 6.58401 11.2207C6.52535 10.9509 6.69654 10.6846 6.96638 10.6259C7.23622 10.5673 7.50253 10.7385 7.56119 11.0083C7.69559 11.6266 8.22855 12.0665 8.8331 12.0665C9.54244 12.0665 10.148 11.4684 10.148 10.6971C10.148 9.94048 9.53686 9.3409 8.80586 9.32761L8.79644 9.32744L8.79644 9.32735C7.62873 9.2841 6.5 8.44504 6.5 7.19424C6.5 5.96068 7.59333 5.06079 8.81495 5.06079C9.89545 5.06079 10.8384 5.76106 11.0794 6.74907C11.1448 7.01735 10.9804 7.28788 10.7121 7.35331C10.4438 7.41875 10.1733 7.25431 10.1078 6.98603C9.98582 6.48579 9.4768 6.06079 8.81495 6.06079Z" fill="white"></path><path fill-rule="evenodd" clip-rule="evenodd" d="M8.83301 3.5C9.10915 3.5 9.33301 3.72386 9.33301 4V5.579C9.33301 5.85515 9.10915 6.079 8.83301 6.079C8.55687 6.079 8.33301 5.85515 8.33301 5.579V4C8.33301 3.72386 8.55687 3.5 8.83301 3.5Z" fill="white"></path><path fill-rule="evenodd" clip-rule="evenodd" d="M8.83301 12.1211C9.10915 12.1211 9.33301 12.345 9.33301 12.6211V14.2001C9.33301 14.4762 9.10915 14.7001 8.83301 14.7001C8.55687 14.7001 8.33301 14.4762 8.33301 14.2001V12.6211C8.33301 12.345 8.55687 12.1211 8.83301 12.1211Z" fill="white"></path></symbol><symbol id="RUB" width="18" height="18" viewBox="0 0 18 18" fill="none" xmlns="http://www.w3.org/2000/svg"><path fill-rule="evenodd" clip-rule="evenodd" d="M9 18C13.9706 18 18 13.9706 18 9C18 4.02944 13.9706 0 9 0C4.02944 0 0 4.02944 0 9C0 13.9706 4.02944 18 9 18Z" fill="#3B3B3B"></path><path fill-rule="evenodd" clip-rule="evenodd" d="M12 11C12 11.2761 11.7761 11.5 11.5 11.5L5.5 11.5C5.22386 11.5 5 11.2761 5 11C5 10.7239 5.22386 10.5 5.5 10.5L11.5 10.5C11.7761 10.5 12 10.7239 12 11Z" fill="white"></path><path fill-rule="evenodd" clip-rule="evenodd" d="M7 4H10.2778C11.7871 4 13 5.23709 13 6.75C13 8.26291 11.7871 9.5 10.2778 9.5H8V13.5C8 13.7761 7.77614 14 7.5 14C7.22386 14 7 13.7761 7 13.5V9.5H5.5C5.22386 9.5 5 9.27614 5 9C5 8.72386 5.22386 8.5 5.5 8.5H7V4ZM8 8.5H10.2778C11.2231 8.5 12 7.72237 12 6.75C12 5.77763 11.2231 5 10.2778 5H8V8.5Z" fill="white"></path></symbol><symbol id="SEK" width="18" height="18" viewBox="0 0 18 18" fill="none" xmlns="http://www.w3.org/2000/svg"><path fill-rule="evenodd" clip-rule="evenodd" d="M9 18C13.9706 18 18 13.9706 18 9C18 4.02944 13.9706 0 9 0C4.02944 0 0 4.02944 0 9C0 13.9706 4.02944 18 9 18Z" fill="#3B3B3B"></path><path d="M5.66309 9.90137C5.66309 9.71387 5.59668 9.56934 5.46387 9.46777C5.33301 9.36621 5.0957 9.26367 4.75195 9.16016C4.4082 9.05664 4.13477 8.94141 3.93164 8.81445C3.54297 8.57031 3.34863 8.25195 3.34863 7.85938C3.34863 7.51562 3.48828 7.23242 3.76758 7.00977C4.04883 6.78711 4.41309 6.67578 4.86035 6.67578C5.15723 6.67578 5.42188 6.73047 5.6543 6.83984C5.88672 6.94922 6.06934 7.10547 6.20215 7.30859C6.33496 7.50977 6.40137 7.7334 6.40137 7.97949H5.66309C5.66309 7.75684 5.59277 7.58301 5.45215 7.45801C5.31348 7.33105 5.11426 7.26758 4.85449 7.26758C4.6123 7.26758 4.42383 7.31934 4.28906 7.42285C4.15625 7.52637 4.08984 7.6709 4.08984 7.85645C4.08984 8.0127 4.16211 8.14355 4.30664 8.24902C4.45117 8.35254 4.68945 8.4541 5.02148 8.55371C5.35352 8.65137 5.62012 8.76367 5.82129 8.89062C6.02246 9.01562 6.16992 9.16016 6.26367 9.32422C6.35742 9.48633 6.4043 9.67676 6.4043 9.89551C6.4043 10.251 6.26758 10.5342 5.99414 10.7451C5.72266 10.9541 5.35352 11.0586 4.88672 11.0586C4.57812 11.0586 4.29395 11.002 4.03418 10.8887C3.77637 10.7734 3.5752 10.6152 3.43066 10.4141C3.28809 10.2129 3.2168 9.97852 3.2168 9.71094H3.95801C3.95801 9.95312 4.03809 10.1406 4.19824 10.2734C4.3584 10.4062 4.58789 10.4727 4.88672 10.4727C5.14453 10.4727 5.33789 10.4209 5.4668 10.3174C5.59766 10.2119 5.66309 10.0732 5.66309 9.90137Z" fill="white"></path><path d="M9.54785 9.0957H7.7959V10.4082H9.84375V11H7.05469V6.73438H9.82324V7.33203H7.7959V8.50977H9.54785V9.0957Z" fill="white"></path><path d="M11.6719 9.15723L11.1885 9.66992V11H10.4473V6.73438H11.1885V8.73535L11.5986 8.22852L12.8467 6.73438H13.7432L12.1582 8.62402L13.834 11H12.9551L11.6719 9.15723Z" fill="white"></path></symbol><symbol id="TRY" width="18" height="18" viewBox="0 0 18 18" fill="none" xmlns="http://www.w3.org/2000/svg"><path fill-rule="evenodd" clip-rule="evenodd" d="M9 18C13.9706 18 18 13.9706 18 9C18 4.02944 13.9706 0 9 0C4.02944 0 0 4.02944 0 9C0 13.9706 4.02944 18 9 18Z" fill="#3B3B3B"></path><path d="M8 3.5V13.5" stroke="white" stroke-linecap="round"></path><path d="M13 8C13 11.3137 10.7614 13.5 8 13.5" stroke="white" stroke-linecap="round"></path><path d="M11 4L6 6.5" stroke="white" stroke-linecap="round"></path><path d="M11.5999 5.99998L6 9" stroke="white" stroke-linecap="round"></path></symbol></svg>