<svg width="48" height="48" viewBox="0 0 48 48" xmlns="http://www.w3.org/2000/svg">
<path d="M17 17V28H23.2572C23.3212 28.0775 23.3873 28.1532 23.4553 28.2271C23.7112 28.5046 23.8715 28.765 23.9476 29H16.5C16.2239 29 16 28.7761 16 28.5V16.5C16 16.2239 16.2239 16 16.5 16H29.5C29.7761 16 30 16.2239 30 16.5V19.5997C29.6832 19.4378 29.3486 19.3056 29 19.207V17H17Z"/>
<path fill-rule="evenodd" clip-rule="evenodd" d="M30.6821 27.6819C30.2677 28.0963 29.9251 28.5992 29.8524 29.1807L29.719 30.2481C29.5939 31.2489 28.7431 32 27.7344 32H27.2656C26.2569 32 25.4061 31.2489 25.281 30.2481L25.1476 29.1807C25.0749 28.5992 24.7323 28.0963 24.3179 27.6819C23.5036 26.8675 23 25.7426 23 24.5C23 22.0147 25.0147 20 27.5 20C29.9853 20 32 22.0147 32 24.5C32 25.7426 31.4964 26.8675 30.6821 27.6819ZM29.975 26.9748C30.6094 26.3403 31 25.4667 31 24.5C31 22.567 29.433 21 27.5 21C25.567 21 24 22.567 24 24.5C24 25.4667 24.3906 26.3403 25.025 26.9748C25.5036 27.4533 26.0062 28.1317 26.1322 29H27V25H26.5C26.2239 25 26 24.7761 26 24.5C26 24.2239 26.2239 24 26.5 24H28.5C28.7761 24 29 24.2239 29 24.5C29 24.7761 28.7761 25 28.5 25H28V29H28.8678C28.9938 28.1317 29.4964 27.4533 29.975 26.9748ZM26.2733 30.124L26.2578 30H28.7422L28.7267 30.124C28.6642 30.6245 28.2388 31 27.7344 31H27.2656C26.7612 31 26.3358 30.6245 26.2733 30.124Z"/>
<path d="M25.916 18.2227C26.0692 18.4525 26.0071 18.7629 25.7773 18.9161L23.1184 20.6887C22.7218 20.9531 22.1937 20.9008 21.8566 20.5638L20.5777 19.2849L18.916 21.7774C18.7628 22.0072 18.4524 22.0693 18.2226 21.9161C17.9929 21.7629 17.9308 21.4525 18.084 21.2227L19.7457 18.7302C20.0957 18.2051 20.8386 18.1315 21.2848 18.5778L22.5637 19.8567L25.2226 18.084C25.4524 17.9309 25.7628 17.9929 25.916 18.2227Z"/>
<path d="M18 24.5C18 24.2239 18.2239 24 18.5 24H21.5C21.7761 24 22 24.2239 22 24.5C22 24.7761 21.7761 25 21.5 25H18.5C18.2239 25 18 24.7761 18 24.5Z"/>
<path d="M18 26.5C18 26.2239 18.2239 26 18.5 26H21.5C21.7761 26 22 26.2239 22 26.5C22 26.7761 21.7761 27 21.5 27H18.5C18.2239 27 18 26.7761 18 26.5Z"/>
</svg>
