<svg xmlns="http://www.w3.org/2000/svg" viewBox="0 0 98.15 66.68">
  <g><path d="M85.88,31.71a1.65,1.65,0,0,0,0-2.33l-.12-.11L50.76.34A1.5,1.5,0,0,0,48.31,1.5v16c-1.18,0-2.23,0-3.27,0C24.51,18.33,7.1,31.46,1.72,50.27A39.15,39.15,0,0,0,.18,65.4a1.5,1.5,0,0,0,1.17,1.25,1.48,1.48,0,0,0,.31,0A1.5,1.5,0,0,0,2.93,66c14.59-23,39.58-21.5,45.38-20.82V60.79a1.5,1.5,0,0,0,2.48,1.14l35-30.14ZM51.31,57.52V43.86a1.5,1.5,0,0,0-1.22-1.47C49.79,42.33,21,37.2,3,60.6A41.29,41.29,0,0,1,4.6,51.09c5-17.56,21.32-29.82,40.55-30.51.81,0,1.61,0,2.47,0l2.15,0a1.57,1.57,0,0,0,1.08-.43,1.5,1.5,0,0,0,.45-1.07V4.69L82.62,30.56Z"></path><path d="M97.67,29.38l-.12-.11L62.54.34a1.5,1.5,0,1,0-1.91,2.31L94.4,30.56,60.61,59.66a1.5,1.5,0,1,0,2,2.27l35-30.14.08-.08A1.65,1.65,0,0,0,97.67,29.38Z"></path></g>
</svg>