<svg width="48" height="48" viewBox="0 0 48 48" xmlns="http://www.w3.org/2000/svg">
<path fill-rule="evenodd" clip-rule="evenodd" d="M28 16L31.5 23.1301H31.4935C31.796 23.302 32 23.6272 32 24V31C32 31.5523 31.5523 32 31 32H17C16.4477 32 16 31.5523 16 31V24C16 23.6272 16.204 23.302 16.5065 23.1301H16.5L20 16H28ZM20.1322 18L20.6231 17H27.3769L27.8678 18H20.1322ZM19.6413 19L19.1505 20H28.8495L28.3587 19H19.6413ZM29.3404 21H18.6596L17.6778 23H30.3222L29.3404 21ZM17 24H31V31H17V24ZM26 28H22V27H26V28Z"/>
</svg>
