<svg viewBox="0 0 23 20" 
    xmlns="http://www.w3.org/2000/svg">
    <path fill-rule="evenodd" clip-rule="evenodd" d="M16.1459 2H6.11416C5.69155 2 5.31456 2.26567 5.17242 2.66367L4.33801 5H18.2639L17.0403 2.55279C16.8709 2.214 16.5247 2 16.1459 2ZM18.8292 1.65836C18.321 0.642007 17.2822 0 16.1459 0H6.11416C4.84632 0 3.71535 0.797013 3.28893 1.99099L1.5 7H21.5L18.8292 1.65836Z" fill="#717776"/>
    <path fill-rule="evenodd" clip-rule="evenodd" d="M21 10H2V14.4615H21V10ZM2 8C0.895431 8 0 8.89543 0 10V16.4615H23V10C23 8.89543 22.1046 8 21 8H2Z" fill="#717776"/>
    <path fill-rule="evenodd" clip-rule="evenodd" d="M2 16.4614V16.9999C2 17.5522 2.44772 17.9999 3 17.9999C3.55228 17.9999 4 17.5522 4 16.9999V16.4614H6V16.9999C6 18.6567 4.65685 19.9999 3 19.9999C1.34315 19.9999 0 18.6567 0 16.9999V16.4614H2Z" fill="#717776"/>
    <path fill-rule="evenodd" clip-rule="evenodd" d="M19 16.4614V16.9999C19 17.5522 19.4477 17.9999 20 17.9999C20.5523 17.9999 21 17.5522 21 16.9999V16.4614H23V16.9999C23 18.6567 21.6569 19.9999 20 19.9999C18.3431 19.9999 17 18.6567 17 16.9999V16.4614H19Z" fill="#717776"/>
    <path fill-rule="evenodd" clip-rule="evenodd" d="M7 13C6.77644 11.8552 5.91773 11.3236 5 11.1146C4.94378 11.1018 4.88733 11.0902 4.8308 11.0797C4.52398 11.023 4.21454 11 3.92366 11C3.57764 11 3.25788 11.0326 3 11.0797V13H7Z" fill="#717776"/>
    <path fill-rule="evenodd" clip-rule="evenodd" d="M16 13C16.2236 11.8552 17.0823 11.3236 18 11.1146C18.0562 11.1018 18.1127 11.0902 18.1692 11.0797C18.476 11.023 18.7855 11 19.0763 11C19.4224 11 19.7421 11.0326 20 11.0797V13H16Z" fill="#717776"/>
    <path fill-rule="evenodd" clip-rule="evenodd" d="M9 11L9.57692 12.3846C9.73219 12.7573 10.0963 13 10.5 13H12.5C12.9037 13 13.2678 12.7573 13.4231 12.3846L14 11H9Z" fill="#717776"/>
    <path fill-rule="evenodd" clip-rule="evenodd" d="M20.8543 9.98569L18.3543 5.48569L20.1026 4.5144L22.6026 9.0144L20.8543 9.98569ZM0.333984 9.05283L2.33398 5.05283L4.12284 5.94726L2.12284 9.94726L0.333984 9.05283Z" fill="#717776"/>
</svg>
