<svg width="18" height="18" viewBox="0 0 18 18" fill="none" xmlns="http://www.w3.org/2000/svg">
  <path
    fill="#F49719"
    d="M10.5 7C10.5 7.27614 10.7239 7.5 11 7.5L15.5 7.5C15.7761 7.5 16 7.27614 16 7C16 6.72386 15.7761 6.5 15.5 6.5L11.5 6.5V2.5C11.5 2.22386 11.2761 2 11 2C10.7239 2 10.5 2.22386 10.5 2.5V7ZM16.6464 0.646447L10.6464 6.64645L11.3536 7.35355L17.3536 1.35355L16.6464 0.646447Z"
  />
  <path
    fill="#F49719"
    d="M7.5 11C7.5 10.7239 7.27614 10.5 7 10.5H2.5C2.22386 10.5 2 10.7239 2 11C2 11.2761 2.22386 11.5 2.5 11.5H6.5L6.5 15.5C6.5 15.7761 6.72386 16 7 16C7.27614 16 7.5 15.7761 7.5 15.5L7.5 11ZM1.35355 17.3536L7.35355 11.3536L6.64645 10.6464L0.646447 16.6464L1.35355 17.3536Z"
  />
</svg>
