<svg width="36" height="36" viewBox="2 2 36 36" xmlns="http://www.w3.org/2000/svg">
<path fill-rule="evenodd" clip-rule="evenodd" d="M10 11.5C10 10.6716 10.6716 10 11.5 10H15.5C16.3284 10 17 10.6716 17 11.5V14.5C17 15.3284 16.3284 16 15.5 16H11.5C10.6716 16 10 15.3284 10 14.5V11.5ZM12 12V14H15V12H12Z"/>
<path fill-rule="evenodd" clip-rule="evenodd" d="M10 24.5C10 25.3284 10.6716 26 11.5 26H15.5C16.3284 26 17 25.3284 17 24.5V18.5C17 17.6716 16.3284 17 15.5 17H11.5C10.6716 17 10 17.6716 10 18.5V24.5ZM12 24V19H15V24H12Z"/>
<path fill-rule="evenodd" clip-rule="evenodd" d="M26 24.5C26 25.3284 25.3284 26 24.5 26L20.5 26C19.6716 26 19 25.3284 19 24.5L19 21.5C19 20.6716 19.6716 20 20.5 20L24.5 20C25.3284 20 26 20.6716 26 21.5L26 24.5ZM24 24L24 22L21 22L21 24L24 24Z"/>
<path fill-rule="evenodd" clip-rule="evenodd" d="M26 11.5C26 10.6716 25.3284 10 24.5 10L20.5 10C19.6716 10 19 10.6716 19 11.5L19 17.5C19 18.3284 19.6716 19 20.5 19L24.5 19C25.3284 19 26 18.3284 26 17.5L26 11.5ZM24 12L24 17L21 17L21 12L24 12Z"/>
</svg>
