<?xml version="1.0" encoding="UTF-8" standalone="no"?>
<svg xmlns="http://www.w3.org/2000/svg"
     x="0px"
     y="0px"
     viewBox="0 0 607.09767 479.34181">

  <g transform="translate(-48.650391,-8.9589844)">
    <g>
      <g transform="translate(48.650391,8.9589844)">
        <path
          d="M 38.599609,76.441406 C 13.533802,75.614703 -3.7688995,101.00399 0,124.4068 0.13269517,231.16415 -0.265586,337.93492 0.19948291,444.68388 1.8908155,469.05641 27.133739,482.74108 49.52635,479.3418 c 73.33729,-0.13267 146.688,0.26557 220.01688,-0.1995 24.37275,-1.69221 38.0547,-26.93669 34.65599,-49.32881 -0.14438,-106.23672 0.28898,-212.48932 -0.21706,-318.7161 -1.77728,-24.312312 -26.91323,-38.062868 -49.30929,-34.655984 -72.02442,0 -144.04884,0 -216.073261,0 z M 221.39648,103.38867 c 16.17098,0.68614 32.58875,-1.1396 48.61596,0.96514 12.02282,8.21008 5.34727,24.7953 7.08717,37.22354 0,99.68774 0,199.37549 0,299.06323 -2.61771,17.19388 -22.87983,10.11702 -35.01405,11.59961 -67.86186,0 -135.72371,0 -203.58556,0 -17.193879,-2.6177 -10.117019,-22.87983 -11.599609,-35.01405 0,-100.72839 0,-201.45677 0,-302.18516 2.617711,-17.193875 22.879828,-10.11702 35.014053,-11.59961 53.159886,-0.0353 106.326016,0.0704 159.482036,-0.0527 z"
        />
        <path
          d="M 38.599609,75.941406 C 13.276969,75.109858 -4.2939577,100.73366 -0.5,124.4068 -0.36556302,231.18087 -0.76908194,337.96855 -0.29787651,444.73411 1.4147238,469.34418 26.880785,483.26893 49.52635,479.8418 c 73.35401,-0.1344 146.72163,0.26905 220.06712,-0.20215 24.61028,-1.71346 38.53231,-27.18109 35.10575,-49.82616 -0.14625,-106.25401 0.29274,-212.52412 -0.2199,-318.76805 -1.79915,-24.549529 -27.15804,-38.538416 -49.80645,-35.104034 -72.02442,0 -144.04884,0 -216.073261,0 z m 0,1 c 76.956881,0.130973 153.927061,-0.262124 230.875621,0.19685 24.08051,1.718779 37.5629,26.707024 34.22399,48.831454 -0.13095,106.21966 0.26209,212.45256 -0.19684,318.66394 -1.67013,24.13503 -26.68995,37.57921 -48.82951,34.20815 C 181.3523,478.71086 108.0185,479.10389 34.706221,478.64494 10.570975,476.97394 -2.8704764,451.95256 0.5,429.81349 0.6309498,323.59318 0.23791482,217.35964 0.69684201,111.14762 2.2785299,92.20435 19.580109,76.566338 38.599609,76.941406 Z M 221.38867,102.88867 c -60.95816,0.12277 -121.926562,0.0178 -182.88867,0.0527 -17.651809,2.50217 -10.693068,23.12901 -12.099609,35.51405 0,100.72839 0,201.45677 0,302.18516 2.502153,17.65182 23.129009,10.69307 35.514053,12.09961 67.861856,0 135.723706,0 203.585556,0 17.65181,-2.50217 10.69307,-23.12901 12.09961,-35.51405 0,-100.72839 0,-201.45677 0,-302.18516 -2.50217,-17.65181 -23.12901,-10.69307 -35.51405,-12.09961 -6.89709,-0.0389 -13.80685,0.0753 -20.69689,-0.0527 z m 0.0137,1.00195 c 16.10122,0.66116 32.44991,-1.09509 48.41773,0.92319 11.64616,8.19423 5.03056,24.517 6.77954,36.76358 0,99.68774 0,199.37549 0,299.06323 -2.73663,16.72387 -22.62891,9.54389 -34.51405,11.09961 -67.86186,0 -135.72371,0 -203.58556,0 -16.723873,-2.73662 -9.543883,-22.62891 -11.099609,-34.51405 0,-100.72839 0,-201.45677 0,-302.18516 2.736636,-16.723869 22.628911,-9.54389 34.514053,-11.09961 53.162466,-0.0345 106.326116,0.0685 159.487896,-0.0508 z"
        />
      </g>
      <g>
        <path
          d="m 459.79102,394.16406 c -0.10091,0.26042 -0.10091,0.26042 0,0 z"
        />
        <path
          d="m 459.41602,393.83203 c -1.47144,2.63126 2.57714,0.6716 0,0 z"
        />
      </g>
    </g>
  </g>

  <g transform="translate(157.82492,-82.091682)">
    <g>
      <path
        transform="translate(-157.82492,82.091682)"
        d="m 467.49805,2.796875 c -2.12629,0.023234 -4.24998,0.1923234 -6.34961,0.5117188 H 245.07422 c -25.06581,-0.826703 -42.36851,24.5620332 -38.59961,47.9648442 0.0118,9.451549 0.009,18.90354 0.008,28.355468 h 5.85938 11.06054 3.55469 0.86914 c 0.0263,0 0.0666,-0.01295 0.0996,-0.01953 0.033,-0.0066 0.0589,-0.0068 0.0586,0.01953 -3e-5,0.0013 1e-5,0.0026 0,0.0039 0.26446,2.46e-4 0.502,0.0031 0.75195,0.0039 1.32229,-0.03005 2.90378,-0.02858 4.63867,-0.02148 V 41.908203 c 2.61771,-17.19387 22.88139,-10.117019 35.01562,-11.599609 53.15988,-0.0353 106.32445,0.07034 159.48047,-0.05273 16.17098,0.68614 32.58998,-1.139896 48.61719,0.964844 12.02282,8.21008 5.34604,24.796369 7.08594,37.224609 V 367.50781 c -2.61771,17.19388 -22.87945,10.11702 -35.01367,11.59961 H 293.57422 c 0.009,2.0503 0.006,3.95284 -0.0234,5.44727 -0.0304,1.53561 1.24795,4.54861 -0.28711,4.59961 l -0.0586,0.002 c 0.0287,3.2055 0.0448,6.41155 0.041,9.61719 0.0747,0.4164 0.0191,0.84939 0,1.27734 -0.002,0.62443 0.003,1.24863 -0.002,1.87305 -2.08258,-0.0376 -4.16507,-0.0647 -6.24805,-0.0918 0.158,1.30635 0.60368,2.88067 0.95313,4.36524 62.69081,-0.007 125.38716,0.21004 188.06836,-0.1875 24.37275,-1.69221 38.05496,-26.93601 34.65625,-49.32813 -0.14438,-106.23672 0.28924,-212.49002 -0.2168,-318.716796 C 508.84609,15.931975 488.05217,2.5722755 467.49805,2.796875 Z"
      />
      <path
        d="m 459.79102,394.16406 c -0.10091,0.26042 -0.10091,0.26042 0,0 z"
      />
    </g>
  </g>
</svg>
