<svg width="18" height="18" viewBox="0 0 18 18" fill="none" xmlns="http://www.w3.org/2000/svg">
<path d="M0.315325 15.7858C-0.0872071 16.164 -0.106984 16.7968 0.271152 17.1994C0.649288 17.6019 1.28214 17.6217 1.68468 17.2435L0.315325 15.7858ZM17.6847 2.21322C18.0872 1.83509 18.107 1.20223 17.7288 0.7997C17.3507 0.397168 16.7179 0.377391 16.3153 0.755527L17.6847 2.21322ZM1.68468 17.2435L17.6847 2.21322L16.3153 0.755527L0.315325 15.7858L1.68468 17.2435Z" fill="#BF0000"/>
<path d="M2.21417 0.315324C1.83603 -0.0872077 1.20318 -0.106985 0.800647 0.271151C0.398115 0.649287 0.378338 1.28214 0.756474 1.68467L2.21417 0.315324ZM15.7868 17.6847C16.1649 18.0872 16.7978 18.107 17.2003 17.7288C17.6028 17.3507 17.6226 16.7179 17.2445 16.3153L15.7868 17.6847ZM0.756474 1.68467L15.7868 17.6847L17.2445 16.3153L2.21417 0.315324L0.756474 1.68467Z" fill="#BF0000"/>
</svg>
