<svg width="48" height="48" viewBox="0 0 48 48" xmlns="http://www.w3.org/2000/svg">
<path fill-rule="evenodd" clip-rule="evenodd" d="M23.7096 17.116L16.1024 25.3204C15.879 25.5801 16.0436 26 16.3787 26H18.0533L18.0532 30.5801C18.0532 30.7901 18.2766 31 18.5 31H22V27.9724C22 25.674 26 25.3204 26 27.9724V31H29.612C29.8354 31 30 30.7901 30 30.5801V26H31.599C31.9282 26 32.1516 25.5801 31.8753 25.3204L31.5784 25.0003L24.268 17.116C24.1564 16.9613 23.88 16.9613 23.7096 17.116ZM23.9888 18.2856L17.7632 25H19.0533L19.0532 30H21V27.9724C21 26.0989 22.6331 25.1755 23.9558 25.117C24.6485 25.0864 25.4031 25.2661 26.0046 25.7534C26.6327 26.2625 27 27.0329 27 27.9724V30H29V25H30.2144L23.9888 18.2856Z"/>
</svg>
