<svg width="18" height="18" viewBox="0 0 18 18" xmlns="http://www.w3.org/2000/svg">
  <path
    fill-rule="evenodd"
    d="M17.5 1C17.5 0.723858 17.2761 0.5 17 0.5H12.5C12.2239 0.5 12 0.723858 12 1C12 1.27614 12.2239 1.5 12.5 1.5H16.5V5.5C16.5 5.77614 16.7239 6 17 6C17.2761 6 17.5 5.77614 17.5 5.5V1ZM11.3536 7.35355L17.3536 1.35355L16.6464 0.646447L10.6464 6.64645L11.3536 7.35355Z"
  />
  <path
    fill-rule="evenodd"
    d="M0.5 17C0.5 17.2761 0.723857 17.5 1 17.5L5.5 17.5C5.77614 17.5 6 17.2761 6 17C6 16.7239 5.77614 16.5 5.5 16.5L1.5 16.5L1.5 12.5C1.5 12.2239 1.27614 12 1 12C0.723858 12 0.5 12.2239 0.5 12.5L0.5 17ZM6.64645 10.6464L0.646447 16.6464L1.35355 17.3536L7.35355 11.3536L6.64645 10.6464Z"
  />
</svg>
