<svg width="48" height="48" viewBox="0 0 48 48" xmlns="http://www.w3.org/2000/svg">
<path fill-rule="evenodd" clip-rule="evenodd" d="M25.4695 20.9775L24 18L22.5306 20.9775L19.2448 21.4549L21.6224 23.7725L21.0611 27.0451L24 25.5L26.939 27.0451L26.3777 23.7725L28.7553 21.4549L25.4695 20.9775ZM26.6064 22.1532L25.3257 21.9671C25 21.9197 24.7184 21.7152 24.5728 21.42L24 20.2596L23.4273 21.42C23.2816 21.7152 23.0001 21.9197 22.6744 21.9671L21.3937 22.1532L22.3204 23.0565C22.5561 23.2862 22.6636 23.6172 22.608 23.9416L22.3892 25.2171L23.5347 24.6149C23.826 24.4617 24.1741 24.4617 24.4654 24.6149L25.6108 25.2171L25.3921 23.9416C25.3364 23.6172 25.444 23.2862 25.6797 23.0565L26.6064 22.1532Z"/>
<path fill-rule="evenodd" clip-rule="evenodd" d="M24 27.2433L31 30.4433V17H17L17 30.4433L24 27.2433ZM24 28.3429L30.5842 31.3528C31.2465 31.6556 32 31.1715 32 30.4433V17C32 16.4477 31.5523 16 31 16H17C16.4477 16 16 16.4477 16 17V30.4433C16 31.1715 16.7535 31.6556 17.4158 31.3528L24 28.3429Z"/>
</svg>
