<svg width="24" height="24" viewBox="0 0 24 24" xmlns="http://www.w3.org/2000/svg">
  <path
    d="M 11.289193,18 H 13 V 16 H 11.347032 Z M 12,2 C 6.48,2 2,6.48 2,12 2,17.52 6.48,22 12,22 17.52,22 22,17.52 22,12 22,6.48 17.52,2 12,2 Z m 0.07212,18.829258 c -4.4100013,0 -8.8383062,-4.351661 -8.8383062,-8.761661 C 3.2338158,7.6575968 7.59,3.1902592 12,3.1902592 c 4.41,0 8.863056,4.3659424 8.863056,8.7759428 0,4.41 -4.380935,8.863056 -8.790934,8.863056 z M 12.067597,5.9662016 C 9.8575968,5.9662016 8,7.79 8,10 L 9.537291,9.942161 c 0,-1.1 1.396507,-2.371072 2.496507,-2.371072 1.1,0 2.395112,0.9721207 2.395112,2.0721207 C 14.42891,11.643211 11.347032,11.75 11.347032,15 H 13 c 0,-2.25 3,-2.5 3,-5 0,-2.21 -1.722403,-4.0337984 -3.932403,-4.0337984 z" />
</svg>

