<svg viewBox="0 0 21 20" 
    xmlns="http://www.w3.org/2000/svg">
    <path d="M12.6573 14.6991C12.6037 14.9221 12.5586 15.1197 12.505 15.3121C12.49 15.3512 12.4582 15.3836 12.4197 15.3989C11.8742 15.5862 11.3353 15.8144 10.7764 15.9404C10.2928 16.0494 9.78749 16.0051 9.33067 15.8127C8.72324 15.5624 8.34506 14.9426 8.39359 14.2785C8.42705 13.5002 8.69312 12.7799 8.88053 12.0392C9.03281 11.4398 9.19847 10.8302 9.32899 10.2206C9.35911 10.006 9.35744 9.78803 9.3223 9.57347C9.29887 9.34359 9.14827 9.21417 8.92739 9.1716C8.5559 9.09667 8.16936 9.13414 7.81795 9.27888C7.76273 9.30102 7.70082 9.30953 7.61548 9.33337C7.66568 9.1154 7.70584 8.92468 7.75939 8.73396C7.77947 8.68288 7.81963 8.64201 7.86983 8.62158C8.45885 8.39169 9.03448 8.14137 9.66534 8.06304C10.0602 8.01025 10.4602 8.05112 10.8367 8.18224C11.5261 8.42234 11.8909 9.05751 11.844 9.79825C11.7938 10.6275 11.4993 11.3921 11.3052 12.1822C11.1647 12.7578 11.0291 13.3351 10.8986 13.914C10.8802 14.0145 10.8735 14.1167 10.8802 14.2189C10.8902 14.6582 11.0659 14.8676 11.4926 14.8762C11.7905 14.8676 12.0884 14.8353 12.3812 14.7791C12.4766 14.7604 12.5686 14.7331 12.6573 14.6991Z"/>
    <path d="M11.3689 4C12.157 4.01533 12.7427 4.55002 12.8113 5.31971C12.8615 5.85781 12.5352 6.3874 11.9981 6.64623C11.2634 7.00043 10.3364 6.6854 9.99337 5.96509C9.55998 5.04215 10.2979 3.98127 11.3689 4Z"/>
</svg>
