<?xml version="1.0" encoding="UTF-8" standalone="no"?>
<svg
  xmlns="http://www.w3.org/2000/svg"
  width="192"
  height="48"
  viewBox="0 0 144 36.000001"
  preserveAspectRatio="xMidYMid meet"
  id="svg64">
  <defs
    id="defs68">
    <clipPath
      clipPathUnits="userSpaceOnUse"
      id="clipPath18">
      <path
        d="M 0,0 H 213.868 V 213.868 H 0 Z"
        id="path16" />
    </clipPath>
    <clipPath
      clipPathUnits="userSpaceOnUse"
      id="clipPath46">
      <path
        d="M 0,0 H 213.868 V 213.868 H 0 Z"
        id="path44-2" />
    </clipPath>
    <clipPath
      id="clipPath18-9"
      clipPathUnits="userSpaceOnUse">
      <path
        id="path16-0"
        d="M 0,0 H 213.868 V 213.868 H 0 Z" />
    </clipPath>
    <clipPath
      id="clipPath46-2"
      clipPathUnits="userSpaceOnUse">
      <path
        id="path44-2-3"
        d="M 0,0 H 213.868 V 213.868 H 0 Z" />
    </clipPath>
  </defs>
  <g
    transform="matrix(0.01384331,0,0,-0.01384331,13.894811,35.534941)"
    fill="#ffffff"
    stroke="none"
    id="g62">
    <path
      d="M 2730,1285 V 960 h 45 45 v 112 113 l 113,-113 112,-112 h 65 65 l -128,128 -127,127 112,113 113,112 h -60 -60 l -102,-102 -103,-103 v 188 187 h -45 -45 z"
      id="path28" />
    <path
      d="m 4600,1505 c 0,-58 -2,-105 -5,-105 -3,0 -25,10 -48,22 -58,30 -156,30 -213,0 -168,-87 -179,-328 -20,-427 40,-24 62,-30 120,-33 61,-3 78,0 119,22 l 47,25 v -24 c 0,-23 4,-25 45,-25 h 45 v 325 325 h -45 -45 z m -90,-167 c 33,-17 51,-35 68,-68 27,-55 28,-82 1,-137 -51,-106 -207,-112 -269,-11 -44,73 -14,179 62,217 55,27 83,27 138,-1 z"
      id="path30" />
    <path
      d="m 3750,1500 v -60 h -35 c -35,0 -35,0 -35,-45 0,-45 0,-45 35,-45 h 35 v -150 -149 l 31,-35 c 34,-39 79,-56 152,-56 h 47 v 45 45 h -48 c -27,0 -57,7 -70,16 -21,14 -22,22 -22,150 v 134 h 70 70 v 45 45 h -70 -70 v 60 60 h -45 -45 z"
      id="path32" />
    <path
      d="m 5330,1500 v -60 h -35 c -35,0 -35,0 -35,-45 0,-45 0,-45 35,-45 h 35 v -150 -149 l 31,-35 c 34,-39 79,-56 152,-56 h 47 v 45 45 h -48 c -27,0 -57,7 -70,16 -21,14 -22,22 -22,150 v 134 h 70 70 v 45 45 h -70 -70 v 60 60 h -45 -45 z"
      id="path34" />
    <path
      d="m 1317,1435 c -22,-7 -50,-24 -64,-37 -47,-42 -53,-74 -53,-263 V 960 h 45 45 v 171 171 l 29,29 c 33,32 58,36 100,14 42,-21 51,-61 51,-231 V 960 h 45 45 v 174 174 l 31,26 c 35,30 58,32 98,11 42,-21 51,-61 51,-231 V 960 h 46 46 l -4,178 c -4,194 -9,216 -68,266 -63,52 -148,56 -217,9 -35,-24 -36,-24 -57,-5 -20,19 -85,42 -116,42 -8,-1 -32,-7 -53,-15 z"
      id="path36" />
    <path
      d="m 2032,1431 c -191,-67 -220,-329 -48,-435 66,-41 161,-48 231,-17 58,26 55,25 55,1 0,-17 7,-20 45,-20 h 45 v 138 c 0,157 -8,195 -53,254 -62,81 -177,114 -275,79 z m 167,-99 c 68,-50 88,-129 52,-201 -40,-78 -123,-107 -199,-69 -106,52 -125,176 -39,256 47,44 135,51 186,14 z"
      id="path38" />
    <path
      d="m 3310,1431 c -67,-24 -134,-92 -151,-154 -42,-158 59,-305 217,-315 87,-6 141,16 197,78 39,43 67,106 67,149 0,6 -20,11 -44,11 -39,0 -44,-3 -49,-27 -16,-76 -76,-125 -152,-125 -47,0 -113,28 -99,42 5,5 79,49 164,98 85,50 156,96 158,105 5,24 -61,100 -108,124 -65,33 -133,38 -200,14 z m 149,-91 c 24,-11 42,-22 40,-24 -6,-6 -250,-146 -255,-146 -2,0 -4,16 -4,35 0,79 72,153 150,154 14,0 45,-8 69,-19 z"
      id="path40" />
    <path
      d="m 4892,1431 c -191,-67 -220,-329 -48,-435 66,-41 161,-48 231,-17 58,26 55,25 55,1 0,-17 7,-20 45,-20 h 45 v 138 c 0,157 -8,195 -53,254 -62,81 -177,114 -275,79 z m 167,-99 c 68,-50 88,-129 52,-201 -40,-78 -123,-107 -199,-69 -106,52 -125,176 -39,256 47,44 135,51 186,14 z"
      id="path42" />
    <path
      d="m 5752,1431 c -191,-67 -220,-329 -48,-435 66,-41 161,-48 231,-17 58,26 55,25 55,1 0,-17 7,-20 45,-20 h 45 v 138 c 0,157 -8,195 -53,254 -62,81 -177,114 -275,79 z m 167,-99 c 68,-50 88,-129 52,-201 -40,-78 -123,-107 -199,-69 -106,52 -125,176 -39,256 47,44 135,51 186,14 z"
      id="path44" />
    <path
      d="m 2530,1429 c -32,-13 -78,-56 -96,-91 -10,-20 -14,-71 -14,-203 V 960 h 45 45 v 170 c 0,168 0,171 25,195 20,21 34,25 85,25 h 60 v 45 45 l -62,-1 c -35,0 -74,-5 -88,-10 z"
      id="path46" />
    <path
      d="m 2770,785 c 0,-20 5,-25 25,-25 20,0 25,5 25,25 0,20 -5,25 -25,25 -20,0 -25,-5 -25,-25 z"
      id="path48" />
    <path
      d="m 1360,685 c -126,-40 -196,-175 -159,-309 13,-48 82,-123 134,-147 53,-25 147,-24 200,0 54,25 111,86 130,140 22,63 20,81 -10,81 -19,0 -25,-5 -25,-22 0,-37 -42,-100 -86,-131 -48,-34 -115,-45 -167,-28 -38,13 -87,47 -87,61 0,4 83,57 185,116 l 184,108 -17,29 c -26,44 -81,86 -136,102 -60,18 -87,18 -146,0 z m 145,-54 c 39,-18 83,-57 74,-66 -3,-2 -77,-45 -164,-94 l -160,-90 -8,27 c -4,15 -5,44 -2,65 20,135 145,211 260,158 z"
      id="path50" />
    <path
      d="m 1880,685 c -53,-17 -116,-74 -141,-130 -15,-33 -19,-66 -19,-192 V 210 h 25 25 v 145 c 0,157 9,193 62,242 26,25 88,53 115,53 68,0 141,-47 173,-111 17,-33 20,-59 20,-184 V 210 h 25 25 v 143 c 0,180 -8,208 -75,273 -42,41 -63,54 -104,63 -64,14 -74,13 -131,-4 z"
      id="path52" />
    <path
      d="m 2390,685 c -206,-66 -229,-354 -37,-450 88,-43 191,-33 263,28 18,15 35,27 38,27 14,0 4,-97 -14,-135 -29,-61 -61,-75 -169,-75 -90,0 -91,0 -91,-25 0,-25 0,-25 96,-25 113,0 156,18 201,83 27,39 28,45 31,198 4,180 -7,240 -58,301 -57,69 -171,102 -260,73 z m 174,-69 c 98,-58 121,-188 49,-284 -59,-79 -185,-96 -260,-35 -52,42 -83,98 -83,153 1,154 160,244 294,166 z"
      id="path54" />
    <path
      d="m 3050,685 c -53,-17 -116,-74 -141,-130 -15,-33 -19,-66 -19,-192 V 210 h 25 25 v 145 c 0,157 9,193 62,242 26,25 88,53 115,53 68,0 141,-47 173,-111 17,-33 20,-59 20,-184 V 210 h 25 25 v 143 c 0,180 -8,208 -75,273 -42,41 -63,54 -104,63 -64,14 -74,13 -131,-4 z"
      id="path56" />
    <path
      d="m 3570,685 c -126,-40 -196,-175 -159,-309 13,-48 82,-123 134,-147 53,-25 147,-24 200,0 54,25 111,86 130,140 22,63 20,81 -10,81 -19,0 -25,-5 -25,-22 0,-37 -42,-100 -86,-131 -48,-34 -115,-45 -167,-28 -38,13 -87,47 -87,61 0,4 83,57 185,116 l 184,108 -17,29 c -26,44 -81,86 -136,102 -60,18 -87,18 -146,0 z m 145,-54 c 39,-18 83,-57 74,-66 -3,-2 -77,-45 -164,-94 l -160,-90 -8,27 c -4,15 -5,44 -2,65 20,135 145,211 260,158 z"
      id="path58" />
    <path
      d="M 2770,450 V 210 h 25 25 v 240 240 h -25 -25 z"
      id="path60" />
  </g>
</svg>
