<svg width="23" height="23" viewBox="0 0 23 23" xmlns="http://www.w3.org/2000/svg">
  <path
    d="M11.5 0C5.14193 0 0 5.14193 0 11.5C0 17.8581 5.14193 23 11.5 23C17.8581 23 23 17.8581 23 11.5C23 5.14193 17.8367 0 11.5 0ZM9.89981 4.69388C9.49443 5.22727 9.11039 5.80334 8.81169 6.42208C8.61967 6.80612 8.44898 7.2115 8.27829 7.61688C8.00093 7.53154 7.7449 7.42486 7.48887 7.31818C7.10482 7.14749 6.74211 6.97681 6.37941 6.76345C7.29684 5.76067 8.51299 5.03525 9.89981 4.69388ZM5.82467 7.40352C6.29406 7.68089 6.76345 7.91558 7.27551 8.12894C7.5102 8.23562 7.76623 8.32096 8.02226 8.40631C7.91558 8.76902 7.83024 9.15306 7.76623 9.51577C7.68089 10.0278 7.61688 10.5399 7.59555 11.0733H4.52319C4.60853 9.70779 5.07792 8.44898 5.82467 7.40352ZM4.52319 11.9054H7.57421C7.59555 12.3108 7.61688 12.7161 7.68089 13.1215C7.7449 13.6122 7.85158 14.103 8.00093 14.5937C7.57421 14.7217 7.16883 14.8924 6.76345 15.0844C6.44341 15.2338 6.12338 15.4045 5.82467 15.5751C5.07792 14.5297 4.60853 13.2709 4.52319 11.9054ZM6.37941 16.2152C6.65677 16.0445 6.95547 15.8952 7.25417 15.7672C7.59555 15.6178 7.93692 15.4898 8.27829 15.3618C8.40631 15.7032 8.55566 16.0445 8.70501 16.3646C9.02505 17.026 9.43043 17.666 9.87848 18.2634C8.51299 17.9647 7.29684 17.218 6.37941 16.2152ZM11.0733 18.3915C10.3905 17.6447 9.83581 16.8126 9.40909 15.8952C9.28107 15.6391 9.1744 15.4045 9.08905 15.1271C9.36642 15.0631 9.64378 14.9991 9.92115 14.9564C10.2412 14.9137 10.5612 14.8711 10.9026 14.8497C10.9666 14.8497 11.0306 14.8497 11.0733 14.8497V18.3915ZM11.0733 14.039C10.9453 14.039 10.8173 14.039 10.7106 14.0603C10.3692 14.0816 10.0065 14.1243 9.66512 14.1883C9.38775 14.231 9.11039 14.295 8.83302 14.359C8.68367 13.8683 8.59833 13.3776 8.51299 12.8868C8.47032 12.5668 8.44898 12.2468 8.42764 11.9267H11.0733V14.039ZM11.0733 11.0733H8.42764C8.44898 10.5399 8.51299 10.0065 8.61967 9.4731C8.68367 9.19573 8.74768 8.89703 8.83302 8.61967C9.02505 8.66234 9.21707 8.70501 9.38775 8.74768C9.94248 8.85436 10.5186 8.91837 11.0733 8.9397V11.0733ZM11.0733 8.10761C10.5399 8.08627 10.0065 8.02226 9.4731 7.91558C9.34508 7.89425 9.21707 7.85158 9.08905 7.83024C9.2384 7.4462 9.40909 7.06215 9.60111 6.67811C10.0065 5.91002 10.4972 5.20594 11.0733 4.56586V8.10761ZM16.6206 6.76345C16.2365 6.99814 15.8098 7.19017 15.4045 7.36085C15.1698 7.4462 14.9564 7.53154 14.7217 7.61688C14.5724 7.2115 14.4017 6.80612 14.1883 6.42208C13.8683 5.82468 13.5056 5.24861 13.1002 4.69388C14.4657 5.03525 15.6818 5.76067 16.6206 6.76345ZM11.9054 4.5872C12.5455 5.29128 13.0788 6.05937 13.4842 6.9128C13.6336 7.2115 13.7616 7.53154 13.8896 7.83024C13.7189 7.87291 13.5482 7.91558 13.3776 7.93692C12.8868 8.02226 12.3961 8.08627 11.9054 8.10761V4.5872ZM11.9054 8.9397C12.5028 8.91837 13.0788 8.85436 13.6549 8.72635C13.8256 8.68367 13.9963 8.66234 14.1456 8.61967C14.2523 8.96104 14.3163 9.30241 14.3803 9.66512C14.4657 10.1345 14.5083 10.6039 14.5297 11.0733H11.9054V8.9397ZM11.9054 11.9054H14.551C14.5297 12.2681 14.5083 12.6308 14.4443 12.9935C14.3803 13.4416 14.2737 13.9109 14.1456 14.3377C13.8256 14.2523 13.5056 14.1883 13.1642 14.1456C12.8228 14.103 12.4601 14.0603 12.1187 14.039C12.0334 14.039 11.9694 14.039 11.884 14.039V11.9054H11.9054ZM11.9054 14.8711C12.0121 14.8711 12.1187 14.8711 12.2254 14.8924C12.5455 14.9137 12.8655 14.9564 13.1855 14.9991C13.4202 15.0417 13.6549 15.0844 13.8896 15.1484C13.7829 15.4471 13.6549 15.7245 13.5056 16.0232C13.0788 16.898 12.5455 17.6874 11.884 18.4128V14.8711H11.9054ZM13.1002 18.2848C13.5909 17.666 13.9963 16.9833 14.3377 16.2579C14.4657 15.9592 14.5937 15.6818 14.7217 15.3618C15.1058 15.4898 15.4898 15.6391 15.8738 15.8098C16.1299 15.9378 16.3859 16.0659 16.6419 16.2152C15.6818 17.218 14.4657 17.9647 13.1002 18.2848ZM17.154 15.5751C16.8126 15.3618 16.4499 15.1911 16.0872 15.0204C15.7245 14.8497 15.3618 14.7217 14.9777 14.5937C15.1271 14.0603 15.2338 13.5269 15.3191 12.9935C15.3618 12.6308 15.4045 12.2894 15.4045 11.9267H18.4555C18.3701 13.2709 17.9007 14.5297 17.154 15.5751ZM15.3831 11.0733C15.3618 10.4972 15.2978 9.94248 15.1911 9.38775C15.1271 9.06772 15.0417 8.72635 14.9564 8.40631C15.2551 8.32096 15.5325 8.19295 15.8098 8.08627C16.2579 7.89425 16.7059 7.68089 17.1327 7.42486C17.8794 8.47031 18.3488 9.72913 18.4341 11.0946H15.3831V11.0733Z"
  />
</svg>
