<?xml version="1.0" encoding="UTF-8" standalone="no"?>
<svg
  xmlns="http://www.w3.org/2000/svg"
  id="svg64"
  preserveAspectRatio="xMidYMid meet"
  viewBox="0 0 17.25 17.25"
  height="23"
  width="23">
  <defs
    id="defs68">
    <clipPath
      id="clipPath18"
      clipPathUnits="userSpaceOnUse">
      <path
        id="path16"
        d="M 0,0 H 213.868 V 213.868 H 0 Z" />
    </clipPath>
    <clipPath
      id="clipPath46"
      clipPathUnits="userSpaceOnUse">
      <path
        id="path44-2"
        d="M 0,0 H 213.868 V 213.868 H 0 Z" />
    </clipPath>
  </defs>
  <g
    transform="matrix(0.08095798,0,0,-0.07995735,-0.0148514,17.193865)"
    id="g10">
    <g
      id="g12">
      <g
        clip-path="url(#clipPath18)"
        id="g14">
        <g
          transform="translate(106.9282,1.2746)"
          id="g20">
          <path
            id="path22"
            style="fill:#fab900;fill-opacity:1;fill-rule:nonzero;stroke:none"
            d="m 0,0 c -58.259,0 -105.652,47.397 -105.652,105.652 0,58.27 47.393,105.667 105.652,105.667 58.259,0 105.663,-47.397 105.663,-105.667 C 105.663,47.397 58.259,0 0,0" />
        </g>
        <g
          transform="translate(106.9282,1.2746)"
          id="g24">
          <path
            id="path26"
            style="fill:none;stroke:#fab900;stroke-width:0.692;stroke-linecap:butt;stroke-linejoin:miter;stroke-miterlimit:10;stroke-dasharray:none;stroke-opacity:1"
            d="m 0,0 c -58.259,0 -105.652,47.397 -105.652,105.652 0,58.27 47.393,105.667 105.652,105.667 58.259,0 105.663,-47.397 105.663,-105.667 C 105.663,47.397 58.259,0 0,0 Z" />
        </g>
        <g
          transform="translate(106.9296,33.1134)"
          id="g28">
          <path
            id="path30-7"
            style="fill:#3b3b3b;fill-opacity:1;fill-rule:nonzero;stroke:none"
            d="m 0,0 c -40.702,0 -73.816,33.115 -73.816,73.816 0,40.709 33.114,73.824 73.816,73.824 40.702,0 73.823,-33.115 73.823,-73.824 C 73.823,33.115 40.702,0 0,0" />
        </g>
        <g
          transform="translate(106.9316,176.466)"
          id="g32">
          <path
            id="path34-3"
            style="fill:#fab900;fill-opacity:1;fill-rule:nonzero;stroke:none"
            d="m 0,0 c -38.256,0 -69.382,-31.192 -69.382,-69.533 0,-38.341 31.126,-69.532 69.382,-69.532 38.259,0 69.385,31.191 69.385,69.532 C 69.385,-31.192 38.259,0 0,0 m -58.38,-73.455 h 22.315 c 0.276,-8.677 1.466,-16.843 3.411,-24.202 h -18.692 c -3.981,7.271 -6.456,15.48 -7.034,24.202 m 62.295,39.891 v 20.22 c 7.049,-2.059 13.358,-9.547 17.789,-20.22 z m 20.533,-7.845 c 2.125,-7.266 3.466,-15.498 3.779,-24.201 H 3.915 v 24.201 z m -28.363,28.065 v -20.22 h -17.79 c 4.435,10.673 10.74,18.161 17.79,20.22 m 0,-28.065 V -65.61 h -24.309 c 0.313,8.703 1.654,16.935 3.779,24.201 z M -36.065,-65.61 H -58.38 c 0.578,8.721 3.053,16.927 7.034,24.201 h 18.692 c -1.945,-7.362 -3.135,-15.528 -3.411,-24.201 m 7.841,-7.845 h 24.309 v -24.202 h -20.53 c -2.125,7.263 -3.466,15.495 -3.779,24.202 m 24.309,-32.05 v -20.217 c -7.05,2.059 -13.355,9.547 -17.786,20.217 z m 7.83,-20.217 v 20.217 h 17.789 c -4.434,-10.674 -10.74,-18.162 -17.789,-20.217 m 0,28.065 v 24.202 h 24.312 c -0.313,-8.707 -1.654,-16.939 -3.779,-24.202 z m 32.153,24.202 h 22.316 c -0.575,-8.722 -3.053,-16.931 -7.035,-24.202 H 32.658 c 1.944,7.359 3.134,15.525 3.41,24.202 m 0,7.845 c -0.276,8.673 -1.466,16.839 -3.41,24.201 h 18.691 c 3.982,-7.274 6.46,-15.48 7.035,-24.201 z m 10.114,32.046 H 30.19 c -2.95,7.996 -6.873,14.695 -11.491,19.598 10.979,-3.72 20.503,-10.615 27.483,-19.598 m -64.877,19.601 c -4.619,-4.906 -8.541,-11.605 -11.492,-19.601 h -15.991 c 6.979,8.983 16.503,15.881 27.483,19.601 m -27.483,-91.542 h 15.995 c 2.947,-7.996 6.869,-14.692 11.488,-19.598 -10.98,3.724 -20.5,10.619 -27.483,19.598 m 64.877,-19.594 c 4.618,4.902 8.541,11.601 11.487,19.594 h 15.996 c -6.983,-8.979 -16.504,-15.874 -27.483,-19.594" />
        </g>
      </g>
    </g>
    <g
      transform="translate(158.3232,45.2448)"
      id="g36">
      <path
        id="path38-7"
        style="fill:#3b3b3b;fill-opacity:1;fill-rule:nonzero;stroke:none"
        d="M 0,0 14.36,-14.611 24.739,-4.413 10.379,10.198 Z" />
    </g>
    <g
      id="g40">
      <g
        clip-path="url(#clipPath46)"
        id="g42">
        <g
          transform="translate(106.9301,37.3332)"
          id="g48">
          <path
            id="path50-9"
            style="fill:none;stroke:#3b3b3b;stroke-width:3;stroke-linecap:butt;stroke-linejoin:miter;stroke-miterlimit:10;stroke-dasharray:none;stroke-opacity:1"
            d="m 0,0 c -38.377,0 -69.595,31.221 -69.595,69.595 0,38.385 31.218,69.606 69.595,69.606 38.377,0 69.603,-31.221 69.603,-69.606 C 69.603,31.221 38.377,0 0,0 Z" />
        </g>
      </g>
    </g>
  </g>
</svg>
