<svg width="48" height="48" viewBox="0 0 48 48" xmlns="http://www.w3.org/2000/svg">
<path fill-rule="evenodd" clip-rule="evenodd" d="M25.1436 26.3572C24.4473 25.8077 24.0004 24.9563 24.0004 24.0005C24.0004 22.3433 25.3438 21 27.0009 21C28.658 21 30.0013 22.3433 30.0013 24.0005C30.0013 24.9562 29.5544 25.8076 28.8582 26.3571C30.6747 27.0841 31.9653 28.846 32.001 30.9136C30.4788 31.6121 28.7854 32.0015 27.001 32.0015C25.2166 32.0015 23.5231 31.6121 22.001 30.9136C22.0367 28.846 23.3272 27.0842 25.1436 26.3572ZM26.9933 26.0009C26.9958 26.0009 26.9984 26.0009 27.001 26.0009C27.0035 26.0009 27.006 26.0009 27.0085 26.0009C28.1098 25.9968 29.0013 25.1027 29.0013 24.0005C29.0013 22.8956 28.1057 22 27.0009 22C25.896 22 25.0004 22.8956 25.0004 24.0005C25.0004 25.1027 25.8919 25.9968 26.9933 26.0009ZM26.9925 27.0009C25.0342 27.0049 23.406 28.4162 23.0656 30.2771C24.2865 30.7449 25.6128 31.0015 27.001 31.0015C28.3891 31.0015 29.7154 30.7449 30.9363 30.2771C30.596 28.4162 28.9677 27.0049 27.0093 27.0009C27.0065 27.0009 27.0037 27.0009 27.0009 27.0009C26.9981 27.0009 26.9953 27.0009 26.9925 27.0009Z"/>
<path fill-rule="evenodd" clip-rule="evenodd" d="M16 16.5C16 16.2239 16.2239 16 16.5 16H22.7324C22.8996 16 23.0557 16.0836 23.1484 16.2226L24.3333 18H31.5C31.7761 18 32 18.2239 32 18.5V26.5C32 26.7761 31.7761 27 31.5 27C31.2239 27 31 26.7761 31 26.5V19H17V29H20.5C20.7761 29 21 29.2239 21 29.5C21 29.7761 20.7761 30 20.5 30H16.5C16.2239 30 16 29.7761 16 29.5V16.5ZM17 18V17H22.4648L23.1315 18H17Z"/>
</svg>
