<svg width="14" height="15" viewBox="0 0 14 15" fill="none" xmlns="http://www.w3.org/2000/svg">
<g clip-path="url(#clip0)">
<path d="M14.0001 10.7739C14.0001 8.53987 12.3618 6.70299 10.2271 6.35547C9.78028 6.80228 9.23418 7.0505 8.63844 7.0505C8.43985 7.0505 8.24127 7.00086 8.09234 6.95121C7.99305 7.64625 7.74482 8.34128 7.34766 8.83774C8.88666 9.13561 10.1278 10.1782 10.7732 11.5186H14.0001V10.7739Z" fill="#BCBCBC"/>
<path d="M8.09224 6.20567C8.09224 6.30496 8.09224 6.40425 8.09224 6.4539C8.24118 6.50355 8.43976 6.55319 8.58869 6.55319C8.88657 6.55319 9.18444 6.4539 9.43267 6.30496C10.227 5.80851 10.8227 4.66667 10.8227 3.2766C10.8227 1.48936 9.82983 0 8.58869 0C7.4965 0 6.60288 1.14184 6.4043 2.68085C7.3972 3.22695 8.09224 4.56738 8.09224 6.20567Z" fill="#BCBCBC"/>
<path d="M10.773 13.6517V14.3964H0V13.6517C0 11.5169 1.48936 9.77934 3.47518 9.28288C3.57447 9.28288 3.67376 9.23324 3.82269 9.23324L3.87234 9.28288C3.92199 9.38218 3.97163 9.38218 4.02128 9.43182C4.07092 9.48147 4.17021 9.53111 4.21986 9.58076L4.2695 9.6304C4.36879 9.68005 4.41844 9.72969 4.51773 9.77934C4.61702 9.82898 4.76596 9.87863 4.91489 9.87863H4.96454C5.11347 9.87863 5.21277 9.92827 5.3617 9.92827C5.51064 9.92827 5.60993 9.92827 5.75887 9.87863C5.80851 9.87863 5.80851 9.87863 5.85816 9.87863C5.95745 9.82898 6.10638 9.82898 6.20567 9.77934C6.25532 9.77934 6.25532 9.72969 6.30496 9.72969C6.35461 9.68005 6.4539 9.68005 6.50355 9.6304L6.55319 9.58076C6.65248 9.53111 6.70213 9.48147 6.80142 9.38218C6.85106 9.38218 6.85106 9.33253 6.90071 9.28288C6.95035 9.23324 6.95035 9.23324 7 9.18359C8.39007 9.38218 9.58156 10.2261 10.2269 11.4176C10.5745 12.1623 10.773 12.907 10.773 13.6517Z" fill="#717776"/>
<path d="M7.64545 6.20515C7.64545 6.40373 7.64545 6.60231 7.59581 6.75125C7.49652 7.69451 7.09935 8.48883 6.55325 8.98529L6.50361 9.03493C6.45396 9.08458 6.35467 9.13422 6.30503 9.18387C6.25538 9.23352 6.15609 9.28316 6.10645 9.28316C6.10645 9.28316 6.0568 9.28316 6.0568 9.33281C5.95751 9.38245 5.90786 9.38245 5.80857 9.4321H5.75893C5.56035 9.4321 5.46106 9.4321 5.41141 9.4321C5.31212 9.4321 5.21283 9.4321 5.11354 9.38245H5.06389C4.9646 9.38245 4.86531 9.33281 4.76602 9.28316C4.66673 9.23352 4.61708 9.18387 4.51779 9.13422C4.46815 9.08458 4.4185 9.03493 4.36886 9.03493C4.31921 8.98529 4.26957 8.98529 4.26957 8.93564C4.12063 8.83635 4.02134 8.68742 3.8724 8.48883C3.47524 7.89309 3.17737 7.04912 3.17737 6.1555C3.17737 4.36827 4.17028 2.87891 5.41141 2.87891C5.75893 2.87891 6.10645 2.9782 6.40432 3.22642C7.09935 3.77252 7.64545 4.91437 7.64545 6.20515Z" fill="#717776"/>
</g>
<defs>
<clipPath id="clip0">
</clipPath>
</defs>
</svg>
