<svg width="36" height="36" viewBox="0 0 36 36" xmlns="http://www.w3.org/2000/svg">
<path fill-rule="evenodd" clip-rule="evenodd" d="M11.6242 15.6403C11.6242 12.4924 14.2549 10 17.4292 10C20.5847 10 23.2967 12.4791 23.2356 15.6595L23.2356 15.6596C23.1913 17.9637 23.7124 19.3683 24.1815 20.1663C24.4183 20.5692 24.6494 20.8305 24.8064 20.9824C24.8852 21.0586 24.9459 21.1078 24.98 21.1337C24.997 21.1467 25.0074 21.1539 25.0101 21.1557C25.0114 21.1566 25.0108 21.1562 25.0081 21.1544L25.0025 21.1509L24.9985 21.1484L24.9962 21.147L24.995 21.1463C24.9949 21.1462 24.9948 21.1461 24.9926 21.1496L24.4743 23H10.4743L10 21.1196C10.8173 20.6793 11.2994 19.5409 11.5143 18.1536C11.6145 17.5067 11.643 16.8917 11.6458 16.4354C11.6472 16.2085 11.6422 16.0242 11.637 15.8987C11.6344 15.8361 11.6318 15.7884 11.6299 15.7576L11.6277 15.7245L11.6273 15.7186L11.6273 15.7182C11.6273 15.7182 11.6273 15.7182 11.6273 15.7182L11.6242 15.6403ZM13.6244 15.6085L13.6262 15.6358C13.6288 15.6788 13.6321 15.7396 13.6353 15.8161C13.6416 15.9689 13.6473 16.1851 13.6457 16.4475C13.6426 16.9696 13.6102 17.6878 13.4907 18.4597C13.3721 19.2252 13.1509 20.1555 12.7147 21H22.3551C21.7242 19.8505 21.1878 18.124 21.236 15.6211L22.2358 15.6403L21.236 15.6211C21.2733 13.6752 19.5838 12 17.4292 12C15.3049 12 13.6422 13.6441 13.6244 15.6085Z"/>
<path fill-rule="evenodd" clip-rule="evenodd" d="M19.5776 24.0254C19.5776 25.1157 18.5739 25.9998 17.3362 25.9998C16.0984 25.9998 15.0947 25.1157 15.0947 24.0254H19.5776Z"/>
</svg>
