<svg xmlns="http://www.w3.org/2000/svg" viewBox="0 0 569 553">
  <g>
    <g transform="scale(0.1)">
      <path style="fill:#f8b117;"
            d="M 5470,2769.87 C 5470,1303.56 4281.32,114.871 2815,114.871 1348.68,114.871 160,1303.56 160,2769.87 c 0,1466.32 1188.68,2655.01 2655,2655.01 1466.32,0 2655,-1188.69 2655,-2655.01" />
      <path style="fill:none;stroke:#ffffff;stroke-width:140;"
            d="M 3105.53,4175.73 V 3021.58 l 1043.2,305.77 c -159.01,477.1 -562.7,807.34 -1043.2,848.38 z" />
      <path style="fill:none;stroke:#ffffff;stroke-width:140;"
            d="m 3659.87,1844.35 -1081.77,679.6 -19.13,1338.71 C 1351.69,3717.55 1131.2,2540.62 1516.16,1963.18 1899.93,1387.54 2950.41,1085.95 3659.87,1844.35 Z" />
      <path style="fill:#ffffff;"
            d="M 4344.42,2984.87 3060.05,2703.53 4234.35,2043 c 165.36,244.67 207.94,623.85 110.07,941.87" />
    </g>
  </g>
</svg>