<svg width="48" height="48" viewBox="0 0 48 48" xmlns="http://www.w3.org/2000/svg">
<path fill-rule="evenodd" clip-rule="evenodd" d="M19.5 20C19.2239 20 19 20.2239 19 20.5V24.5C19 24.7761 19.2239 25 19.5 25H25.5C25.7761 25 26 24.7761 26 24.5V20.5C26 20.2239 25.7761 20 25.5 20H19.5ZM21 21H20V24H25V21H24V21.5C24 21.7761 23.7761 22 23.5 22H21.5C21.2239 22 21 21.7761 21 21.5V21Z"/>
<path fill-rule="evenodd" clip-rule="evenodd" d="M26.7291 27.4362C25.5923 28.411 24.1149 29 22.5 29C18.9101 29 16 26.0899 16 22.5C16 18.9101 18.9101 16 22.5 16C26.0899 16 29 18.9101 29 22.5C29 24.1149 28.411 25.5923 27.4362 26.7291L31.8536 31.1464C32.0488 31.3417 32.0488 31.6583 31.8536 31.8536C31.6583 32.0488 31.3417 32.0488 31.1464 31.8536L26.7291 27.4362ZM28 22.5C28 25.5376 25.5376 28 22.5 28C19.4624 28 17 25.5376 17 22.5C17 19.4624 19.4624 17 22.5 17C25.5376 17 28 19.4624 28 22.5Z"/>
</svg>
