<svg width="19" height="24" viewBox="0 0 19 24" fill="none" xmlns="http://www.w3.org/2000/svg">
<path d="M11.582 7.45838C11.1241 7.45838 10.774 7.1121 10.774 6.65927V0H0.996594C0.43096 0 0 0.426193 0 0.985572V23.0144C0 23.5472 0.43096 24 0.996594 24H17.3192C17.8579 24 18.3158 23.5472 18.3158 23.0144V7.45838H11.582ZM13.4406 16.8879C13.3059 16.9678 13.0635 17.0211 12.7941 17.0211C12.2015 17.0211 11.3396 16.8879 10.5854 16.515C9.34644 16.6482 8.37678 16.808 7.64954 17.101C7.56873 17.101 7.56873 17.101 7.51486 17.1809C6.62601 18.7259 5.89876 19.4451 5.30619 19.4451C5.17152 19.4451 5.09071 19.4451 5.00991 19.3652L4.63282 19.1521V19.0721C4.57895 18.939 4.57895 18.859 4.57895 18.7259C4.65975 18.3529 5.09071 17.7137 5.97957 17.1809C6.11424 17.101 6.35666 16.9678 6.62601 16.808C6.84149 16.4351 7.05697 16.0089 7.35325 15.5028C7.73034 14.7836 7.94582 14.0377 8.1613 13.3718C7.86502 12.4928 7.73034 11.9867 8.02662 10.9745C8.10743 10.6815 8.32291 10.3885 8.61919 10.3885H8.75387C8.88855 10.3885 9.05015 10.4684 9.18483 10.5216C9.69659 11.0277 9.48111 12.1998 9.18483 13.1587V13.2386C9.48111 14.0377 9.91207 14.7037 10.37 15.1299C10.5854 15.263 10.7471 15.4229 11.0164 15.5561C11.3935 15.5561 11.6628 15.4761 11.9591 15.4761C12.848 15.4761 13.4136 15.6093 13.656 15.9822C13.7368 16.1154 13.7368 16.2752 13.7368 16.4084C13.656 16.515 13.6022 16.7547 13.4406 16.8879ZM8.67307 14.0377C8.53839 14.5438 8.24211 15.1299 7.94582 15.7958C7.81115 16.0888 7.64954 16.3019 7.51486 16.5949H7.59567H7.67647C8.61919 16.222 9.50805 16.0089 10.1006 15.929C9.96594 15.8491 9.88514 15.7958 9.80433 15.7159C9.42725 15.2897 8.96935 14.7037 8.67307 14.0377ZM13.1443 16.3019C13.0635 16.222 12.7672 16.0089 11.7437 16.0089H11.609C11.609 16.0089 11.609 16.0089 11.609 16.0888C12.1207 16.3019 12.6325 16.4617 13.0096 16.4617H13.1443H13.2251C13.2251 16.4617 13.2251 16.4617 13.2251 16.3818C13.2251 16.3818 13.1443 16.3818 13.1443 16.3019ZM6.41053 17.394C6.27585 17.4739 6.11424 17.5272 6.03344 17.6071C5.52167 18.0333 5.14458 18.566 5.09071 18.7791C5.52167 18.7259 5.97957 18.273 6.41053 17.394ZM8.61919 12.3596C8.7 12.0666 8.75387 11.9334 8.75387 11.6937V11.5605C8.83467 11.1876 8.83467 10.8946 8.75387 10.8413C8.75387 10.8413 8.75387 10.8413 8.75387 10.7614L8.67307 10.6815C8.67307 10.6815 8.67307 10.7614 8.59226 10.7614C8.45759 11.1876 8.45759 11.6937 8.61919 12.3596ZM18.3158 6.3929H12.3901C12.0938 6.3929 11.8514 6.15316 11.8514 5.86016V0L18.3158 6.3929Z" fill="#BCBCBC"/>
</svg>
