<?xml version="1.0" encoding="utf-8"?>
<svg xmlns="http://www.w3.org/2000/svg"
     x="0px"
     y="0px"
     viewBox="0 0 1000 1000"
     enable-background="new 0 0 1000 1000"
     xml:space="preserve">
  <g>
    <g transform="translate(0.000000,511.000000) scale(0.100000,-0.100000)">
      <path
        d="M3405.6,4972.3c-44.9-24-95.8-68.9-113.8-101.8c-15-29.9-29.9-254.6-29.9-506.1v-449.2l-1494.4-9l-1494.4-9l-77.9-71.9c-143.8-134.8-119.8-395.3,38.9-482.2c35.9-18,281.5-29.9,584-29.9h521.1l18-185.7c9-104.8,30-437.2,47.9-742.7c281.5-5139.1,395.3-6968.9,437.2-7031.8c104.8-161.7,12-158.7,3219.4-149.7l2967.8,9l80.9,92.8c104.8,116.8,77.9-254.6,317.4,4159.8c107.8,1976.6,203.6,3650.6,212.6,3722.5l15,125.8h524.1c320.4,0,548.1,12,587,32.9c80.9,41.9,152.7,221.6,128.8,326.4c-9,44.9-50.9,113.8-92.8,152.7l-77.9,71.9l-1494.4,9l-1494.4,9v449.2c0,251.6-15,476.2-29.9,509.1c-77.9,143.7-101.8,146.7-1713,146.7C3723.1,5017.2,3474.5,5011.2,3405.6,4972.3z M6136.8,4166.7v-254.6h-1138h-1138v254.6v254.6h1138h1138V4166.7z M8023.6,3262.2c3-116.8-395.3-7307.3-407.3-7367.2l-12-68.9H4998.8H2396.4l-15,128.8c-18,143.7-407.3,7073.7-407.3,7247.4v110.8h3024.7C7858.9,3313.1,8023.6,3310.1,8023.6,3262.2z" />
      <path
        d="M2980.4,2621.3c-44.9-35.9-92.8-92.8-107.8-128.8c-12-35.9,44.9-1266.8,137.8-2878c86.8-1548.3,161.7-2860,161.7-2917c0-71.9,26.9-125.8,101.8-200.6c113.8-113.8,209.6-128.8,347.4-56.9C3741-3497,3771-3431.2,3771-3230.5c0,176.7-287.5,5375.6-311.5,5615.2C3435.6,2639.3,3169,2771.1,2980.4,2621.3z" />
      <path
        d="M4786.2,2597.4l-86.8-86.9V-451.3c0-2758.2,6-2961.8,53.9-3021.7c101.8-128.8,236.6-161.7,380.3-95.8c170.7,77.9,164.7-53.9,164.7,3138.5v2940.9l-86.8,86.9c-68.9,68.9-113.8,86.8-212.6,86.8C4900,2684.2,4855.1,2666.3,4786.2,2597.4z" />
      <path
        d="M6637,2624.3c-41.9-32.9-83.8-83.8-92.9-113.8c-26.9-83.9-350.4-5851.8-332.4-5908.7c27-83.9,191.7-206.7,272.5-206.7c101.8,0,242.6,77.9,284.5,155.7c29.9,56.9,353.4,5306.8,356.4,5797.9c0,137.8-12,173.7-86.9,248.6C6930.5,2705.2,6753.8,2717.2,6637,2624.3z" />
    </g>
  </g>
</svg>
