<svg width="16" height="14" viewBox="0 0 16 14" fill="none" xmlns="http://www.w3.org/2000/svg">
<path d="M3.29412 9L6.4971 6L-2.45987e-07 6L3.29412 9Z" fill="#717776"/>
<path fill-rule="evenodd" clip-rule="evenodd" d="M7 14H0V13H7V14Z" fill="#717776"/>
<path fill-rule="evenodd" clip-rule="evenodd" d="M9.5 1C5.80427 1 4 3.74715 4 6H3C3 3.25285 5.19573 0 9.5 0C13.0453 0 16 2.71196 16 6.5C16 8.33797 15.4758 10.2069 14.3261 11.6271C13.1648 13.0617 11.3945 14 9 14V13C11.1055 13 12.5852 12.1883 13.5489 10.9979C14.5242 9.79307 15 8.16203 15 6.5C15 3.28804 12.5172 1 9.5 1Z" fill="#717776"/>
</svg>
