<svg width="48" height="48" viewBox="0 0 48 48" fill="none" xmlns="http://www.w3.org/2000/svg">
<path d="M26.5 24C26.5 25.3846 25.3846 26.5 24 26.5C22.6154 26.5 21.5 25.3846 21.5 24C21.5 22.6154 22.6154 21.5 24 21.5C25.3846 21.5 26.5 22.6154 26.5 24Z" stroke-miterlimit="10"/>
<path d="M18.6049 25.9341L18.502 25.7284L18.2789 25.6726L16.5 25.2279V22.7643L18.2769 22.3279L18.5015 22.2727L18.6049 22.0659C18.6432 21.9893 18.6803 21.9058 18.7119 21.8347L18.7142 21.8296C18.7485 21.7525 18.7769 21.6887 18.8041 21.6344L18.9268 21.3889L18.7856 21.1535L17.8661 19.6211L19.6211 17.8661L21.1535 18.7856L21.3889 18.9268L21.6344 18.8041C21.7676 18.7374 21.8836 18.6797 22.028 18.6219L22.2666 18.5265L22.3279 18.2769L22.7643 16.5H25.2357L25.6721 18.2769L25.7273 18.5015L25.9341 18.6049C26.0107 18.6432 26.0942 18.6803 26.1653 18.7119L26.1704 18.7142C26.2475 18.7485 26.3113 18.7769 26.3656 18.8041L26.6111 18.9268L26.8465 18.7856L28.3789 17.8661L30.1339 19.6211L29.2144 21.1535L29.0732 21.3889L29.1959 21.6344C29.2231 21.6887 29.2515 21.7525 29.2858 21.8296L29.2881 21.8346C29.3197 21.9058 29.3568 21.9893 29.3951 22.0659L29.4985 22.2727L29.7231 22.3279L31.5 22.7643V25.2357L29.7231 25.6721L29.4985 25.7273L29.3951 25.9341C29.3568 26.0107 29.3197 26.0942 29.2881 26.1653L29.2858 26.1704C29.2515 26.2475 29.2231 26.3113 29.1959 26.3656L29.0732 26.6111L29.2144 26.8465L30.1339 28.3789L28.3789 30.1339L26.8465 29.2144L26.6111 29.0732L26.3656 29.1959C26.3113 29.2231 26.2475 29.2515 26.1704 29.2858L26.1653 29.2881C26.0942 29.3197 26.0107 29.3568 25.9341 29.3951L25.7273 29.4985L25.6721 29.7231L25.2357 31.5H22.7643L22.3279 29.7231L22.2727 29.4985L22.0659 29.3951C21.9893 29.3568 21.9058 29.3197 21.8346 29.2881L21.8296 29.2858C21.7525 29.2515 21.6887 29.2231 21.6344 29.1959L21.3889 29.0732L21.1535 29.2144L19.6211 30.1339L17.8661 28.3789L18.7856 26.8465L18.9268 26.6111L18.8041 26.3656C18.7769 26.3113 18.7485 26.2475 18.7142 26.1704L18.7119 26.1653C18.6803 26.0942 18.6432 26.0107 18.6049 25.9341Z" stroke-miterlimit="10"/>
</svg>
