<svg width="36" height="36" viewBox="2 2 36 36" xmlns="http://www.w3.org/2000/svg">
<path fill-rule="evenodd" clip-rule="evenodd" d="M18.0001 10C18.727 10 19.3807 10.4426 19.6507 11.1175L20.9814 14.4444H24.2222C24.9399 14.4444 25.5872 14.876 25.8632 15.5386C26.1392 16.2011 25.9898 16.9646 25.4844 17.4742L22.7819 20.1987L24.1004 23.5756C24.377 24.284 24.1724 25.0898 23.5915 25.5804C23.0105 26.0711 22.1818 26.1379 21.5298 25.7466L18 23.6288L14.4702 25.7466C13.8182 26.1379 12.9895 26.0711 12.4085 25.5804C11.8276 25.0898 11.623 24.2839 11.8996 23.5756L13.2181 20.1987L10.5157 17.4742C10.0102 16.9646 9.86075 16.2011 10.1368 15.5386C10.4128 14.876 11.0601 14.4444 11.7778 14.4444H15.0186L16.3494 11.1175C16.6194 10.4426 17.2731 9.99999 18.0001 10ZM16.2222 16.2222H11.7778L15.2948 19.7679L13.5556 24.2222L18 21.5555L22.4444 24.2222L20.7053 19.7679L24.2222 16.2222H19.7778L18 11.7778L16.2222 16.2222Z"/>
</svg>
