<svg version="1.1" xmlns="http://www.w3.org/2000/svg" viewBox="0 0 20 20">
	<path fill="#F49719" d="M15.86 14.03C16.09 14.03 16.3 13.92 16.43 13.73C16.56 13.53 16.58 13.29 16.49 13.08C15.46 10.69 14.02 9.54 13.35 9.11C13.31 8.55 12.95 4.03 12.91 3.47C13.99 2.5 14.14 1.25 14.15 1.19C14.17 1 14.11 0.81 13.98 0.66C13.85 0.52 13.67 0.44 13.47 0.44C12.81 0.44 7.5 0.45 6.83 0.45C6.64 0.45 6.45 0.53 6.32 0.68C6.19 0.82 6.13 1.02 6.15 1.21C6.27 2.28 6.96 3.07 7.37 3.45C7.32 4.02 6.94 8.57 6.9 9.14C6.25 9.6 4.78 10.83 3.8 13.1C3.7 13.31 3.73 13.55 3.85 13.75C3.88 13.79 3.91 13.82 3.94 13.85C4.07 13.98 4.24 14.05 4.42 14.05C4.76 14.05 6.43 14.05 9.44 14.04C9.44 17.06 9.44 18.73 9.44 19.07C9.43 19.25 9.51 19.43 9.63 19.55C9.76 19.67 9.93 19.75 10.12 19.75C10.5 19.75 10.8 19.44 10.8 19.06C10.8 18.73 10.81 17.05 10.81 14.04C13.84 14.04 15.52 14.03 15.86 14.03Z"></path>
</svg>