<svg xmlns="http://www.w3.org/2000/svg" viewBox="0 0 100 100">
	<path d="M80.581,64.457c-3.276,0-6.364,0.962-8.678,2.893l-14.285-8.506c0.959-2.775,1.506-5.742,1.506-8.844   c0-3.162-0.569-6.181-1.563-9.001l14.343-8.538c2.313,1.925,5.401,3.082,8.678,3.082c8.099,0,14.457-6.553,14.457-14.457   c0-8.099-6.358-14.457-14.457-14.457c-7.899,0-14.457,6.358-14.457,14.457c0,0.773,0.194,1.541,0.194,2.314l-14.174,8.503   c-4.954-5.496-12.108-8.97-20.091-8.97C17.105,22.934,4.986,35.048,4.986,50s12.119,27.066,27.067,27.066   c8.043,0,15.246-3.525,20.204-9.096l14.062,8.435c0,0.773-0.194,1.547-0.194,2.509c0,7.904,6.558,14.457,14.457,14.457   c8.099,0,14.457-6.553,14.457-14.457C95.038,70.814,88.68,64.457,80.581,64.457z M46.773,54.399H17.337v-8.799h29.437V54.399z"></path>
</svg>