<svg width="36" height="36" viewBox="2 2 36 36" xmlns="http://www.w3.org/2000/svg">
<path fill-rule="evenodd" clip-rule="evenodd" d="M17.9999 16C19.1044 16 19.9998 15.1046 19.9998 14C19.9998 12.8954 19.1044 12 17.9999 12C16.8954 12 16 12.8954 16 14C16 15.1046 16.8954 16 17.9999 16ZM17.9999 18C20.209 18 21.9998 16.2091 21.9998 14C21.9998 11.7909 20.209 10 17.9999 10C15.7908 10 14 11.7909 14 14C14 16.2091 15.7908 18 17.9999 18Z"/>
<path fill-rule="evenodd" clip-rule="evenodd" d="M14.0717 23.242C14.1647 23.295 14.2802 23.354 14.4225 23.4159C15.0813 23.7023 16.2168 24 18 24C19.7832 24 20.9187 23.7023 21.5775 23.4159C21.7198 23.354 21.8353 23.295 21.9283 23.242C21.5741 21.3953 19.95 20 18 20C16.05 20 14.4259 21.3953 14.0717 23.242ZM24 24C23.6667 24.6667 22 26 18 26C14 26 12.3333 24.6667 12 24C12 20.6863 14.6863 18 18 18C21.3137 18 24 20.6863 24 24Z"/>
</svg>
