<svg width="48" height="48" viewBox="0 0 48 48" xmlns="http://www.w3.org/2000/svg">
<path d="M23.6 23.5C25.144 23.5 26.4 22.0421 26.4 20.25C26.4 18.4579 25.144 17 23.6 17C22.056 17 20.8 18.4579 20.8 20.25C20.8 22.0421 22.056 23.5 23.6 23.5ZM23.6 18.8571C24.264 18.8571 24.8 19.4793 24.8 20.25C24.8 21.0207 24.264 21.6429 23.6 21.6429C22.936 21.6429 22.4 21.0207 22.4 20.25C22.4 19.4793 22.936 18.8571 23.6 18.8571ZM23.64 28.1429H20.216C21.008 27.6786 22.376 27.2143 23.6 27.2143C23.688 27.2143 23.784 27.2236 23.872 27.2236C24.144 26.5457 24.616 25.9886 25.184 25.5429C24.6 25.4221 24.048 25.3571 23.6 25.3571C21.728 25.3571 18 26.4436 18 28.6071V30H23.6V28.6071C23.6 28.4493 23.616 28.2914 23.64 28.1429ZM29.6 25.8214C28.128 25.8214 25.2 26.7593 25.2 28.6071V30H34V28.6071C34 26.7593 31.072 25.8214 29.6 25.8214ZM30.568 24.1314C31.176 23.7321 31.6 22.98 31.6 22.1071C31.6 20.8257 30.704 19.7857 29.6 19.7857C28.496 19.7857 27.6 20.8257 27.6 22.1071C27.6 22.98 28.024 23.7321 28.632 24.1314C28.92 24.3171 29.248 24.4286 29.6 24.4286C29.952 24.4286 30.28 24.3171 30.568 24.1314Z"/>
</svg>
