<svg width="16" height="16" viewBox="0 0 16 16" xmlns="http://www.w3.org/2000/svg">
<path fill-rule="evenodd" clip-rule="evenodd" d="M5 2H2L2 4H5V2ZM2 0C0.895431 0 0 0.89543 0 2V4C0 5.10457 0.89543 6 2 6H5C6.10457 6 7 5.10457 7 4V2C7 0.895431 6.10457 0 5 0H2Z"/>
<path fill-rule="evenodd" clip-rule="evenodd" d="M5 9H2L2 14H5V9ZM2 7C0.895431 7 0 7.89543 0 9V14C0 15.1046 0.89543 16 2 16H5C6.10457 16 7 15.1046 7 14V9C7 7.89543 6.10457 7 5 7H2Z"/>
<path fill-rule="evenodd" clip-rule="evenodd" d="M14 12H11L11 14H14V12ZM11 10C9.89543 10 9 10.8954 9 12V14C9 15.1046 9.89543 16 11 16H14C15.1046 16 16 15.1046 16 14V12C16 10.8954 15.1046 10 14 10H11Z"/>
<path fill-rule="evenodd" clip-rule="evenodd" d="M14 2H11L11 7H14V2ZM11 0C9.89543 0 9 0.89543 9 2V7C9 8.10457 9.89543 9 11 9H14C15.1046 9 16 8.10457 16 7V2C16 0.895431 15.1046 0 14 0H11Z"/>
</svg>
