<svg width="32" height="32" viewBox="0 0 32 32" fill="none" xmlns="http://www.w3.org/2000/svg">
<path d="M15.9621 4L8.12695 7.03297L15.9621 10.0659L23.7973 7.03297L15.9621 4Z" fill="white"/>
<path d="M12.3239 9.57246L15.9605 11.0773L19.5976 9.57227C20.0156 10.4104 20.2575 11.4032 20.2575 12.4674C20.2575 15.4685 18.3338 17.9014 15.9608 17.9014C13.5878 17.9014 11.6641 15.4685 11.6641 12.4674C11.6641 11.4033 11.9059 10.4106 12.3239 9.57246Z" fill="white"/>
<path d="M8.25352 20.0491L7.18066 22.8551C9.26671 25.3861 12.4258 26.9997 15.9618 26.9997C19.5418 26.9997 22.7356 25.3456 24.8204 22.76L23.5447 20.0491L19.5008 17.7744H19.0158C18.1737 18.4831 17.1336 18.9116 15.962 18.9116C14.7904 18.9116 13.7503 18.4831 12.9082 17.7744H12.4238L8.25352 20.0491Z" fill="white"/>
</svg>
