<svg width="18" height="18" viewBox="0 0 18 18" fill="none" xmlns="http://www.w3.org/2000/svg">
<path fill-rule="evenodd" clip-rule="evenodd" d="M9 18C13.9706 18 18 13.9706 18 9C18 4.02944 13.9706 0 9 0C4.02944 0 0 4.02944 0 9C0 13.9706 4.02944 18 9 18Z" fill="#3B3B3B"/>
<path d="M11.5 8.5L8 8.5" stroke="white" stroke-linecap="round"/>
<path d="M13.5 4.5H7.5V14.5" stroke="white" stroke-linecap="round"/>
<path d="M5 11C4.72386 11 4.5 11.2239 4.5 11.5C4.5 11.7761 4.72386 12 5 12V11ZM10 12C10.2761 12 10.5 11.7761 10.5 11.5C10.5 11.2239 10.2761 11 10 11V12ZM5 12H10V11H5V12Z" fill="white"/>
</svg>
