<svg width="18" height="18" viewBox="0 0 18 18" fill="none" xmlns="http://www.w3.org/2000/svg">
<path fill-rule="evenodd" clip-rule="evenodd" d="M9 18C13.9706 18 18 13.9706 18 9C18 4.02944 13.9706 0 9 0C4.02944 0 0 4.02944 0 9C0 13.9706 4.02944 18 9 18Z" fill="#3B3B3B"/>
<path d="M6.5 11C6.22386 11 6 11.2239 6 11.5C6 11.7761 6.22386 12 6.5 12V11ZM11.5 12C11.7761 12 12 11.7761 12 11.5C12 11.2239 11.7761 11 11.5 11V12ZM6.5 12H11.5V11H6.5V12Z" fill="white"/>
<path d="M5.5 4.5L9 8" stroke="white" stroke-linecap="round"/>
<path d="M12.5 4.5L9 8V14.5" stroke="white" stroke-linecap="round"/>
<path d="M6.5 9C6.22386 9 6 9.22386 6 9.5C6 9.77614 6.22386 10 6.5 10V9ZM11.5 10C11.7761 10 12 9.77614 12 9.5C12 9.22386 11.7761 9 11.5 9V10ZM6.5 10H11.5V9H6.5V10Z" fill="white"/>
</svg>
