<svg width="18" height="18" viewBox="0 0 18 18" fill="none" xmlns="http://www.w3.org/2000/svg">
<path fill-rule="evenodd" clip-rule="evenodd" d="M9 18C13.9706 18 18 13.9706 18 9C18 4.02944 13.9706 0 9 0C4.02944 0 0 4.02944 0 9C0 13.9706 4.02944 18 9 18Z" fill="#3B3B3B"/>
<path d="M4 3.5V13.5" stroke="white" stroke-linecap="round"/>
<path d="M5.5 7.5L9.5 13.5" stroke="white" stroke-linecap="round"/>
<path d="M9 3.5L4 8.5" stroke="white" stroke-linecap="round"/>
<path d="M15.5 8.40044C14.9706 7.84477 14.2328 7.5 13.4167 7.5C11.8058 7.5 10.5 8.84315 10.5 10.5C10.5 12.1569 11.8058 13.5 13.4167 13.5C14.2328 13.5 14.9706 13.1552 15.5 12.5996" stroke="white" stroke-linecap="round"/>
<path d="M14.5 3.5L13 5.5L11.5 3.5" stroke="white" stroke-linecap="round" stroke-linejoin="round"/>
</svg>
