<svg width="18" height="18" viewBox="0 0 18 18" fill="none" xmlns="http://www.w3.org/2000/svg">
<path fill-rule="evenodd" clip-rule="evenodd" d="M9 18C13.9706 18 18 13.9706 18 9C18 4.02944 13.9706 0 9 0C4.02944 0 0 4.02944 0 9C0 13.9706 4.02944 18 9 18Z" fill="#3B3B3B"/>
<path d="M4 3.5V13.5" stroke="white" stroke-linecap="round"/>
<path d="M5.5 7.5L9.5 13.5" stroke="white" stroke-linecap="round"/>
<path d="M9 3.5L4 8.5" stroke="white" stroke-linecap="round"/>
<path d="M15.5 8.40044C14.9706 7.84477 14.2328 7.5 13.4167 7.5C12.683 7.5 12.0126 7.77864 11.5 8.23864" stroke="white" stroke-linecap="round"/>
<path d="M12 7.5C12 7.22386 11.7761 7 11.5 7C11.2239 7 11 7.22386 11 7.5L12 7.5ZM11 13.5C11 13.7761 11.2239 14 11.5 14C11.7761 14 12 13.7761 12 13.5L11 13.5ZM11 7.5L11 13.5L12 13.5L12 7.5L11 7.5Z" fill="white"/>
</svg>
