<svg width="18" height="18" viewBox="0 0 18 18" fill="none" xmlns="http://www.w3.org/2000/svg">
<path fill-rule="evenodd" clip-rule="evenodd" d="M9 18C13.9706 18 18 13.9706 18 9C18 4.02944 13.9706 0 9 0C4.02944 0 0 4.02944 0 9C0 13.9706 4.02944 18 9 18Z" fill="#3B3B3B"/>
<path fill-rule="evenodd" clip-rule="evenodd" d="M9.04819 4.5C7.18204 4.5 5.5 6.41091 5.5 9C5.5 11.5891 7.18204 13.5 9.04819 13.5C10.0278 13.5 10.9395 12.9905 11.602 12.1191C11.7691 11.8993 12.0827 11.8565 12.3026 12.0237C12.5224 12.1908 12.5652 12.5044 12.398 12.7243C11.5835 13.7959 10.3967 14.5 9.04819 14.5C6.44284 14.5 4.5 11.9338 4.5 9C4.5 6.06624 6.44284 3.5 9.04819 3.5C10.2722 3.5 11.3651 4.081 12.1649 4.99058C12.3473 5.19794 12.327 5.51388 12.1196 5.69623C11.9123 5.87858 11.5963 5.8583 11.414 5.65093C10.7717 4.92051 9.93909 4.5 9.04819 4.5Z" fill="white"/>
<path fill-rule="evenodd" clip-rule="evenodd" d="M3 7.5C3 7.22386 3.22386 7 3.5 7H8.5C8.77614 7 9 7.22386 9 7.5C9 7.77614 8.77614 8 8.5 8H3.5C3.22386 8 3 7.77614 3 7.5Z" fill="white"/>
<path fill-rule="evenodd" clip-rule="evenodd" d="M3 10.5C3 10.2239 3.22386 10 3.5 10H8.5C8.77614 10 9 10.2239 9 10.5C9 10.7761 8.77614 11 8.5 11H3.5C3.22386 11 3 10.7761 3 10.5Z" fill="white"/>
</svg>
