<svg width="18" height="18" viewBox="0 0 18 18" fill="none" xmlns="http://www.w3.org/2000/svg">
<path fill-rule="evenodd" clip-rule="evenodd" d="M9 18C13.9706 18 18 13.9706 18 9C18 4.02944 13.9706 0 9 0C4.02944 0 0 4.02944 0 9C0 13.9706 4.02944 18 9 18Z" fill="#3B3B3B"/>
<path fill-rule="evenodd" clip-rule="evenodd" d="M9.99994 4.5C8.61922 4.5 7.49994 5.61929 7.49994 7V9H10.5C10.7761 9 11 9.22386 11 9.5C11 9.77614 10.7761 10 10.5 10H7.49994V12C7.49994 12.261 7.45632 12.6412 7.3172 13H12.9999C13.2761 13 13.4999 13.2239 13.4999 13.5C13.4999 13.7761 13.2761 14 12.9999 14H5.99994C5.72379 14 5.49994 13.7761 5.49994 13.5C5.49994 13.2239 5.72379 13 5.99994 13C6.13729 13 6.24686 12.9343 6.34917 12.7211C6.45707 12.4963 6.49994 12.2013 6.49994 12V10H5.5C5.22386 10 5 9.77614 5 9.5C5 9.22386 5.22386 9 5.5 9H6.49994V7C6.49994 5.067 8.06694 3.5 9.99994 3.5C11.9329 3.5 13.4999 5.067 13.4999 7C13.4999 7.27614 13.2761 7.5 12.9999 7.5C12.7238 7.5 12.4999 7.27614 12.4999 7C12.4999 5.61929 11.3806 4.5 9.99994 4.5Z" fill="white"/>
</svg>
