<svg width="18" height="18" viewBox="0 0 18 18" fill="none" xmlns="http://www.w3.org/2000/svg">
<path fill-rule="evenodd" clip-rule="evenodd" d="M9 18C13.9706 18 18 13.9706 18 9C18 4.02944 13.9706 0 9 0C4.02944 0 0 4.02944 0 9C0 13.9706 4.02944 18 9 18Z" fill="#3B3B3B"/>
<path d="M13 6C13 4.89543 12.1046 4 11 4C9.89543 4 9 4.89543 9 6V12" stroke="white" stroke-linecap="round"/>
<path d="M5 12C5 13.1046 5.89543 14 7 14C8.10457 14 9 13.1046 9 12" stroke="white" stroke-linecap="round"/>
<line x1="7.5" y1="7.5" x2="10.5" y2="7.5" stroke="white" stroke-linecap="round"/>
</svg>
