<svg width="18" height="18" viewBox="0 0 18 18" fill="none" xmlns="http://www.w3.org/2000/svg">
<path fill-rule="evenodd" clip-rule="evenodd" d="M9 18C13.9706 18 18 13.9706 18 9C18 4.02944 13.9706 0 9 0C4.02944 0 0 4.02944 0 9C0 13.9706 4.02944 18 9 18Z" fill="#3B3B3B"/>
<path d="M6.72363 11H5.98242L4.08105 7.97363V11H3.33984V6.73438H4.08105L5.98828 9.77246V6.73438H6.72363V11Z" fill="white"/>
<path d="M11.0039 8.97852C11.0039 9.39648 10.9316 9.76367 10.7871 10.0801C10.6426 10.3945 10.4355 10.6367 10.166 10.8066C9.89844 10.9746 9.58984 11.0586 9.24023 11.0586C8.89453 11.0586 8.58594 10.9746 8.31445 10.8066C8.04492 10.6367 7.83594 10.3955 7.6875 10.083C7.54102 9.77051 7.4668 9.41016 7.46484 9.00195V8.76172C7.46484 8.3457 7.53809 7.97852 7.68457 7.66016C7.83301 7.3418 8.04102 7.09863 8.30859 6.93066C8.57812 6.76074 8.88672 6.67578 9.23438 6.67578C9.58203 6.67578 9.88965 6.75977 10.1572 6.92773C10.4268 7.09375 10.6348 7.33398 10.7812 7.64844C10.9277 7.96094 11.002 8.3252 11.0039 8.74121V8.97852ZM10.2627 8.75586C10.2627 8.2832 10.1729 7.9209 9.99316 7.66895C9.81543 7.41699 9.5625 7.29102 9.23438 7.29102C8.91406 7.29102 8.66309 7.41699 8.48145 7.66895C8.30176 7.91895 8.20996 8.27344 8.20605 8.73242V8.97852C8.20605 9.44727 8.29688 9.80957 8.47852 10.0654C8.66211 10.3213 8.91602 10.4492 9.24023 10.4492C9.56836 10.4492 9.82031 10.3242 9.99609 10.0742C10.1738 9.82422 10.2627 9.45898 10.2627 8.97852V8.75586Z" fill="white"/>
<path d="M12.9668 9.15723L12.4834 9.66992V11H11.7422V6.73438H12.4834V8.73535L12.8936 8.22852L14.1416 6.73438H15.0381L13.4531 8.62402L15.1289 11H14.25L12.9668 9.15723Z" fill="white"/>
</svg>
