<svg width="18" height="18" viewBox="0 0 18 18" fill="none" xmlns="http://www.w3.org/2000/svg">
<path fill-rule="evenodd" clip-rule="evenodd" d="M9 18C13.9706 18 18 13.9706 18 9C18 4.02944 13.9706 0 9 0C4.02944 0 0 4.02944 0 9C0 13.9706 4.02944 18 9 18Z" fill="#3B3B3B"/>
<path d="M5.00098 9.35645H4.1748V11H3.43359V6.73438H4.93359C5.42578 6.73438 5.80566 6.84473 6.07324 7.06543C6.34082 7.28613 6.47461 7.60547 6.47461 8.02344C6.47461 8.30859 6.40527 8.54785 6.2666 8.74121C6.12988 8.93262 5.93848 9.08008 5.69238 9.18359L6.65039 10.9619V11H5.85645L5.00098 9.35645ZM4.1748 8.76172H4.93652C5.18652 8.76172 5.38184 8.69922 5.52246 8.57422C5.66309 8.44727 5.7334 8.27441 5.7334 8.05566C5.7334 7.82715 5.66797 7.65039 5.53711 7.52539C5.4082 7.40039 5.21484 7.33594 4.95703 7.33203H4.1748V8.76172Z" fill="white"/>
<path d="M10.582 8.97852C10.582 9.39648 10.5098 9.76367 10.3652 10.0801C10.2207 10.3945 10.0137 10.6367 9.74414 10.8066C9.47656 10.9746 9.16797 11.0586 8.81836 11.0586C8.47266 11.0586 8.16406 10.9746 7.89258 10.8066C7.62305 10.6367 7.41406 10.3955 7.26562 10.083C7.11914 9.77051 7.04492 9.41016 7.04297 9.00195V8.76172C7.04297 8.3457 7.11621 7.97852 7.2627 7.66016C7.41113 7.3418 7.61914 7.09863 7.88672 6.93066C8.15625 6.76074 8.46484 6.67578 8.8125 6.67578C9.16016 6.67578 9.46777 6.75977 9.73535 6.92773C10.0049 7.09375 10.2129 7.33398 10.3594 7.64844C10.5059 7.96094 10.5801 8.3252 10.582 8.74121V8.97852ZM9.84082 8.75586C9.84082 8.2832 9.75098 7.9209 9.57129 7.66895C9.39355 7.41699 9.14062 7.29102 8.8125 7.29102C8.49219 7.29102 8.24121 7.41699 8.05957 7.66895C7.87988 7.91895 7.78809 8.27344 7.78418 8.73242V8.97852C7.78418 9.44727 7.875 9.80957 8.05664 10.0654C8.24023 10.3213 8.49414 10.4492 8.81836 10.4492C9.14648 10.4492 9.39844 10.3242 9.57422 10.0742C9.75195 9.82422 9.84082 9.45898 9.84082 8.97852V8.75586Z" fill="white"/>
<path d="M14.7041 11H13.9629L12.0615 7.97363V11H11.3203V6.73438H12.0615L13.9688 9.77246V6.73438H14.7041V11Z" fill="white"/>
</svg>
