<svg width="18" height="18" viewBox="0 0 18 18" fill="none" xmlns="http://www.w3.org/2000/svg">
<path fill-rule="evenodd" clip-rule="evenodd" d="M9 18C13.9706 18 18 13.9706 18 9C18 4.02944 13.9706 0 9 0C4.02944 0 0 4.02944 0 9C0 13.9706 4.02944 18 9 18Z" fill="#3B3B3B"/>
<path fill-rule="evenodd" clip-rule="evenodd" d="M12 11C12 11.2761 11.7761 11.5 11.5 11.5L5.5 11.5C5.22386 11.5 5 11.2761 5 11C5 10.7239 5.22386 10.5 5.5 10.5L11.5 10.5C11.7761 10.5 12 10.7239 12 11Z" fill="white"/>
<path fill-rule="evenodd" clip-rule="evenodd" d="M7 4H10.2778C11.7871 4 13 5.23709 13 6.75C13 8.26291 11.7871 9.5 10.2778 9.5H8V13.5C8 13.7761 7.77614 14 7.5 14C7.22386 14 7 13.7761 7 13.5V9.5H5.5C5.22386 9.5 5 9.27614 5 9C5 8.72386 5.22386 8.5 5.5 8.5H7V4ZM8 8.5H10.2778C11.2231 8.5 12 7.72237 12 6.75C12 5.77763 11.2231 5 10.2778 5H8V8.5Z" fill="white"/>
</svg>
