<svg width="18" height="18" viewBox="0 0 18 18" fill="none" xmlns="http://www.w3.org/2000/svg">
<path fill-rule="evenodd" clip-rule="evenodd" d="M9 18C13.9706 18 18 13.9706 18 9C18 4.02944 13.9706 0 9 0C4.02944 0 0 4.02944 0 9C0 13.9706 4.02944 18 9 18Z" fill="#3B3B3B"/>
<path d="M5.66309 9.90137C5.66309 9.71387 5.59668 9.56934 5.46387 9.46777C5.33301 9.36621 5.0957 9.26367 4.75195 9.16016C4.4082 9.05664 4.13477 8.94141 3.93164 8.81445C3.54297 8.57031 3.34863 8.25195 3.34863 7.85938C3.34863 7.51562 3.48828 7.23242 3.76758 7.00977C4.04883 6.78711 4.41309 6.67578 4.86035 6.67578C5.15723 6.67578 5.42188 6.73047 5.6543 6.83984C5.88672 6.94922 6.06934 7.10547 6.20215 7.30859C6.33496 7.50977 6.40137 7.7334 6.40137 7.97949H5.66309C5.66309 7.75684 5.59277 7.58301 5.45215 7.45801C5.31348 7.33105 5.11426 7.26758 4.85449 7.26758C4.6123 7.26758 4.42383 7.31934 4.28906 7.42285C4.15625 7.52637 4.08984 7.6709 4.08984 7.85645C4.08984 8.0127 4.16211 8.14355 4.30664 8.24902C4.45117 8.35254 4.68945 8.4541 5.02148 8.55371C5.35352 8.65137 5.62012 8.76367 5.82129 8.89062C6.02246 9.01562 6.16992 9.16016 6.26367 9.32422C6.35742 9.48633 6.4043 9.67676 6.4043 9.89551C6.4043 10.251 6.26758 10.5342 5.99414 10.7451C5.72266 10.9541 5.35352 11.0586 4.88672 11.0586C4.57812 11.0586 4.29395 11.002 4.03418 10.8887C3.77637 10.7734 3.5752 10.6152 3.43066 10.4141C3.28809 10.2129 3.2168 9.97852 3.2168 9.71094H3.95801C3.95801 9.95312 4.03809 10.1406 4.19824 10.2734C4.3584 10.4062 4.58789 10.4727 4.88672 10.4727C5.14453 10.4727 5.33789 10.4209 5.4668 10.3174C5.59766 10.2119 5.66309 10.0732 5.66309 9.90137Z" fill="white"/>
<path d="M9.54785 9.0957H7.7959V10.4082H9.84375V11H7.05469V6.73438H9.82324V7.33203H7.7959V8.50977H9.54785V9.0957Z" fill="white"/>
<path d="M11.6719 9.15723L11.1885 9.66992V11H10.4473V6.73438H11.1885V8.73535L11.5986 8.22852L12.8467 6.73438H13.7432L12.1582 8.62402L13.834 11H12.9551L11.6719 9.15723Z" fill="white"/>
</svg>
