<svg width="18" height="18" viewBox="0 0 18 18" fill="none" xmlns="http://www.w3.org/2000/svg">
<path fill-rule="evenodd" clip-rule="evenodd" d="M9 18C13.9706 18 18 13.9706 18 9C18 4.02944 13.9706 0 9 0C4.02944 0 0 4.02944 0 9C0 13.9706 4.02944 18 9 18Z" fill="#3B3B3B"/>
<path fill-rule="evenodd" clip-rule="evenodd" d="M8.81495 6.06079C8.04012 6.06079 7.5 6.61286 7.5 7.19424C7.5 7.75741 8.03913 8.2968 8.8293 8.32788C10.0924 8.35365 11.148 9.38648 11.148 10.6971C11.148 11.9948 10.1202 13.0665 8.8331 13.0665C7.73159 13.0665 6.8126 12.2722 6.58401 11.2207C6.52535 10.9509 6.69654 10.6846 6.96638 10.6259C7.23622 10.5673 7.50253 10.7385 7.56119 11.0083C7.69559 11.6266 8.22855 12.0665 8.8331 12.0665C9.54244 12.0665 10.148 11.4684 10.148 10.6971C10.148 9.94048 9.53686 9.3409 8.80586 9.32761L8.79644 9.32744L8.79644 9.32735C7.62873 9.2841 6.5 8.44504 6.5 7.19424C6.5 5.96068 7.59333 5.06079 8.81495 5.06079C9.89545 5.06079 10.8384 5.76106 11.0794 6.74907C11.1448 7.01735 10.9804 7.28788 10.7121 7.35331C10.4438 7.41875 10.1733 7.25431 10.1078 6.98603C9.98582 6.48579 9.4768 6.06079 8.81495 6.06079Z" fill="white"/>
<path fill-rule="evenodd" clip-rule="evenodd" d="M8.83301 3.5C9.10915 3.5 9.33301 3.72386 9.33301 4V5.579C9.33301 5.85515 9.10915 6.079 8.83301 6.079C8.55687 6.079 8.33301 5.85515 8.33301 5.579V4C8.33301 3.72386 8.55687 3.5 8.83301 3.5Z" fill="white"/>
<path fill-rule="evenodd" clip-rule="evenodd" d="M8.83301 12.1211C9.10915 12.1211 9.33301 12.345 9.33301 12.6211V14.2001C9.33301 14.4762 9.10915 14.7001 8.83301 14.7001C8.55687 14.7001 8.33301 14.4762 8.33301 14.2001V12.6211C8.33301 12.345 8.55687 12.1211 8.83301 12.1211Z" fill="white"/>
</svg>
